<svg width="43" height="43" viewBox="0 0 43 43" fill="none" xmlns="http://www.w3.org/2000/svg">
<path d="M29.7422 24.9514C30.6631 25.8667 31.9121 26.381 33.2144 26.381C34.5167 26.381 35.7657 25.8667 36.6866 24.9514C37.6075 24.036 38.1248 22.7945 38.1248 21.5C38.1248 20.2055 37.6075 18.964 36.6866 18.0487C35.7657 17.1333 34.5167 16.6191 33.2144 16.6191C31.9121 16.6191 30.6631 17.1333 29.7422 18.0487C28.8214 18.964 28.304 20.2055 28.304 21.5C28.304 22.7945 28.8214 24.036 29.7422 24.9514Z" stroke="#2A82F2"/>
<path d="M27.3162 30.5605C25.695 32.0044 24.6668 33.9921 24.4287 36.1429L42.0001 36.1429C41.762 33.9921 40.7339 32.0044 39.1127 30.5605C37.4914 29.1166 35.3912 28.3182 33.2144 28.3182C31.0376 28.3182 28.9374 29.1166 27.3162 30.5605Z" stroke="#2A82F2"/>
<path d="M35.44 13.6905V7.56H31.2181C28.3716 7.56 25.6038 6.62572 23.3395 4.90061L18.22 1L13.1004 4.90061C10.8362 6.62572 8.0684 7.56 5.22188 7.56H1V25.4366C1 26.6172 1.31684 27.7762 1.91745 28.7926V28.7926C4.7948 33.662 9.0476 37.5719 14.1411 40.0309L18.22 42L24.4286 39.0714" stroke="#323232" stroke-linejoin="round"/>
<path d="M30 13.32H28.5894C25.7728 13.32 23.0325 12.4053 20.7807 10.7135L18.5 9L16.2193 10.7135C13.9675 12.4053 11.2272 13.32 8.41064 13.32H7V25.0748C7 25.8635 7.21411 26.6373 7.61947 27.3138V27.3138C9.53674 30.5132 12.3561 33.0753 15.7239 34.6785L18.5 36" stroke="#323232" stroke-linejoin="round"/>
</svg>
