<svg width="42" height="41" viewBox="0 0 42 41" fill="none" xmlns="http://www.w3.org/2000/svg">
<path d="M34.9325 3.46722H40.1333C40.61 3.46722 41.0001 3.85729 41.0001 4.33403V33.8054C41.0001 34.2821 40.61 34.6722 40.1333 34.6722H26.0911M9.79517 3.46722H4.59434C4.1176 3.46722 3.72754 3.85729 3.72754 4.33403V19.0697" stroke="#323232"/>
<path d="M3.72754 10.4017H41.0001" stroke="#323232"/>
<path d="M27.9548 14.909L37.273 14.909" stroke="#323232"/>
<path d="M27.9548 22.3636L37.273 22.3636" stroke="#323232"/>
<path d="M27.9548 29.818L37.273 29.818" stroke="#323232"/>
<path d="M33.1987 0V6.06763" stroke="#323232"/>
<path d="M13.2626 3.46722H31.4655" stroke="#323232"/>
<path d="M11.5286 0V6.06763" stroke="#323232"/>
<path d="M16.2731 28.8862C16.2731 31.1832 14.4108 33.0452 12.1147 33.0452C9.81718 33.0452 7.95496 31.1832 7.95496 28.8862C7.95496 26.5892 9.81718 24.7271 12.1147 24.7271C14.4108 24.7271 16.2731 26.5891 16.2731 28.8862Z" stroke="#2A82F2"/>
<path d="M9.35435 17.7727C9.35435 17.4966 9.57821 17.2727 9.85435 17.2727H14.3729C14.649 17.2727 14.8729 17.4966 14.8729 17.7727V18.0397C14.8729 20.7344 17.7904 22.4183 20.1237 21.0703L20.3517 20.9386C20.5909 20.8004 20.8968 20.8824 21.0349 21.1217L23.2946 25.0382C23.4326 25.2773 23.3507 25.5829 23.1116 25.721L22.8784 25.8557C20.5462 27.2031 20.5462 30.5696 22.8784 31.9169L23.1116 32.0517L23.3618 31.6188L23.1116 32.0517C23.3507 32.1898 23.4326 32.4954 23.2946 32.7345L21.0349 36.651C20.8968 36.8903 20.5909 36.9723 20.3517 36.8341L20.1237 36.7024C17.7904 35.3544 14.8729 37.0383 14.8729 39.733V39.9999C14.8729 40.276 14.649 40.4999 14.3729 40.4999H9.85435C9.57821 40.4999 9.35435 40.276 9.35435 39.9999V39.733C9.35435 37.0382 6.43684 35.3544 4.10351 36.7024L3.87551 36.8341C3.63631 36.9723 3.33037 36.8903 3.19231 36.651L0.932565 32.7345C0.794614 32.4954 0.876513 32.1898 1.11553 32.0517L1.34876 31.917C3.68097 30.5696 3.68098 27.2031 1.34878 25.8558L1.11552 25.721C0.876509 25.5829 0.794611 25.2773 0.932561 25.0382L3.19231 21.1217C3.33036 20.8824 3.63631 20.8004 3.87551 20.9386L4.10351 21.0703C6.43684 22.4183 9.35435 20.7345 9.35435 18.0397V17.7727Z" stroke="#2A82F2"/>
</svg>
