<svg width="42" height="41" viewBox="0 0 42 41" fill="none" xmlns="http://www.w3.org/2000/svg">
<mask id="path-1-inside-1" fill="white">
<path fill-rule="evenodd" clip-rule="evenodd" d="M27.2382 3.25393V0.999985C27.2382 0.447701 26.7904 -1.52588e-05 26.2382 -1.52588e-05H0.999999C0.447715 -1.52588e-05 0 0.447701 0 0.999987V31.5394C0 32.0917 0.447715 32.5394 1 32.5394H4.21805"/>
</mask>
<path d="M26.2382 3.25393V0.999985H28.2382V3.25393H26.2382ZM26.2382 0.999987H0.999999V-1.00002H26.2382V0.999987ZM1 0.999987V31.5394H-1V0.999987H1ZM1 31.5394H4.21805V33.5394H1V31.5394ZM1 31.5394V31.5394V33.5394C-0.10457 33.5394 -1 32.644 -1 31.5394H1ZM0.999999 0.999987H1H-1C-1 -0.104584 -0.104571 -1.00002 0.999999 -1.00002V0.999987ZM26.2382 0.999985V0.999987V-1.00002C27.3427 -1.00002 28.2382 -0.104584 28.2382 0.999985H26.2382Z" fill="#323232" mask="url(#path-1-inside-1)"/>
<mask id="path-3-inside-2" fill="white">
<path fill-rule="evenodd" clip-rule="evenodd" d="M33.5236 15.9413V7.50166C33.5236 6.94937 33.0758 6.50166 32.5236 6.50166H7.2854C6.73311 6.50166 6.2854 6.94937 6.2854 7.50166V40C6.2854 40.5523 6.73312 41 7.2854 41H20.9797"/>
</mask>
<path d="M32.5236 15.9413V7.50166H34.5236V15.9413H32.5236ZM32.5236 7.50166H7.2854V5.50166H32.5236V7.50166ZM7.2854 7.50166V40H5.2854V7.50166H7.2854ZM7.2854 40H20.9797V42H7.2854V40ZM7.2854 40V40V42C6.18083 42 5.2854 41.1045 5.2854 40H7.2854ZM7.2854 7.50166H7.2854H5.2854C5.2854 6.39709 6.18083 5.50166 7.2854 5.50166V7.50166ZM32.5236 7.50166V5.50166C33.6281 5.50166 34.5236 6.39708 34.5236 7.50166H32.5236Z" fill="#323232" mask="url(#path-3-inside-2)"/>
<path d="M33.8445 28.8863C33.8445 31.1833 31.9822 33.0453 29.6861 33.0453C27.3886 33.0453 25.5264 31.1832 25.5264 28.8863C25.5264 26.5893 27.3886 24.7272 29.6861 24.7272C31.9822 24.7272 33.8445 26.5892 33.8445 28.8863Z" stroke="#2A82F2"/>
<path d="M26.9256 17.7728C26.9256 17.4967 27.1495 17.2728 27.4256 17.2728H31.9441C32.2203 17.2728 32.4441 17.4967 32.4441 17.7728V18.0397C32.4441 20.7344 35.3616 22.4183 37.6949 21.0703L37.9229 20.9386C38.1621 20.8005 38.468 20.8824 38.6061 21.1217L40.8658 25.0382C41.0038 25.2773 40.9219 25.5829 40.6828 25.721L40.4496 25.8558C38.1174 27.2031 38.1174 30.5696 40.4496 31.917L40.6829 32.0517C40.9219 32.1898 41.0038 32.4954 40.8658 32.7345L38.6061 36.651C38.468 36.8903 38.1621 36.9723 37.9229 36.8341L37.6949 36.7024C35.3616 35.3544 32.4441 37.0383 32.4441 39.733V39.9999C32.4441 40.276 32.2203 40.4999 31.9441 40.4999H27.4256C27.1495 40.4999 26.9256 40.276 26.9256 39.9999V39.733C26.9256 37.0382 24.0081 35.3544 21.6748 36.7024L21.4468 36.8341C21.2076 36.9723 20.9016 36.8903 20.7636 36.651L18.5039 32.7345C18.3659 32.4954 18.4478 32.1898 18.6868 32.0517L18.92 31.917C21.2522 30.5696 21.2523 27.2032 18.9201 25.8558L18.6868 25.721L18.4367 26.154L18.6868 25.721C18.4478 25.5829 18.3659 25.2773 18.5038 25.0382L20.7636 21.1217C20.9016 20.8824 21.2076 20.8005 21.4468 20.9386L21.6748 21.0704C24.0081 22.4184 26.9256 20.7345 26.9256 18.0398V17.7728Z" stroke="#2A82F2"/>
</svg>
