<svg width="43" height="43" viewBox="0 0 43 43" fill="none" xmlns="http://www.w3.org/2000/svg">
<path d="M40.6159 6.01398L39.6785 11.7179L34.121 9.76091M39.3965 11.1663C33.6644 1.45577 20.9508 -1.88173 10.9998 3.7118C5.61829 6.73676 2.14684 11.7542 1 17.2603" stroke="#323232" stroke-linecap="round" stroke-linejoin="round"/>
<path d="M13.5706 16.5046C12.8672 14.9513 13.2698 13.3657 14.2091 12.347C15.145 11.3321 16.5841 10.9035 18.0043 11.6135C20.2185 12.7204 22.7806 12.7204 24.9948 11.6135C26.415 10.9035 27.8541 11.3321 28.79 12.347C29.7293 13.3657 30.1318 14.9513 29.4285 16.5046L27.3576 21.078C26.9751 21.9226 26.8188 22.8617 26.904 23.7926L26.9728 24.5443C27.1448 26.4228 26.8142 28.3137 26.0216 29.9962L25.3823 31.3532C25.1232 31.903 24.3778 31.863 24.2027 31.23L23.0759 27.1556C22.6183 25.5006 20.3808 25.5006 19.9231 27.1556L18.7964 31.23C18.6213 31.863 17.8758 31.903 17.6168 31.3532L16.9775 29.9962C16.1849 28.3137 15.8543 26.4228 16.0263 24.5443L16.0951 23.7926C16.1803 22.8617 16.0239 21.9226 15.6415 21.078L13.5706 16.5046Z" stroke="#2A82F2"/>
<path d="M2.5376 36.8974L3.39821 31.2378L8.87889 33.2391M3.60345 31.8337C9.3355 41.5442 22.0491 44.8817 32.0002 39.2882C37.3816 36.2632 40.8531 31.2458 41.9999 25.7397" stroke="#323232" stroke-linecap="round" stroke-linejoin="round"/>
</svg>
