<svg width="42" height="43" viewBox="0 0 42 43" fill="none" xmlns="http://www.w3.org/2000/svg">
<path d="M20.0727 34.6667H19.861L19.7137 34.8188L16.3263 38.3139L12.9413 34.8189L12.7939 34.6667H12.5821H10.0853C8.99792 34.6667 8.08838 33.7511 8.08838 32.5896V8.73133C8.08838 7.56985 8.99792 6.65417 10.0853 6.65417V6.15417C10.0853 6.65417 10.0853 6.65417 10.0854 6.65417H10.0857H10.0862H10.0869H10.0879H10.0891H10.0904H10.092H10.0938H10.0958H10.098H10.1004H10.103H10.1058H10.1089H10.1121H10.1155H10.1192H10.123H10.127H10.1313H10.1357H10.1403H10.1452H10.1502H10.1554H10.1608H10.1665H10.1723H10.1783H10.1845H10.1909H10.1975H10.2043H10.2113H10.2184H10.2258H10.2333H10.2411H10.249H10.2571H10.2654H10.2739H10.2826H10.2914H10.3005H10.3097H10.3191H10.3287H10.3385H10.3485H10.3586H10.3689H10.3794H10.3901H10.401H10.412H10.4232H10.4346H10.4462H10.4579H10.4699H10.482H10.4942H10.5067H10.5193H10.5321H10.545H10.5582H10.5714H10.5849H10.5986H10.6124H10.6263H10.6405H10.6548H10.6692H10.6839H10.6987H10.7136H10.7288H10.744H10.7595H10.7751H10.7909H10.8068H10.8229H10.8391H10.8556H10.8721H10.8888H10.9057H10.9228H10.9399H10.9573H10.9748H10.9924H11.0102H11.0282H11.0463H11.0645H11.083H11.1015H11.1202H11.1391H11.1581H11.1772H11.1965H11.2159H11.2355H11.2553H11.2751H11.2951H11.3153H11.3356H11.356H11.3766H11.3973H11.4182H11.4392H11.4603H11.4816H11.503H11.5246H11.5462H11.5681H11.59H11.6121H11.6343H11.6567H11.6792H11.7018H11.7245H11.7474H11.7704H11.7935H11.8168H11.8402H11.8637H11.8873H11.9111H11.935H11.959H11.9832H12.0074H12.0318H12.0563H12.081H12.1057H12.1306H12.1556H12.1807H12.2059H12.2313H12.2567H12.2823H12.308H12.3338H12.3597H12.3858H12.4119H12.4382H12.4645H12.491H12.5176H12.5443H12.5711H12.5981H12.6251H12.6522H12.6795H12.7068H12.7343H12.7619H12.7895H12.8173H12.8452H12.8732H12.9012H12.9294H12.9577H12.9861H13.0146H13.0432H13.0718H13.1006H13.1295H13.1585H13.1875H13.2167H13.2459H13.2753H13.3047H13.3343H13.3639H13.3936H13.4234H13.4533H13.4833H13.5134H13.5435H13.5738H13.6041H13.6346H13.6651H13.6957H13.7263H13.7571H13.788H13.8189H13.8499H13.881H13.9122H13.9434H13.9748H14.0062H14.0377H14.0692H14.1009H14.1326H14.1644H14.1963H14.2282H14.2602H14.2923H14.3245H14.3567H14.389H14.4214H14.4539H14.4864H14.519H14.5516H14.5844H14.6172H14.65H14.6829H14.7159H14.749H14.7821H14.8153H14.8485H14.8818H14.9152H14.9486H14.9821H15.0157H15.0493H15.0829H15.1167H15.1504H15.1843H15.2182H15.2521H15.2861H15.3202H15.3543H15.3884H15.4227H15.4569H15.4912H15.5256H15.56H15.5945H15.629H15.6635H15.6982H15.7328H15.7675H15.8022H15.837H15.8719H15.9067H15.9417H15.9766H16.0116H16.0467H16.0817H16.1169H16.152H16.1872H16.2225H16.2577H16.293H16.3284H16.3638H16.3992H16.4346H16.4701H16.5056H16.5412H16.5768H16.6124H16.648H16.6837H16.7194H16.7551H16.7909H16.8266H16.8624H16.8983H16.9341H16.97H17.0059H17.0419H17.0778H17.1138H17.1498H17.1858H17.2218H17.2579H17.294H17.3301H17.3662H17.4023H17.4384H17.4746H17.5108H17.547H17.5832H17.6194H17.6556H17.6919H17.7281H17.7644H17.8007H17.837H17.8732H17.9096H17.9459H17.9822H18.0185H18.0548H18.0912H18.1275H18.1638H18.2002H18.2365H18.2729H18.3092H18.3456H18.382H18.4183H18.4547H18.491H18.5274H18.5637H18.6H18.6364H18.6727H18.709H18.7454H18.7817H18.818H18.8543H18.8906H18.9269H18.9631H18.9994H19.0356H19.0719H19.1081H19.1443H19.1805H19.2167H19.2529H19.289H19.3252H19.3613H19.3974H19.4335H19.4696H19.5056H19.5416H19.5777H19.6136H19.6496H19.6856H19.7215H19.7574H19.7933H19.8291H19.8649H19.9007H19.9365H19.9722H20.008H20.0436H20.0793H20.1149H20.1505H20.1861H20.2216H20.2571H20.2926H20.3281H20.3635H20.3988H20.4342H20.4695H20.5047H20.5399H20.5751H20.6103H20.6454H20.6805H20.7155H20.7505H20.7854H20.8203H20.8552H20.89H20.9248H20.9595H20.9942H21.0288H21.0634H21.098H21.1325H21.1669H21.2013H21.2356H21.2699H21.3042H21.3384H21.3725H21.4066H21.4407H21.4746H21.5086H21.5424H21.5763H21.61H21.6437H21.6774H21.711H21.7445H21.7779H21.8114H21.8447H21.878H21.9112H21.9444H21.9775H22.0105H22.0435H22.0764H22.1092H22.142H22.1747H22.2073H22.2399H22.2724H22.3048H22.3372H22.3695H22.4017H22.4338H22.4659H22.4979H22.5298H22.5616H22.5934H22.6251H22.6567H22.6883H22.7197H22.7511H22.7824H22.8137H22.8448H22.8759H22.9069H22.9378H22.9686H22.9993H23.03H23.0605H23.091H23.1214H23.1517H23.182H23.2121H23.2421H23.2721H23.302H23.3317H23.3614H23.391H23.4205H23.4499H23.4793H23.5085H23.5376H23.5667H23.5956H23.6244H23.6532H23.6818H23.7104H23.7388H23.7672H23.7954H23.8236H23.8516H23.8796H23.9074H23.9351H23.9628H23.9903H24.0177H24.045H24.0715H24.0981H24.1248H24.1517H24.1788H24.2059H24.2333H24.2607H24.2883H24.3161H24.344H24.372H24.4002H24.4285H24.4569H24.4855H24.5142H24.543H24.572H24.6011H24.6304H24.6597H24.6892H24.7189H24.7486H24.7785H24.8086H24.8387H24.869H24.8994H24.9299H24.9605H24.9913H25.0222H25.0532H25.0843H25.1156H25.147H25.1785H25.2101H25.2418H25.2736H25.3056H25.3376H25.3698H25.4021H25.4345H25.467H25.4997H25.5324H25.5653H25.5982H25.6313H25.6644H25.6977H25.7311H25.7646H25.7982H25.8319H25.8656H25.8995H25.9335H25.9676H26.0018H26.0361H26.0705H26.105H26.1395H26.1742H26.209H26.2438H26.2788H26.3138H26.349H26.3842H26.4195H26.4549H26.4904H26.526H26.5616H26.5974H26.6332H26.6691H26.7051H26.7412H26.7774H26.8136H26.85H26.8864H26.9228H26.9594H26.996H27.0328H27.0695H27.1064H27.1433H27.1804H27.2174H27.2546H27.2918H27.3291H27.3665H27.4039H27.4414H27.479H27.5166H27.5543H27.5921H27.6299H27.6678H27.7057H27.7437H27.7818H27.8199H27.8581H27.8964H27.9347H27.9731H28.0115H28.0499H28.0885H28.1271H28.1657H28.2044H28.2431H28.2819H28.3208H28.3596H28.3986H28.4376H28.4766H28.5157H28.5548H28.5939H28.6332H28.6724H28.7117H28.751H28.7904H28.8298H28.8693H28.9088H28.9483H28.9879H29.0275H29.0671H29.1068H29.1465H29.1862H29.226H29.2658H29.3056H29.3454H29.3853H29.4252H29.4652H29.5051H29.5451H29.5852H29.6252H29.6653H29.7053H29.7455H29.7856H29.8257H29.8659H29.9061H29.9463H29.9865H30.0267H30.067H30.1073H30.1476H30.1878H30.2282H30.2685H30.3088H30.3491H30.3895H30.4298H30.4702H30.5106H30.551H30.5913H30.6317H30.6721H30.7125H30.7529H30.7933H30.8337H30.8741H30.9145H30.9549H30.9953H31.0357H31.0761H31.1164H31.1568H31.1972H31.2376H31.2779H31.3183H31.3586H31.3989H31.4392H31.4795H31.5198H31.5601H31.6004H31.6406H31.6808H31.7211H31.7612H31.8014H31.8416H31.8817H31.9219H31.962H32.002H32.0421H32.0821H32.1221H32.1621H32.2021H32.242H32.2819H32.3218H32.3616H32.4014H32.4412H32.481H32.5207H32.5604H32.6H32.6397H32.6792H32.7188H32.7583H32.7978H32.8372H32.8766H32.916H32.9553H32.9946H33.0338H33.073H33.1121H33.1512H33.1903H33.2293H33.2683H33.3072H33.3461H33.3849H33.4236H33.4624H33.501H33.5396H33.5782H33.6167H33.6552H33.6936H33.7319H33.7702H33.8084H33.8466H33.8847H33.9228H33.9607H33.9987H34.0365H34.0743H34.1121H34.1497H34.1873H34.2249H34.2624H34.2998H34.3371H34.3744H34.4116H34.4487H34.4857H34.5227H34.5596H34.5965H34.6332H34.6699H34.7065H34.7431H34.7795H34.8159H34.8522H34.8884H34.9245H34.9606H34.9965H35.0324H35.0682H35.1039H35.1396H35.1751H35.2106H35.2459H35.2812H35.3164H35.3515H35.3865H35.4214H35.4563H35.491H35.5256H35.5602H35.5946H35.6289H35.6632H35.6973H35.7314H35.7654H35.7992H35.833H35.8666H35.9002H35.9336H35.9669H36.0002H36.0333H36.0663H36.0992H36.132H36.1647H36.1973H36.2298H36.2621H36.2944H36.3265H36.3586H36.3905H36.4223H36.4539H36.4855H36.5169H36.5483H36.5795H36.6106H36.6415H36.6724H36.7031H36.7337H36.7642H36.7945H36.8247H36.8548H36.8848H36.9146H36.9444H36.9739H37.0034H37.0327H37.0619H37.091H37.1199H37.1487H37.1773H37.2059H37.2343H37.2625H37.2906H37.3186H37.3464H37.3741H37.4017H37.4291H37.4563H37.4835H37.5104H37.5373H37.564H37.5905H37.6169H37.6431H37.6692H37.6952H37.721H37.7466H37.7721H37.7975H37.8227H37.8477H37.8726H37.8973H37.9219H37.9463H37.9705H37.9946H38.0185H38.0423H38.0659H38.0894H38.1127H38.1358H38.1587H38.1815H38.2042H38.2266H38.2489H38.271H38.293H38.3148H38.3364H38.3578H38.3791H38.4002H38.4211H38.4419H38.4625H38.4829H38.5031H38.5231H38.543H38.5627H38.5822H38.6015H38.6207H38.6396H38.6584H38.677H38.6954H38.7136H38.7317H38.7495H38.7672H38.7847H38.802H38.8191H38.836H38.8527H38.8692H38.8855H38.9017H38.9176H38.9334H38.9489H38.9643H38.9794H38.9944H39.0091H39.0237H39.038H39.0522H39.0661H39.0799H39.0934H39.1068H39.1199H39.1328H39.1455H39.158H39.1704H39.1824H39.1943H39.206H39.2175H39.2287H39.2397H39.2506H39.2612H39.2715H39.2817H39.2917H39.3014H39.3109H39.3202H39.3293H39.3382H39.3468H39.3552H39.3634H39.3714H39.3791H39.3866H39.3939H39.401H39.4078H39.4144H39.4208H39.4269H39.4328H39.4385H39.4439H39.4492H39.4541H39.4589H39.4634H39.4676H39.4717H39.4755H39.479H39.4823H39.4854H39.4882H39.4908H39.4932H39.4953H39.4971H39.4988H39.5001H39.5012H39.5021H39.5027H39.5031C39.5032 6.65417 39.5032 6.65417 39.5032 6.15417V6.65417C40.5906 6.65417 41.5001 7.56985 41.5001 8.73133V32.5896C41.5001 33.7511 40.5906 34.6667 39.5032 34.6667H20.0727Z" stroke="#323232"/>
<path d="M23.209 4.69001V2C23.209 1.44772 22.7613 1 22.209 1H2C1.44771 1 1 1.44772 1 2V41.0001C1 41.5524 1.44772 42.0001 2 42.0001H22.209C22.7613 42.0001 23.209 41.5524 23.209 41.0001V35.2537" stroke="#2A82F2" stroke-linejoin="round"/>
<path d="M23.209 4.69001V2C23.209 1.44772 22.7613 1 22.209 1H2C1.44771 1 1 1.44772 1 2V41.0001C1 41.5524 1.44772 42.0001 2 42.0001H22.209C22.7613 42.0001 23.209 41.5524 23.209 41.0001V35.2537" stroke="#323232" stroke-linejoin="round"/>
<path d="M17.468 15.9474C16.1146 13.2303 19.0149 10.2617 21.9264 11.5849C24.1313 12.587 26.6785 12.587 28.8835 11.5849C31.7949 10.2617 34.6952 13.2303 33.3419 15.9474L31.271 20.1051C30.8828 20.8844 30.7229 21.7537 30.8098 22.617L30.8787 23.3004C31.0489 24.9906 30.7221 26.6936 29.9354 28.2117L29.2961 29.4454C29.0336 29.952 28.2652 29.8733 28.1046 29.3453L26.9778 25.6413C26.5115 24.1086 24.2983 24.1086 23.832 25.6413L22.7053 29.3453C22.5446 29.8733 21.7763 29.952 21.5138 29.4454L20.8744 28.2117C20.0877 26.6936 19.761 24.9906 19.9312 23.3004L20 22.617C20.0869 21.7537 19.927 20.8844 19.5389 20.1051L17.468 15.9474Z" stroke="#2A82F2"/>
</svg>
