<svg width="42" height="42" viewBox="0 0 42 42" fill="none" xmlns="http://www.w3.org/2000/svg">
<path d="M10.8725 1.38929L8.67551 6.15163L13.9609 7.38827" stroke="#2A82F2" stroke-linecap="round" stroke-linejoin="round"/>
<path d="M26.1778 21.726C26.1778 24.4086 23.8979 26.6205 21.0399 26.6205C18.1802 26.6205 15.9004 24.4086 15.9004 21.726C15.9004 19.0435 18.1802 16.8315 21.0399 16.8315C23.8979 16.8315 26.1778 19.0434 26.1778 21.726Z" stroke="#323232"/>
<path d="M9.85478 18.6628L9.61653 19.0938L9.85477 18.6628L9.78457 18.624C9.53641 18.4868 9.45185 18.171 9.59828 17.9282L11.9024 14.1078C12.0412 13.8776 12.3371 13.7984 12.5724 13.9284L13.0082 14.1692C15.3409 15.4585 18.2012 13.7713 18.2012 11.106V10.8582C18.2012 10.582 18.4251 10.3582 18.7012 10.3582H23.3766C23.6528 10.3582 23.8766 10.582 23.8766 10.8582V11.106C23.8766 13.7713 26.737 15.4585 29.0697 14.1692L29.5054 13.9284C29.7407 13.7984 30.0366 13.8776 30.1755 14.1078L32.4795 17.9282C32.626 18.171 32.5414 18.4868 32.2932 18.624L32.2231 18.6628C29.8138 19.9943 29.8138 23.4577 32.223 24.7893L32.2932 24.8281C32.5414 24.9652 32.626 25.2811 32.4795 25.5239L30.1755 29.3443C30.0366 29.5745 29.7407 29.6537 29.5054 29.5237L29.0697 29.2829C26.737 27.9936 23.8766 29.6808 23.8766 32.3461V32.5939C23.8766 32.87 23.6528 33.0939 23.3766 33.0939H18.7012C18.4251 33.0939 18.2012 32.87 18.2012 32.5939V32.3461C18.2012 29.6808 15.3409 27.9935 13.0082 29.2828L12.5724 29.5237C12.3371 29.6537 12.0412 29.5745 11.9024 29.3443L9.59829 25.5239C9.45185 25.2811 9.53641 24.9652 9.78458 24.8281L9.85475 24.7893C12.264 23.4577 12.264 19.9944 9.85478 18.6628Z" stroke="#323232"/>
<path d="M10.713 5.29986C14.4169 3.271 18.705 2.40989 22.9587 2.84079C27.2123 3.27168 31.2116 4.9723 34.3795 7.69727C37.5474 10.4222 39.72 14.0307 40.584 18.0019C41.448 21.9732 40.9586 26.1019 39.1865 29.7925C37.4143 33.483 34.4511 36.5445 30.7242 38.5352C26.9974 40.526 22.6997 41.3431 18.4512 40.8685C14.2027 40.394 10.223 38.6525 7.08648 35.8952C3.9499 33.1379 1.81858 29.5074 1 25.5275" stroke="#2A82F2" stroke-linecap="round" stroke-linejoin="round"/>
</svg>
