<svg width="45" height="46" viewBox="0 0 45 46" fill="none" xmlns="http://www.w3.org/2000/svg">
<g clip-path="url(#clip0_2616_7529)">
<mask id="path-1-inside-1_2616_7529" fill="white">
<path fill-rule="evenodd" clip-rule="evenodd" d="M22.5 44.2C34.2084 44.2 43.7 34.7084 43.7 23C43.7 11.2916 34.2084 1.8 22.5 1.8C10.7916 1.8 1.3 11.2916 1.3 23C1.3 34.7084 10.7916 44.2 22.5 44.2ZM22.5 45.5C34.9264 45.5 45 35.4264 45 23C45 10.5736 34.9264 0.5 22.5 0.5C10.0736 0.5 0 10.5736 0 23C0 35.4264 10.0736 45.5 22.5 45.5Z"/>
</mask>
<path fill-rule="evenodd" clip-rule="evenodd" d="M22.5 44.2C34.2084 44.2 43.7 34.7084 43.7 23C43.7 11.2916 34.2084 1.8 22.5 1.8C10.7916 1.8 1.3 11.2916 1.3 23C1.3 34.7084 10.7916 44.2 22.5 44.2ZM22.5 45.5C34.9264 45.5 45 35.4264 45 23C45 10.5736 34.9264 0.5 22.5 0.5C10.0736 0.5 0 10.5736 0 23C0 35.4264 10.0736 45.5 22.5 45.5Z" fill="#1476F2"/>
<path d="M42.4 23C42.4 33.9905 33.4905 42.9 22.5 42.9V45.5C34.9264 45.5 45 35.4264 45 23H42.4ZM22.5 3.1C33.4905 3.1 42.4 12.0095 42.4 23H45C45 10.5736 34.9264 0.5 22.5 0.5V3.1ZM2.6 23C2.6 12.0095 11.5095 3.1 22.5 3.1V0.5C10.0736 0.5 0 10.5736 0 23H2.6ZM22.5 42.9C11.5095 42.9 2.6 33.9905 2.6 23H0C0 35.4264 10.0736 45.5 22.5 45.5V42.9ZM43.7 23C43.7 34.7084 34.2084 44.2 22.5 44.2V46.8C35.6444 46.8 46.3 36.1444 46.3 23H43.7ZM22.5 1.8C34.2084 1.8 43.7 11.2916 43.7 23H46.3C46.3 9.85562 35.6444 -0.8 22.5 -0.8V1.8ZM1.3 23C1.3 11.2916 10.7916 1.8 22.5 1.8V-0.8C9.35562 -0.8 -1.3 9.85562 -1.3 23H1.3ZM22.5 44.2C10.7916 44.2 1.3 34.7084 1.3 23H-1.3C-1.3 36.1444 9.35562 46.8 22.5 46.8V44.2Z" fill="#1476F2" mask="url(#path-1-inside-1_2616_7529)"/>
<path fill-rule="evenodd" clip-rule="evenodd" d="M15.2538 32.0992C15.2538 31.685 15.5896 31.3492 16.0038 31.3492H23.503C23.9172 31.3492 24.253 31.685 24.253 32.0992C24.253 32.5135 23.9172 32.8492 23.503 32.8492H16.0038C15.5896 32.8492 15.2538 32.5135 15.2538 32.0992Z" fill="#1476F2" stroke="#1476F2" stroke-width="0.3"/>
<path fill-rule="evenodd" clip-rule="evenodd" d="M16.0039 29.5162C14.5774 29.5162 13.421 30.6727 13.421 32.0992C13.421 33.5257 14.5774 34.6822 16.0039 34.6822H29.3358C30.7623 34.6822 31.9188 33.5257 31.9188 32.0992C31.9188 30.6727 30.7623 29.5162 29.3358 29.5162H16.0039ZM11.921 32.0992C11.921 29.8442 13.749 28.0162 16.0039 28.0162H29.3358C31.5908 28.0162 33.4188 29.8442 33.4188 32.0992C33.4188 34.3542 31.5908 36.1822 29.3358 36.1822H16.0039C13.749 36.1822 11.921 34.3542 11.921 32.0992Z" fill="#1476F2" stroke="#1476F2" stroke-width="0.3"/>
<path fill-rule="evenodd" clip-rule="evenodd" d="M26.3876 15.4984C25.2483 11.795 21.6264 9.31951 17.6627 9.72566C13.2927 10.1734 10.04 13.9669 10.2642 18.354C10.4883 22.7411 14.1108 26.1832 18.5037 26.1833H29.3355C29.3354 26.1833 29.3356 26.1833 29.3355 26.1833C31.9154 26.1842 34.1803 24.4664 34.8749 21.9818C35.5696 19.4971 34.524 16.8539 32.3175 15.5167C30.4694 14.3968 28.1859 14.4229 26.3876 15.4984ZM25.175 16.9031C24.6266 13.351 21.3911 10.8515 17.8156 11.2178C14.2402 11.5842 11.5788 14.6879 11.7622 18.2774C11.9456 21.867 14.9095 24.6832 18.5037 24.6833H29.3358C31.2427 24.684 32.9169 23.4144 33.4303 21.5779C33.9437 19.7415 33.1709 17.7878 31.5401 16.7996C29.9093 15.8113 27.8198 16.0304 26.4295 17.3355C26.2266 17.526 25.9349 17.5884 25.6718 17.4977C25.4087 17.407 25.2174 17.1781 25.175 16.9031Z" fill="#1476F2"/>
<path d="M29.3355 26.1833H18.5037C14.1108 26.1832 10.4883 22.7411 10.2642 18.354C10.04 13.9669 13.2927 10.1734 17.6627 9.72566C21.6264 9.31951 25.2483 11.795 26.3876 15.4984C28.1859 14.4229 30.4694 14.3968 32.3175 15.5167C34.524 16.8539 35.5696 19.4971 34.8749 21.9818C34.1803 24.4664 31.9154 26.1842 29.3355 26.1833ZM29.3355 26.1833C29.3356 26.1833 29.3354 26.1833 29.3355 26.1833ZM17.8156 11.2178C21.3911 10.8515 24.6266 13.351 25.175 16.9031C25.2174 17.1781 25.4087 17.407 25.6718 17.4977C25.9349 17.5884 26.2266 17.526 26.4295 17.3355C27.8198 16.0304 29.9093 15.8113 31.5401 16.7996C33.1709 17.7878 33.9437 19.7415 33.4303 21.5779C32.9169 23.4144 31.2427 24.684 29.3358 24.6833H18.5037C14.9095 24.6832 11.9456 21.867 11.7622 18.2774C11.5788 14.6879 14.2402 11.5842 17.8156 11.2178Z" stroke="#1476F2" stroke-width="0.3"/>
</g>
<defs>
<clipPath id="clip0_2616_7529">
<rect width="45" height="45" fill="white" transform="translate(0 0.5)"/>
</clipPath>
</defs>
</svg>
