<svg width="45" height="46" viewBox="0 0 45 46" fill="none" xmlns="http://www.w3.org/2000/svg">
<g clip-path="url(#clip0_2616_7536)">
<path fill-rule="evenodd" clip-rule="evenodd" d="M20.5148 25.6487C17.9296 25.6487 15.8268 23.5496 15.8268 20.9701C15.8268 18.3901 17.9296 16.2905 20.5148 16.2905C23.0999 16.2905 25.2027 18.3901 25.2027 20.9701C25.2027 23.5496 23.0999 25.6487 20.5148 25.6487ZM20.5148 15.353C17.413 15.353 14.8893 17.8726 14.8893 20.9701C14.8893 24.0666 17.413 26.5862 20.5148 26.5862C23.6165 26.5862 26.1402 24.0666 26.1402 20.9701C26.1402 17.8726 23.6165 15.353 20.5148 15.353Z" fill="#1476F2" stroke="#1476F2" stroke-width="0.3"/>
<path fill-rule="evenodd" clip-rule="evenodd" d="M26.8603 24.9364L26.0592 25.1877L25.9697 25.302C25.628 25.738 25.2352 26.1313 24.8025 26.4711L24.6881 26.5611L24.4369 27.3617L24.7603 28.333L24.6478 28.5791L22.9458 29.2836L22.7189 29.1987L22.3027 28.4094L22.2023 28.257L21.4917 27.8848L21.3464 27.9022C20.8013 27.9688 20.2425 27.9683 19.6955 27.9008L19.5502 27.8834L18.8058 28.273L18.3478 29.1889L18.0947 29.2836L16.3927 28.5791L16.2806 28.333L16.6041 27.3617L16.3533 26.5592L16.2384 26.4697C15.802 26.1275 15.4088 25.7352 15.0698 25.3025L14.9798 25.1886L14.1792 24.9369L13.2075 25.2598L12.9623 25.1483L12.2573 23.4458L12.3516 23.1931L13.267 22.7356L13.6552 21.9908L13.6383 21.8469C13.5727 21.2998 13.5731 20.7444 13.6402 20.195L13.6575 20.0502L13.268 19.3063L12.3516 18.8478L12.2573 18.5952L12.9623 16.8927L13.2075 16.7811L14.1802 17.1045L14.9812 16.8542L15.0717 16.7389C15.4134 16.3025 15.8058 15.9092 16.2384 15.5703L16.3533 15.4798L16.6036 14.6787L16.2806 13.708L16.3927 13.4619L18.0947 12.7573L18.3478 12.852L18.7378 13.6316L18.8306 13.7802L19.5487 14.1561L19.6936 14.1388C20.2392 14.0722 20.7975 14.0727 21.3459 14.1402L21.4908 14.1575L22.2342 13.7689L22.6931 12.8516L22.9462 12.7573L24.6478 13.4619L24.7603 13.708L24.4364 14.6806L24.6867 15.4812L24.802 15.5713C25.2375 15.9125 25.6308 16.3053 25.9716 16.7384L26.0611 16.8528L26.8617 17.1041L27.833 16.7811L28.0791 16.8927L28.7841 18.5947L28.6894 18.8478L27.7734 19.3058L27.3848 20.0497L27.4022 20.1945C27.4683 20.7411 27.4678 21.2961 27.4008 21.8455L27.3834 21.9898L27.772 22.7347L28.6894 23.1936L28.7841 23.4462L28.0786 25.1483L27.833 25.2598L26.8603 24.9364ZM28.8038 25.8477L29.7909 23.4636L29.4384 22.52L28.463 22.032L28.3481 21.8122C28.402 21.2853 28.4025 20.7537 28.3495 20.2288L28.4644 20.0084L29.4384 19.5209L29.7909 18.5773L28.8038 16.1933L27.8869 15.7747L26.8533 16.1188L26.6161 16.0442C26.2828 15.6355 25.9064 15.26 25.4958 14.9258L25.4217 14.6895L25.7663 13.6541L25.3467 12.7372L22.9636 11.75L22.0205 12.1025L21.5316 13.078L21.3122 13.1928C20.7853 13.1389 20.2533 13.1384 19.7283 13.1914L19.5084 13.0766L19.0209 12.1025L18.0764 11.75L15.6933 12.7372L15.2742 13.6541L15.6188 14.6881L15.5442 14.9248C15.1359 15.2581 14.7609 15.6341 14.4258 16.0452L14.1891 16.1192L13.1536 15.7747L12.2372 16.1933L11.25 18.5769L11.6016 19.5205L12.5775 20.0094L12.6928 20.2292C12.6389 20.7556 12.6384 21.2872 12.6909 21.8127L12.5761 22.033L11.6016 22.5205L11.25 23.4641L12.2372 25.8477L13.1536 26.2663L14.1877 25.9222L14.4239 25.9962C14.7577 26.405 15.1336 26.7805 15.5447 27.1152L15.6192 27.3519L15.2742 28.3864L15.6933 29.3038L18.0764 30.2909L19.0205 29.9389L19.5089 28.9634L19.7288 28.8481C20.2552 28.9025 20.7881 28.903 21.3122 28.8495L21.532 28.9644L22.02 29.9389L22.9636 30.2909L25.3467 29.3038L25.7663 28.3869L25.4222 27.3533L25.4967 27.1161C25.905 26.7823 26.2805 26.4069 26.6156 25.9958L26.8519 25.9217L27.8869 26.2663L28.8038 25.8477ZM31.1047 25.7659L31.2059 25.554L31.8931 25.3102L32.105 25.411L32.3497 26.1024L32.929 26.4793L33.4414 25.6951L33.1268 25.4898L32.8582 24.7313L31.9451 24.2968L30.5267 24.8002L30.0912 25.7134L30.3603 26.4713L30.2895 26.6907C30.1423 26.8088 30.0022 26.9349 29.8709 27.0685L29.6459 27.1159L28.9189 26.7699L27.9659 27.1074L27.3186 28.4677L27.657 29.4207L28.3831 29.7666L28.4881 29.972C28.4675 30.1595 28.4576 30.3479 28.4581 30.5349L28.3329 30.728L27.5745 30.9966L27.14 31.9093L27.6434 33.3287L28.5565 33.7637L29.315 33.4946L29.5334 33.5654C29.6829 33.7515 29.8465 33.9273 30.0214 34.089L30.6589 33.4013C30.4878 33.2424 30.3298 33.0676 30.1892 32.8815L30.0997 32.7629L29.3004 32.5051L28.609 32.7498L28.3972 32.6495L28.1534 31.9623L28.2542 31.7504L28.9456 31.5052L29.4045 30.8002L29.3984 30.6516C29.39 30.4215 29.4022 30.1866 29.4354 29.9527L29.4565 29.8051L29.0726 29.0565L28.4103 28.7415L28.332 28.5198L28.6451 27.8616L28.8668 27.7834L29.5297 28.0993L30.3528 27.9245L30.4531 27.8157C30.6111 27.6455 30.7859 27.4876 30.9739 27.3455L31.092 27.257L31.3498 26.4573L31.1047 25.7659Z" fill="#1476F2" stroke="#1476F2" stroke-width="0.3"/>
<path fill-rule="evenodd" clip-rule="evenodd" d="M33.6398 29.3992V28.4617C32.3474 28.4617 31.296 29.5131 31.296 30.8054C31.296 32.0978 32.3474 33.1492 33.6398 33.1492V32.2117C32.8645 32.2117 32.2335 31.5807 32.2335 30.8054C32.2335 30.0301 32.8645 29.3992 33.6398 29.3992Z" fill="#1476F2" stroke="#1476F2" stroke-width="0.3"/>
</g>
<rect x="0.65" y="1.15" width="43.7" height="43.7" rx="21.85" stroke="#1476F2" stroke-width="1.3"/>
<defs>
<clipPath id="clip0_2616_7536">
<rect width="22.5" height="22.5" fill="white" transform="translate(11.25 11.75)"/>
</clipPath>
</defs>
</svg>
