<svg width="45" height="46" viewBox="0 0 45 46" fill="none" xmlns="http://www.w3.org/2000/svg">
<g clip-path="url(#clip0_2616_7492)">
<path fill-rule="evenodd" clip-rule="evenodd" d="M32.8125 31.5312V31.0625H25.0378L24.7064 31.3939C24.6188 31.482 24.4992 31.5312 24.375 31.5312H20.625C20.5008 31.5312 20.3812 31.482 20.2936 31.3939L19.9622 31.0625H12.1875V31.5312C12.1875 32.0483 12.608 32.4687 13.125 32.4687H31.875C32.392 32.4687 32.8125 32.0483 32.8125 31.5312ZM33.2812 30.125C33.54 30.125 33.75 30.3345 33.75 30.5937V31.5312C33.75 32.5653 32.9091 33.4062 31.875 33.4062H13.125C12.0909 33.4062 11.25 32.5653 11.25 31.5312V30.5937C11.25 30.3345 11.46 30.125 11.7188 30.125H12.6562V29.1875H13.5938V30.125H20.1562C20.2805 30.125 20.4 30.1742 20.4877 30.2623L20.8191 30.5937H24.1809L24.5123 30.2623C24.6 30.1742 24.7195 30.125 24.8438 30.125H31.4062V18.875C31.4062 18.6163 31.1958 18.4062 30.9375 18.4062H21.5625V17.4688H30.9375C31.7128 17.4688 32.3438 18.0997 32.3438 18.875V30.125H33.2812Z" fill="#1476F2" stroke="#1476F2" stroke-width="0.3"/>
<path fill-rule="evenodd" clip-rule="evenodd" d="M12.6562 13.25H19.6875C19.9458 13.25 20.1562 13.46 20.1562 13.7188V14.6562H12.1875V13.7188C12.1875 13.46 12.398 13.25 12.6562 13.25ZM20.1562 25.9062V27.3125C20.1562 27.5712 19.9458 27.7812 19.6875 27.7812H12.6562C12.398 27.7812 12.1875 27.5712 12.1875 27.3125V25.9062H20.1562ZM12.6562 28.7188H19.6875C20.4628 28.7188 21.0938 28.0878 21.0938 27.3125V23.5625H20.1562V24.9688H12.1875V15.5938H20.1562V20.75H21.0938V13.7188C21.0938 12.9434 20.4628 12.3125 19.6875 12.3125H12.6562C11.8809 12.3125 11.25 12.9434 11.25 13.7188V27.3125C11.25 28.0878 11.8809 28.7188 12.6562 28.7188Z" fill="#1476F2" stroke="#1476F2" stroke-width="0.3"/>
<path fill-rule="evenodd" clip-rule="evenodd" d="M15.4688 27.3127H16.875V26.375H15.4688V27.3127Z" fill="#1476F2" stroke="#1476F2" stroke-width="0.3"/>
<path fill-rule="evenodd" clip-rule="evenodd" d="M18.144 21.0813L17.4814 20.4187L15.7432 22.1563L17.4814 23.8938L18.144 23.2312L17.5376 22.6248H23.7122L23.1064 23.2312L23.769 23.8938L25.5065 22.1563L23.769 20.4187L23.1064 21.0813L23.7122 21.6877H17.5376L18.144 21.0813Z" fill="#1476F2" stroke="#1476F2" stroke-width="0.3"/>
</g>
<rect x="0.65" y="1.15" width="43.7" height="43.7" rx="21.85" stroke="#1476F2" stroke-width="1.3"/>
<defs>
<clipPath id="clip0_2616_7492">
<rect width="22.5" height="22.5" fill="white" transform="translate(11.25 11.75)"/>
</clipPath>
</defs>
</svg>
