
<svg width="45" height="46" viewBox="0 0 45 46" fill="none" xmlns="http://www.w3.org/2000/svg">
  <rect x="0.65" y="1.15" width="43.7" height="43.7" rx="21.85" stroke="#1476F2" stroke-width="1.3"/>
  <path fill-rule="evenodd" clip-rule="evenodd" d="M21.5625 34.1714C21.3113 34.1714 21.0605 34.1321 20.8214 34.0524L12.8522 31.396C11.8941 31.0763 11.25 30.1828 11.25 29.1722V28.5938C11.25 27.5836 11.8941 26.6902 12.8522 26.3705L18.6019 24.4542L18.8981 25.3435L13.1489 27.2597C12.5737 27.4514 12.1875 27.9877 12.1875 28.5938V29.1722C12.1875 29.7783 12.5737 30.3146 13.1489 30.5063L21.1177 33.1627C21.4041 33.2583 21.72 33.2583 22.0073 33.1627L31.3819 30.0375C31.9575 29.8458 32.3438 29.31 32.3438 28.7035V28.125C32.3438 27.5189 31.9575 26.9827 31.3819 26.791L25.635 24.8752L25.9313 23.986L31.6786 25.9017C32.6372 26.2214 33.2812 27.1149 33.2812 28.125V28.7035C33.2812 29.7141 32.6372 30.6075 31.6786 30.9272L22.3041 34.0524C22.0645 34.1321 21.8138 34.1714 21.5625 34.1714ZM21.5625 30.9925C21.5123 30.9925 21.4627 30.9845 21.4144 30.9686L14.3831 28.6249C14.1914 28.5611 14.0625 28.382 14.0625 28.18C14.0625 27.978 14.1914 27.7994 14.3831 27.7352L20.0081 25.8602L20.3044 26.7499L16.0134 28.18L21.5625 30.0297L28.5178 27.7113L24.2264 26.2811L24.5227 25.3914L30.1481 27.2664C30.3398 27.3306 30.4688 27.5092 30.4688 27.7113C30.4688 27.9133 30.3398 28.0924 30.1481 28.1561L21.7106 30.9686C21.6623 30.9845 21.6127 30.9925 21.5625 30.9925Z" fill="#1476F2" stroke="#1476F2" stroke-width="0.3"/>
  <path fill-rule="evenodd" clip-rule="evenodd" d="M22.0312 12.6875C19.4653 12.6875 17.3775 14.7753 17.3775 17.3412C17.376 18.5717 17.579 19.3123 18.1818 20.277C18.7279 21.1503 21.0923 24.6022 22.0312 25.97C22.9701 24.6022 25.3349 21.1503 25.8806 20.277C26.4839 19.3123 26.6868 18.5717 26.6849 17.3417C26.6849 14.7753 24.5976 12.6875 22.0312 12.6875ZM22.0312 27.6242L21.645 27.0631C21.4996 26.8522 18.0796 21.882 17.3868 20.7739C16.5928 19.5036 16.4385 18.553 16.44 17.3403C16.44 14.2583 18.9482 11.75 22.0312 11.75C25.1142 11.75 27.6224 14.2583 27.6224 17.3412C27.6243 18.553 27.4701 19.5041 26.6751 20.7739C25.9832 21.882 22.5628 26.8522 22.4174 27.0631L22.0312 27.6242ZM22.0342 15.9926C22.8334 15.9926 23.4367 16.5963 23.4376 17.3969C23.4381 17.7869 23.2965 18.1441 23.0382 18.4024C22.779 18.6621 22.4246 18.8051 22.0398 18.8051H22.0229C21.6381 18.8051 21.2832 18.6621 21.024 18.4024C20.7662 18.1441 20.6242 17.7869 20.6251 17.3969C20.626 16.5963 21.2293 15.9926 22.0342 15.9926ZM22.0398 19.7426C22.6754 19.7426 23.2651 19.5016 23.702 19.0647C24.137 18.6288 24.376 18.0358 24.3751 17.3955C24.3732 16.083 23.3448 15.0551 22.0281 15.0551C20.7174 15.0551 19.6895 16.083 19.6876 17.3955C19.6867 18.0363 19.9257 18.6293 20.3607 19.0647C20.7971 19.5021 21.3873 19.7426 22.0313 19.7426H22.0398Z" fill="#1476F2" stroke="#1476F2" stroke-width="0.3"/>
</svg>
