<svg xmlns="http://www.w3.org/2000/svg" width="45" height="46" viewBox="0 0 45 46" fill="none">
  <g clip-path="url(#clip0_35_1336)">
    <circle cx="22.5" cy="23" r="21.85" fill="white" stroke="#1476F2" stroke-width="1.3"/>
    <path d="M31.7654 16.2708H27.642V13.9029C27.642 11.136 25.3362 8.8875 22.5039 8.8875C19.6716 8.8875 17.3659 11.136 17.3659 13.9029V16.2708H13.2424C12.8953 16.2708 12.6062 16.5516 12.6062 16.8928V31.9487C12.6062 34.3188 14.5836 36.2471 17.0096 36.2471H27.9902C30.4159 36.2471 32.3936 34.3192 32.3936 31.9487V16.8934C32.4019 16.5431 32.1111 16.2708 31.7654 16.2708C31.7654 16.2708 31.7654 16.2708 31.7654 16.2708ZM18.6389 13.9032C18.6389 11.8269 20.3738 10.1321 22.5044 10.1321C24.635 10.1321 26.3698 11.8269 26.3698 13.9032V16.2711L18.6389 16.2707V13.9032ZM13.8869 17.5148H17.3741V19.0968C17.3741 19.4385 17.6636 19.7188 18.0103 19.7188C18.3573 19.7188 18.6464 19.4381 18.6464 19.0968V17.5148H26.3777V19.0968C26.3777 19.4385 26.6672 19.7188 27.0138 19.7188C27.3609 19.7188 27.65 19.4381 27.65 19.0968V17.5148H31.1373V30.3959H13.8872L13.8869 17.5148ZM31.1296 31.9489C31.1296 33.6361 29.723 35.0033 27.9985 35.0033H17.0179C15.2861 35.0033 13.8869 33.6289 13.8869 31.9489V31.6404H31.1296V31.9489Z" fill="#1476F2" stroke="#1476F2" stroke-width="0.1"/>
  </g>
  <defs>
    <clipPath id="clip0_35_1336">
      <rect width="45" height="45" fill="white" transform="translate(0 0.5)"/>
    </clipPath>
  </defs>
</svg>