<svg width="32" height="32" viewBox="0 0 32 32" fill="none" xmlns="http://www.w3.org/2000/svg">
<path d="M21.9793 9.3269C21.1401 8.48512 20.0282 8.014 18.8483 8.00031C18.0167 7.99059 17.2037 8.209 16.4942 8.63181C16.1893 8.8134 15.8107 8.8134 15.5059 8.63181C14.7963 8.209 13.9828 7.99112 13.1517 8.00028C11.9718 8.014 10.8599 8.48512 10.0207 9.32687C9.18156 10.1686 8.71381 11.282 8.70366 12.462C8.69513 13.4524 9.00225 14.3946 9.59184 15.1866C10.1863 15.9852 10.5919 16.9488 10.7649 17.9734C11.0274 19.5288 11.4004 20.9564 11.8152 21.9933C12.3553 23.3436 12.938 24 13.5963 24C13.8427 24 14.0718 23.9002 14.2591 23.7115C14.8953 23.0702 15.1434 21.3814 15.1154 17.8826C15.1096 17.1602 15.4319 16.4856 16 16.0304C16.568 16.4854 16.8903 17.16 16.8846 17.8826C16.8566 21.3814 17.1047 23.0702 17.7409 23.7115C17.9282 23.9002 18.1573 24 18.4037 24C19.062 24 19.6447 23.3436 20.1848 21.9933C20.5995 20.9564 20.9725 19.5288 21.2351 17.9735C21.408 16.9489 21.8137 15.9852 22.4081 15.1867C22.9977 14.3946 23.3048 13.4524 23.2963 12.462C23.2862 11.2821 22.8184 10.1687 21.9793 9.3269ZM21.8968 14.806C21.2424 15.6851 20.7962 16.7437 20.6066 17.8673C20.0041 21.4366 19.0219 23.3626 18.4037 23.3626C18.352 23.3626 18.2814 23.3512 18.1935 23.2626C17.4847 22.5481 17.5118 19.1622 17.522 17.8877C17.5294 16.9651 17.117 16.1046 16.391 15.5269L16.3803 15.5183C16.2683 15.4286 16.1342 15.3838 16 15.3838C15.8658 15.3838 15.7317 15.4287 15.6197 15.5184L15.6093 15.5267C14.883 16.1046 14.4706 16.9651 14.478 17.8877C14.4882 19.1623 14.5152 22.5482 13.8065 23.2626C13.7186 23.3512 13.648 23.3626 13.5963 23.3626C12.9781 23.3626 11.996 21.4367 11.3934 17.8674C11.2037 16.7437 10.7576 15.6852 10.1032 14.8061C9.59731 14.1264 9.33378 13.3178 9.34109 12.4675C9.35909 10.38 11.0719 8.66203 13.1591 8.63781C13.872 8.62965 14.5708 8.81684 15.1795 9.17953C15.6856 9.48103 16.3143 9.48106 16.8204 9.17953C17.4291 8.81684 18.1282 8.62906 18.8409 8.63781C20.9282 8.66203 22.6409 10.3801 22.6589 12.4676C22.6662 13.3177 22.4027 14.1264 21.8968 14.806Z" fill="#1476F2" stroke="#1476F2" stroke-width="0.4"/>
<path d="M12.1093 9.58217C12.0301 9.42492 11.8384 9.36167 11.6813 9.44092C10.545 10.0134 9.83237 11.1544 9.82153 12.4189C9.82003 12.5949 9.96147 12.7388 10.1375 12.7403C10.1385 12.7403 10.1394 12.7403 10.1403 12.7403C10.3151 12.7403 10.4575 12.5994 10.459 12.4244C10.4678 11.3998 11.0461 10.4747 11.9681 10.0102C12.1253 9.93101 12.1885 9.73936 12.1093 9.58217Z" fill="#1476F2"/>
<path d="M13.1463 9.08388C13.0457 9.08506 12.9441 9.09081 12.8442 9.101C12.6691 9.11885 12.5416 9.27528 12.5594 9.45038C12.5761 9.61453 12.7146 9.73681 12.8761 9.73681C12.8869 9.73681 12.8978 9.73628 12.9088 9.73516C12.9897 9.72691 13.0721 9.72225 13.1537 9.72128C13.3297 9.71925 13.4707 9.57485 13.4687 9.39885C13.4667 9.22285 13.3226 9.08225 13.1463 9.08388Z" fill="#1476F2"/>
<rect x="0.65" y="0.65" width="30.7" height="30.7" rx="15.35" stroke="#1476F2" stroke-width="1.3"/>
</svg>
