<svg width="64" height="64" viewBox="0 0 64 64" fill="none" xmlns="http://www.w3.org/2000/svg">
<path fill-rule="evenodd" clip-rule="evenodd" d="M32 62.1511C48.652 62.1511 62.1511 48.652 62.1511 32C62.1511 15.348 48.652 1.84889 32 1.84889C15.348 1.84889 1.84889 15.348 1.84889 32C1.84889 48.652 15.348 62.1511 32 62.1511ZM32 64C49.6731 64 64 49.6731 64 32C64 14.3269 49.6731 0 32 0C14.3269 0 0 14.3269 0 32C0 49.6731 14.3269 64 32 64Z" fill="#1476F2"/>
<path d="M22.8465 51.1208C25.6295 52.4606 28.7864 53.166 32 53.166C35.2136 53.166 38.3705 52.4606 41.1535 51.1208L39.8186 48.6478C39.5027 48.1914 38.8046 48.039 38.2329 48.2636C36.4058 48.9815 34.0292 49.3563 32 49.3563C29.9708 49.3563 27.5942 48.9815 25.7671 48.2636C25.1954 48.039 24.4973 48.1914 24.1814 48.6478L22.8465 51.1208Z" fill="#1476F2"/>
<ellipse cx="32" cy="46.0759" rx="3.32855" ry="3.3365" fill="#1476F2"/>
<path d="M20.0572 14.4935C17.5082 16.2395 15.3203 18.6273 13.7135 21.417C12.1067 24.2067 11.1377 27.2999 10.9037 30.3857L13.7078 30.4634C14.26 30.4173 14.7407 29.8875 14.8325 29.279C15.1259 27.3338 15.9903 25.0834 17.0049 23.3218C18.0195 21.5603 19.5316 19.6846 21.0654 18.4574C21.5453 18.0735 21.7627 17.3913 21.5264 16.8888L20.0572 14.4935Z" fill="#1476F2"/>
<ellipse cx="3.33451" cy="3.33054" rx="3.33451" ry="3.33054" transform="matrix(-0.499106 0.866541 -0.865508 -0.500895 24.3859 23.7408)" fill="#1476F2"/>
<path d="M10.9037 33.6143C11.1376 36.7001 12.1067 39.7933 13.7135 42.583C15.3203 45.3727 17.5081 47.7605 20.0572 49.5065L21.5264 47.1112C21.7626 46.6087 21.5453 45.9265 21.0654 45.5426C19.5316 44.3154 18.0195 42.4397 17.0049 40.6781C15.9903 38.9166 15.1258 36.6661 14.8325 34.721C14.7407 34.1125 14.26 33.5827 13.7077 33.5366L10.9037 33.6143Z" fill="#1476F2"/>
<ellipse cx="3.33451" cy="3.33054" rx="3.33451" ry="3.33054" transform="matrix(0.499107 0.86654 -0.865508 0.500896 21.0573 34.4802)" fill="#1476F2"/>
<path d="M41.1535 12.8792C38.3705 11.5394 35.2136 10.834 32 10.834C28.7865 10.834 25.6295 11.5394 22.8465 12.8792L24.1814 15.3522C24.4973 15.8085 25.1954 15.9609 25.7671 15.7364C27.5942 15.0185 29.9708 14.6437 32 14.6437C34.0292 14.6437 36.4058 15.0185 38.2329 15.7364C38.8046 15.961 39.5027 15.8086 39.8186 15.3522L41.1535 12.8792Z" fill="#1476F2"/>
<ellipse cx="32" cy="17.9241" rx="3.32855" ry="3.3365" transform="rotate(-180 32 17.9241)" fill="#1476F2"/>
<path d="M53.0963 30.3857C52.8624 27.2999 51.8933 24.2067 50.2866 21.417C48.6798 18.6273 46.4919 16.2395 43.9428 14.4935L42.4737 16.8888C42.2374 17.3913 42.4548 18.0735 42.9346 18.4574C44.4685 19.6846 45.9805 21.5603 46.9951 23.3218C48.0097 25.0834 48.8742 27.3339 49.1676 29.279C49.2593 29.8875 49.7401 30.4173 50.2923 30.4634L53.0963 30.3857Z" fill="#1476F2"/>
<ellipse cx="3.33451" cy="3.33054" rx="3.33451" ry="3.33054" transform="matrix(-0.499105 -0.866541 0.865508 -0.500894 42.9427 29.5198)" fill="#1476F2"/>
<path d="M43.9428 49.5065C46.4918 47.7605 48.6797 45.3727 50.2865 42.583C51.8933 39.7934 52.8623 36.7002 53.0963 33.6143L50.2923 33.5366C49.74 33.5827 49.2593 34.1125 49.1675 34.7211C48.8742 36.6662 48.0097 38.9166 46.9951 40.6782C45.9805 42.4397 44.4684 44.3154 42.9346 45.5426C42.4547 45.9265 42.2373 46.6087 42.4736 47.1112L43.9428 49.5065Z" fill="#1476F2"/>
<ellipse cx="3.33451" cy="3.33054" rx="3.33451" ry="3.33054" transform="matrix(0.499107 -0.866541 0.865508 0.500896 39.6141 40.2592)" fill="#1476F2"/>
</svg>
