<svg width="64" height="64" viewBox="0 0 64 64" fill="none" xmlns="http://www.w3.org/2000/svg">
<path d="M32.0067 50C29.5176 50 27.1774 49.5277 24.9862 48.583C22.795 47.6384 20.8889 46.3563 19.2679 44.737C17.647 43.1176 16.3638 41.2133 15.4183 39.0241C14.4728 36.8349 14 34.4958 14 32.0067C14 29.5176 14.4723 27.1774 15.417 24.9862C16.3616 22.795 17.6437 20.8889 19.2631 19.268C20.8825 17.6471 22.7867 16.3638 24.9759 15.4183C27.1651 14.4728 29.5042 14 31.9933 14C34.4824 14 36.8226 14.4723 39.0138 15.417C41.205 16.3616 43.1111 17.6436 44.732 19.263C46.353 20.8824 47.6362 22.7867 48.5817 24.9759C49.5272 27.1651 50 29.5042 50 31.9933C50 34.4824 49.5277 36.8226 48.583 39.0138C47.6384 41.205 46.3563 43.1111 44.737 44.732C43.1176 46.353 41.2133 47.6362 39.0241 48.5817C36.8349 49.5272 34.4958 50 32.0067 50ZM29.9269 48.3731V44.3884C28.7814 44.3884 27.8162 43.9808 27.0312 43.1654C26.2463 42.35 25.8539 41.3718 25.8539 40.2307V38.1461L15.95 28.2423C15.8346 28.8577 15.7372 29.4785 15.6577 30.1048C15.5782 30.7311 15.5384 31.3657 15.5384 32.0086C15.5384 36.1824 16.9019 39.8282 19.6288 42.9461C22.3558 46.0641 25.7885 47.8731 29.9269 48.3731ZM44.1654 43.127C44.8474 42.3782 45.4571 41.569 45.9943 40.6994C46.5314 39.8297 46.9875 38.9195 47.3624 37.9689C47.7373 37.0183 48.0142 36.0436 48.1931 35.0448C48.3721 34.0459 48.4616 33.031 48.4616 32C48.4616 28.6012 47.5334 25.497 45.677 22.6874C43.8205 19.8778 41.3141 17.8449 38.1577 16.5885V17.5402C38.1577 18.6724 37.7652 19.6461 36.9803 20.4615C36.1954 21.2769 35.2301 21.6846 34.0846 21.6846H29.9269V25.8423C29.9269 26.4199 29.7211 26.8957 29.3096 27.2697C28.8981 27.6437 28.4135 27.8307 27.8558 27.8307H23.7693V32H36.1693C36.7468 32 37.2226 32.2039 37.5966 32.6116C37.9707 33.0193 38.1577 33.5064 38.1577 34.0731V40.2307H40.2145C41.1407 40.2307 41.9651 40.4999 42.6877 41.0382C43.4103 41.5765 43.9028 42.2727 44.1654 43.127Z" fill="#1476F2"/>
<path fill-rule="evenodd" clip-rule="evenodd" d="M32 62.1511C48.652 62.1511 62.1511 48.652 62.1511 32C62.1511 15.348 48.652 1.84889 32 1.84889C15.348 1.84889 1.84889 15.348 1.84889 32C1.84889 48.652 15.348 62.1511 32 62.1511ZM32 64C49.6731 64 64 49.6731 64 32C64 14.3269 49.6731 0 32 0C14.3269 0 0 14.3269 0 32C0 49.6731 14.3269 64 32 64Z" fill="#1476F2"/>
</svg>
