<svg width="178" height="717" viewBox="0 0 178 717" fill="none" xmlns="http://www.w3.org/2000/svg">
<path fill-rule="evenodd" clip-rule="evenodd" d="M30 440.55L30 248.648C30 241.469 24.1797 235.648 16.9999 235.648C9.82022 235.648 3.99989 241.469 3.99989 248.649L3.99988 440.55C3.99988 447.729 9.8202 453.55 16.9999 453.55C24.1797 453.55 30 447.729 30 440.55ZM34 248.648C34 239.26 26.3888 231.648 16.9999 231.648C7.61107 231.648 -0.000107144 239.26 -0.000107555 248.649L-0.000115943 440.55C-0.000116353 449.939 7.61106 457.55 16.9999 457.55C26.3888 457.55 34 449.939 34 440.55L34 248.648Z" fill="url(#paint0_linear_2002_5026)"/>
<path fill-rule="evenodd" clip-rule="evenodd" d="M30 487.55L30 248.648C30 241.469 24.1797 235.648 17 235.648C9.82037 235.648 4.00009 241.469 4.00009 248.648L4.00008 487.55C4.00008 494.73 9.82036 500.55 17 500.55C24.1797 500.55 30 494.73 30 487.55ZM34 248.648C34 239.26 26.3889 231.648 17 231.648C7.61124 231.648 9.50347e-05 239.26 9.46243e-05 248.648L8.41816e-05 487.55C8.37712e-05 496.939 7.61122 504.55 17 504.55C26.3888 504.55 34 496.939 34 487.55L34 248.648Z" fill="url(#paint1_linear_2002_5026)"/>
<rect x="34" y="70.6484" width="48" height="4" transform="rotate(90 34 70.6484)" fill="url(#paint2_linear_2002_5026)"/>
<rect x="34" y="22.6484" width="48" height="4" transform="rotate(90 34 22.6484)" fill="url(#paint3_linear_2002_5026)"/>
<rect x="34" y="118.55" width="96" height="4" transform="rotate(90 34 118.55)" fill="url(#paint4_linear_2002_5026)"/>
<rect x="34" y="214.55" width="48" height="4" transform="rotate(90 34 214.55)" fill="url(#paint5_linear_2002_5026)"/>
<rect x="34" y="454.55" width="48" height="4" transform="rotate(90 34 454.55)" fill="url(#paint6_linear_2002_5026)"/>
<rect x="34" y="502.55" width="96" height="4" transform="rotate(90 34 502.55)" fill="url(#paint7_linear_2002_5026)"/>
<rect x="34" y="598.55" width="48" height="4" transform="rotate(90 34 598.55)" fill="url(#paint8_linear_2002_5026)"/>
<rect x="34" y="646.55" width="48" height="4" transform="rotate(90 34 646.55)" fill="url(#paint9_linear_2002_5026)"/>
<rect x="34" y="262.55" width="192" height="3.99999" transform="rotate(90 34 262.55)" fill="url(#paint10_linear_2002_5026)"/>
<g filter="url(#filter0_d_2002_5026)">
<circle cx="32" cy="22.5498" r="16" fill="#5DC792"/>
</g>
<circle cx="32" cy="22.5498" r="8" fill="white"/>
<path d="M65.9706 28.5498V15.9498H68.8866V28.5498H65.9706ZM75.8368 28.6938C74.9248 28.6938 74.1028 28.4898 73.3708 28.0818C72.6388 27.6618 72.0568 27.0798 71.6248 26.3358C71.2048 25.5918 70.9948 24.7158 70.9948 23.7078C70.9948 22.6878 71.2048 21.8058 71.6248 21.0618C72.0568 20.3178 72.6388 19.7418 73.3708 19.3338C74.1028 18.9258 74.9248 18.7218 75.8368 18.7218C76.6528 18.7218 77.3668 18.9018 77.9788 19.2618C78.5908 19.6218 79.0648 20.1678 79.4008 20.8998C79.7368 21.6318 79.9048 22.5678 79.9048 23.7078C79.9048 24.8358 79.7428 25.7718 79.4188 26.5158C79.0948 27.2478 78.6268 27.7938 78.0148 28.1538C77.4148 28.5138 76.6888 28.6938 75.8368 28.6938ZM76.3228 26.3898C76.7788 26.3898 77.1928 26.2818 77.5648 26.0658C77.9368 25.8498 78.2308 25.5438 78.4468 25.1478C78.6748 24.7398 78.7888 24.2598 78.7888 23.7078C78.7888 23.1438 78.6748 22.6638 78.4468 22.2678C78.2308 21.8718 77.9368 21.5658 77.5648 21.3498C77.1928 21.1338 76.7788 21.0258 76.3228 21.0258C75.8548 21.0258 75.4348 21.1338 75.0628 21.3498C74.6908 21.5658 74.3908 21.8718 74.1628 22.2678C73.9468 22.6638 73.8388 23.1438 73.8388 23.7078C73.8388 24.2598 73.9468 24.7398 74.1628 25.1478C74.3908 25.5438 74.6908 25.8498 75.0628 26.0658C75.4348 26.2818 75.8548 26.3898 76.3228 26.3898ZM78.8608 28.5498V26.5698L78.9148 23.6898L78.7348 20.8278V15.1938H81.5428V28.5498H78.8608ZM88.9477 28.6938C87.8437 28.6938 86.8717 28.4778 86.0317 28.0458C85.2037 27.6138 84.5617 27.0258 84.1057 26.2818C83.6497 25.5258 83.4217 24.6678 83.4217 23.7078C83.4217 22.7358 83.6437 21.8778 84.0877 21.1338C84.5437 20.3778 85.1617 19.7898 85.9417 19.3698C86.7217 18.9378 87.6037 18.7218 88.5877 18.7218C89.5357 18.7218 90.3877 18.9258 91.1437 19.3338C91.9117 19.7298 92.5177 20.3058 92.9617 21.0618C93.4057 21.8058 93.6277 22.6998 93.6277 23.7438C93.6277 23.8518 93.6217 23.9778 93.6097 24.1218C93.5977 24.2538 93.5857 24.3798 93.5737 24.4998H85.7077V22.8618H92.0977L91.0177 23.3478C91.0177 22.8438 90.9157 22.4058 90.7117 22.0338C90.5077 21.6618 90.2257 21.3738 89.8657 21.1698C89.5057 20.9538 89.0857 20.8458 88.6057 20.8458C88.1257 20.8458 87.6997 20.9538 87.3277 21.1698C86.9677 21.3738 86.6857 21.6678 86.4817 22.0518C86.2777 22.4238 86.1757 22.8678 86.1757 23.3838V23.8158C86.1757 24.3438 86.2897 24.8118 86.5177 25.2198C86.7577 25.6158 87.0877 25.9218 87.5077 26.1378C87.9397 26.3418 88.4437 26.4438 89.0197 26.4438C89.5357 26.4438 89.9857 26.3658 90.3697 26.2098C90.7657 26.0538 91.1257 25.8198 91.4497 25.5078L92.9437 27.1278C92.4997 27.6318 91.9417 28.0218 91.2697 28.2978C90.5977 28.5618 89.8237 28.6938 88.9477 28.6938ZM101.174 28.5498V26.6598L100.994 26.2458V22.8618C100.994 22.2618 100.808 21.7938 100.436 21.4578C100.076 21.1218 99.5175 20.9538 98.7615 20.9538C98.2455 20.9538 97.7355 21.0378 97.2315 21.2058C96.7395 21.3618 96.3195 21.5778 95.9715 21.8538L94.9635 19.8918C95.4915 19.5198 96.1275 19.2318 96.8715 19.0278C97.6155 18.8238 98.3715 18.7218 99.1395 18.7218C100.616 18.7218 101.762 19.0698 102.578 19.7658C103.394 20.4618 103.802 21.5478 103.802 23.0238V28.5498H101.174ZM98.2215 28.6938C97.4655 28.6938 96.8175 28.5678 96.2775 28.3158C95.7375 28.0518 95.3235 27.6978 95.0355 27.2538C94.7475 26.8098 94.6035 26.3118 94.6035 25.7598C94.6035 25.1838 94.7415 24.6798 95.0175 24.2478C95.3055 23.8158 95.7555 23.4798 96.3675 23.2398C96.9795 22.9878 97.7775 22.8618 98.7615 22.8618H101.336V24.4998H99.0675C98.4075 24.4998 97.9515 24.6078 97.6995 24.8238C97.4595 25.0398 97.3395 25.3098 97.3395 25.6338C97.3395 25.9938 97.4775 26.2818 97.7535 26.4978C98.0415 26.7018 98.4315 26.8038 98.9235 26.8038C99.3915 26.8038 99.8115 26.6958 100.184 26.4798C100.556 26.2518 100.826 25.9218 100.994 25.4898L101.426 26.7858C101.222 27.4098 100.85 27.8838 100.31 28.2078C99.7695 28.5318 99.0735 28.6938 98.2215 28.6938ZM110.303 28.6938C109.163 28.6938 108.275 28.4058 107.639 27.8298C107.003 27.2418 106.685 26.3718 106.685 25.2198V16.7238H109.493V25.1838C109.493 25.5918 109.601 25.9098 109.817 26.1378C110.033 26.3538 110.327 26.4618 110.699 26.4618C111.143 26.4618 111.521 26.3418 111.833 26.1018L112.589 28.0818C112.301 28.2858 111.953 28.4418 111.545 28.5498C111.149 28.6458 110.735 28.6938 110.303 28.6938ZM105.191 21.2418V19.0818H111.905V21.2418H105.191ZM114.165 28.5498V18.8658H116.973V28.5498H114.165ZM115.569 17.5158C115.053 17.5158 114.633 17.3658 114.309 17.0658C113.985 16.7658 113.823 16.3938 113.823 15.9498C113.823 15.5058 113.985 15.1338 114.309 14.8338C114.633 14.5338 115.053 14.3838 115.569 14.3838C116.085 14.3838 116.505 14.5278 116.829 14.8158C117.153 15.0918 117.315 15.4518 117.315 15.8958C117.315 16.3638 117.153 16.7538 116.829 17.0658C116.517 17.3658 116.097 17.5158 115.569 17.5158ZM124.187 28.6938C123.155 28.6938 122.237 28.4778 121.433 28.0458C120.641 27.6138 120.011 27.0258 119.543 26.2818C119.087 25.5258 118.859 24.6678 118.859 23.7078C118.859 22.7358 119.087 21.8778 119.543 21.1338C120.011 20.3778 120.641 19.7898 121.433 19.3698C122.237 18.9378 123.155 18.7218 124.187 18.7218C125.207 18.7218 126.119 18.9378 126.923 19.3698C127.727 19.7898 128.357 20.3718 128.813 21.1158C129.269 21.8598 129.497 22.7238 129.497 23.7078C129.497 24.6678 129.269 25.5258 128.813 26.2818C128.357 27.0258 127.727 27.6138 126.923 28.0458C126.119 28.4778 125.207 28.6938 124.187 28.6938ZM124.187 26.3898C124.655 26.3898 125.075 26.2818 125.447 26.0658C125.819 25.8498 126.113 25.5438 126.329 25.1478C126.545 24.7398 126.653 24.2598 126.653 23.7078C126.653 23.1438 126.545 22.6638 126.329 22.2678C126.113 21.8718 125.819 21.5658 125.447 21.3498C125.075 21.1338 124.655 21.0258 124.187 21.0258C123.719 21.0258 123.299 21.1338 122.927 21.3498C122.555 21.5658 122.255 21.8718 122.027 22.2678C121.811 22.6638 121.703 23.1438 121.703 23.7078C121.703 24.2598 121.811 24.7398 122.027 25.1478C122.255 25.5438 122.555 25.8498 122.927 26.0658C123.299 26.2818 123.719 26.3898 124.187 26.3898ZM137.26 18.7218C138.028 18.7218 138.712 18.8778 139.312 19.1898C139.924 19.4898 140.404 19.9578 140.752 20.5938C141.1 21.2178 141.274 22.0218 141.274 23.0058V28.5498H138.466V23.4378C138.466 22.6578 138.292 22.0818 137.944 21.7098C137.608 21.3378 137.128 21.1518 136.504 21.1518C136.06 21.1518 135.658 21.2478 135.298 21.4398C134.95 21.6198 134.674 21.9018 134.47 22.2858C134.278 22.6698 134.182 23.1618 134.182 23.7618V28.5498H131.374V18.8658H134.056V21.5478L133.552 20.7378C133.9 20.0898 134.398 19.5918 135.046 19.2438C135.694 18.8958 136.432 18.7218 137.26 18.7218Z" fill="#5DC792"/>
<g filter="url(#filter1_d_2002_5026)">
<circle cx="32" cy="70.5498" r="16" fill="#5DC792"/>
</g>
<circle cx="32" cy="70.5498" r="8" fill="white"/>
<path d="M65.7372 76.5498V63.9498H71.4612C72.8292 63.9498 74.0352 64.2138 75.0792 64.7418C76.1232 65.2578 76.9392 65.9838 77.5272 66.9198C78.1152 67.8558 78.4092 68.9658 78.4092 70.2498C78.4092 71.5218 78.1152 72.6318 77.5272 73.5798C76.9392 74.5158 76.1232 75.2478 75.0792 75.7758C74.0352 76.2918 72.8292 76.5498 71.4612 76.5498H65.7372ZM68.6532 74.1558H71.3172C72.1572 74.1558 72.8832 73.9998 73.4952 73.6878C74.1192 73.3638 74.5992 72.9078 74.9352 72.3198C75.2832 71.7318 75.4572 71.0418 75.4572 70.2498C75.4572 69.4458 75.2832 68.7558 74.9352 68.1798C74.5992 67.5918 74.1192 67.1418 73.4952 66.8298C72.8832 66.5058 72.1572 66.3438 71.3172 66.3438H68.6532V74.1558ZM80.4103 76.5498V66.8658H83.2183V76.5498H80.4103ZM81.8143 65.5158C81.2983 65.5158 80.8783 65.3658 80.5543 65.0658C80.2303 64.7658 80.0683 64.3938 80.0683 63.9498C80.0683 63.5058 80.2303 63.1338 80.5543 62.8338C80.8783 62.5338 81.2983 62.3838 81.8143 62.3838C82.3303 62.3838 82.7503 62.5278 83.0743 62.8158C83.3983 63.0918 83.5603 63.4518 83.5603 63.8958C83.5603 64.3638 83.3983 64.7538 83.0743 65.0658C82.7623 65.3658 82.3423 65.5158 81.8143 65.5158ZM89.0823 76.6938C88.2543 76.6938 87.4563 76.5978 86.6883 76.4058C85.9323 76.2018 85.3323 75.9498 84.8883 75.6498L85.8243 73.6338C86.2683 73.9098 86.7903 74.1378 87.3903 74.3178C88.0023 74.4858 88.6023 74.5698 89.1903 74.5698C89.8383 74.5698 90.2943 74.4918 90.5583 74.3358C90.8343 74.1798 90.9723 73.9638 90.9723 73.6878C90.9723 73.4598 90.8643 73.2918 90.6483 73.1838C90.4443 73.0638 90.1683 72.9738 89.8203 72.9138C89.4723 72.8538 89.0883 72.7938 88.6683 72.7338C88.2603 72.6738 87.8463 72.5958 87.4263 72.4998C87.0063 72.3918 86.6223 72.2358 86.2743 72.0318C85.9263 71.8278 85.6443 71.5518 85.4283 71.2038C85.2243 70.8558 85.1223 70.4058 85.1223 69.8538C85.1223 69.2418 85.2963 68.7018 85.6443 68.2338C86.0043 67.7658 86.5203 67.3998 87.1923 67.1358C87.8643 66.8598 88.6683 66.7218 89.6043 66.7218C90.2643 66.7218 90.9363 66.7938 91.6203 66.9378C92.3043 67.0818 92.8743 67.2918 93.3303 67.5678L92.3943 69.5658C91.9263 69.2898 91.4523 69.1038 90.9723 69.0078C90.5043 68.8998 90.0483 68.8458 89.6043 68.8458C88.9803 68.8458 88.5243 68.9298 88.2363 69.0978C87.9483 69.2658 87.8043 69.4818 87.8043 69.7458C87.8043 69.9858 87.9063 70.1658 88.1103 70.2858C88.3263 70.4058 88.6083 70.5018 88.9563 70.5738C89.3043 70.6458 89.6823 70.7118 90.0903 70.7718C90.5103 70.8198 90.9303 70.8978 91.3503 71.0058C91.7703 71.1138 92.1483 71.2698 92.4843 71.4738C92.8323 71.6658 93.1143 71.9358 93.3303 72.2838C93.5463 72.6198 93.6543 73.0638 93.6543 73.6158C93.6543 74.2158 93.4743 74.7498 93.1143 75.2178C92.7543 75.6738 92.2323 76.0338 91.5483 76.2978C90.8763 76.5618 90.0543 76.6938 89.0823 76.6938ZM100.067 76.6938C99.0228 76.6938 98.0928 76.4838 97.2768 76.0638C96.4608 75.6318 95.8188 75.0378 95.3508 74.2818C94.8948 73.5258 94.6668 72.6678 94.6668 71.7078C94.6668 70.7358 94.8948 69.8778 95.3508 69.1338C95.8188 68.3778 96.4608 67.7898 97.2768 67.3698C98.0928 66.9378 99.0228 66.7218 100.067 66.7218C101.087 66.7218 101.975 66.9378 102.731 67.3698C103.487 67.7898 104.045 68.3958 104.405 69.1878L102.227 70.3578C101.975 69.9018 101.657 69.5658 101.273 69.3498C100.901 69.1338 100.493 69.0258 100.049 69.0258C99.5688 69.0258 99.1368 69.1338 98.7528 69.3498C98.3688 69.5658 98.0628 69.8718 97.8348 70.2678C97.6188 70.6638 97.5108 71.1438 97.5108 71.7078C97.5108 72.2718 97.6188 72.7518 97.8348 73.1478C98.0628 73.5438 98.3688 73.8498 98.7528 74.0658C99.1368 74.2818 99.5688 74.3898 100.049 74.3898C100.493 74.3898 100.901 74.2878 101.273 74.0838C101.657 73.8678 101.975 73.5258 102.227 73.0578L104.405 74.2458C104.045 75.0258 103.487 75.6318 102.731 76.0638C101.975 76.4838 101.087 76.6938 100.067 76.6938ZM110.507 76.6938C109.475 76.6938 108.557 76.4778 107.753 76.0458C106.961 75.6138 106.331 75.0258 105.863 74.2818C105.407 73.5258 105.179 72.6678 105.179 71.7078C105.179 70.7358 105.407 69.8778 105.863 69.1338C106.331 68.3778 106.961 67.7898 107.753 67.3698C108.557 66.9378 109.475 66.7218 110.507 66.7218C111.527 66.7218 112.439 66.9378 113.243 67.3698C114.047 67.7898 114.677 68.3718 115.133 69.1158C115.589 69.8598 115.817 70.7238 115.817 71.7078C115.817 72.6678 115.589 73.5258 115.133 74.2818C114.677 75.0258 114.047 75.6138 113.243 76.0458C112.439 76.4778 111.527 76.6938 110.507 76.6938ZM110.507 74.3898C110.975 74.3898 111.395 74.2818 111.767 74.0658C112.139 73.8498 112.433 73.5438 112.649 73.1478C112.865 72.7398 112.973 72.2598 112.973 71.7078C112.973 71.1438 112.865 70.6638 112.649 70.2678C112.433 69.8718 112.139 69.5658 111.767 69.3498C111.395 69.1338 110.975 69.0258 110.507 69.0258C110.039 69.0258 109.619 69.1338 109.247 69.3498C108.875 69.5658 108.575 69.8718 108.347 70.2678C108.131 70.6638 108.023 71.1438 108.023 71.7078C108.023 72.2598 108.131 72.7398 108.347 73.1478C108.575 73.5438 108.875 73.8498 109.247 74.0658C109.619 74.2818 110.039 74.3898 110.507 74.3898ZM120.058 76.5498L115.99 66.8658H118.888L122.272 75.1998H120.832L124.342 66.8658H127.042L122.956 76.5498H120.058ZM132.73 76.6938C131.626 76.6938 130.654 76.4778 129.814 76.0458C128.986 75.6138 128.344 75.0258 127.888 74.2818C127.432 73.5258 127.204 72.6678 127.204 71.7078C127.204 70.7358 127.426 69.8778 127.87 69.1338C128.326 68.3778 128.944 67.7898 129.724 67.3698C130.504 66.9378 131.386 66.7218 132.37 66.7218C133.318 66.7218 134.17 66.9258 134.926 67.3338C135.694 67.7298 136.3 68.3058 136.744 69.0618C137.188 69.8058 137.41 70.6998 137.41 71.7438C137.41 71.8518 137.404 71.9778 137.392 72.1218C137.38 72.2538 137.368 72.3798 137.356 72.4998H129.49V70.8618H135.88L134.8 71.3478C134.8 70.8438 134.698 70.4058 134.494 70.0338C134.29 69.6618 134.008 69.3738 133.648 69.1698C133.288 68.9538 132.868 68.8458 132.388 68.8458C131.908 68.8458 131.482 68.9538 131.11 69.1698C130.75 69.3738 130.468 69.6678 130.264 70.0518C130.06 70.4238 129.958 70.8678 129.958 71.3838V71.8158C129.958 72.3438 130.072 72.8118 130.3 73.2198C130.54 73.6158 130.87 73.9218 131.29 74.1378C131.722 74.3418 132.226 74.4438 132.802 74.4438C133.318 74.4438 133.768 74.3658 134.152 74.2098C134.548 74.0538 134.908 73.8198 135.232 73.5078L136.726 75.1278C136.282 75.6318 135.724 76.0218 135.052 76.2978C134.38 76.5618 133.606 76.6938 132.73 76.6938ZM139.279 76.5498V66.8658H141.961V69.6018L141.583 68.8098C141.871 68.1258 142.333 67.6098 142.969 67.2618C143.605 66.9018 144.379 66.7218 145.291 66.7218V69.3138C145.171 69.3018 145.063 69.2958 144.967 69.2958C144.871 69.2838 144.769 69.2778 144.661 69.2778C143.893 69.2778 143.269 69.4998 142.789 69.9438C142.321 70.3758 142.087 71.0538 142.087 71.9778V76.5498H139.279ZM148.519 80.1858C148.015 80.1858 147.517 80.1078 147.025 79.9518C146.533 79.7958 146.131 79.5798 145.819 79.3038L146.845 77.3058C147.061 77.4978 147.307 77.6478 147.583 77.7558C147.871 77.8638 148.153 77.9178 148.429 77.9178C148.825 77.9178 149.137 77.8218 149.365 77.6298C149.605 77.4498 149.821 77.1438 150.013 76.7118L150.517 75.5238L150.733 75.2178L154.207 66.8658H156.907L152.533 77.1438C152.221 77.9238 151.861 78.5358 151.453 78.9798C151.057 79.4238 150.613 79.7358 150.121 79.9158C149.641 80.0958 149.107 80.1858 148.519 80.1858ZM150.175 76.9278L145.855 66.8658H148.753L152.101 74.9658L150.175 76.9278Z" fill="#5DC792"/>
<g filter="url(#filter2_d_2002_5026)">
<circle cx="32" cy="118.55" r="16" fill="#33B1B8"/>
</g>
<circle cx="32" cy="118.55" r="8" fill="white"/>
<path d="M65.954 124.55V111.95H71.408C72.536 111.95 73.508 112.136 74.324 112.508C75.14 112.868 75.77 113.39 76.214 114.074C76.658 114.758 76.88 115.574 76.88 116.522C76.88 117.458 76.658 118.268 76.214 118.952C75.77 119.636 75.14 120.164 74.324 120.536C73.508 120.896 72.536 121.076 71.408 121.076H67.574L68.87 119.762V124.55H65.954ZM68.87 120.086L67.574 118.7H71.246C72.146 118.7 72.818 118.508 73.262 118.124C73.706 117.74 73.928 117.206 73.928 116.522C73.928 115.826 73.706 115.286 73.262 114.902C72.818 114.518 72.146 114.326 71.246 114.326H67.574L68.87 112.94V120.086ZM78.7462 124.55V114.866H81.4282V117.602L81.0502 116.81C81.3382 116.126 81.8002 115.61 82.4362 115.262C83.0722 114.902 83.8462 114.722 84.7582 114.722V117.314C84.6382 117.302 84.5302 117.296 84.4342 117.296C84.3382 117.284 84.2362 117.278 84.1282 117.278C83.3602 117.278 82.7362 117.5 82.2562 117.944C81.7882 118.376 81.5542 119.054 81.5542 119.978V124.55H78.7462ZM90.9655 124.694C89.9335 124.694 89.0155 124.478 88.2115 124.046C87.4195 123.614 86.7895 123.026 86.3215 122.282C85.8655 121.526 85.6375 120.668 85.6375 119.708C85.6375 118.736 85.8655 117.878 86.3215 117.134C86.7895 116.378 87.4195 115.79 88.2115 115.37C89.0155 114.938 89.9335 114.722 90.9655 114.722C91.9855 114.722 92.8975 114.938 93.7015 115.37C94.5055 115.79 95.1355 116.372 95.5915 117.116C96.0475 117.86 96.2755 118.724 96.2755 119.708C96.2755 120.668 96.0475 121.526 95.5915 122.282C95.1355 123.026 94.5055 123.614 93.7015 124.046C92.8975 124.478 91.9855 124.694 90.9655 124.694ZM90.9655 122.39C91.4335 122.39 91.8535 122.282 92.2255 122.066C92.5975 121.85 92.8915 121.544 93.1075 121.148C93.3235 120.74 93.4315 120.26 93.4315 119.708C93.4315 119.144 93.3235 118.664 93.1075 118.268C92.8915 117.872 92.5975 117.566 92.2255 117.35C91.8535 117.134 91.4335 117.026 90.9655 117.026C90.4975 117.026 90.0775 117.134 89.7055 117.35C89.3335 117.566 89.0335 117.872 88.8055 118.268C88.5895 118.664 88.4815 119.144 88.4815 119.708C88.4815 120.26 88.5895 120.74 88.8055 121.148C89.0335 121.544 89.3335 121.85 89.7055 122.066C90.0775 122.282 90.4975 122.39 90.9655 122.39ZM102.112 124.694C100.972 124.694 100.084 124.406 99.4484 123.83C98.8124 123.242 98.4944 122.372 98.4944 121.22V112.724H101.302V121.184C101.302 121.592 101.41 121.91 101.626 122.138C101.842 122.354 102.136 122.462 102.508 122.462C102.952 122.462 103.33 122.342 103.642 122.102L104.398 124.082C104.11 124.286 103.762 124.442 103.354 124.55C102.958 124.646 102.544 124.694 102.112 124.694ZM97.0004 117.242V115.082H103.714V117.242H97.0004ZM110.284 124.694C109.252 124.694 108.334 124.478 107.53 124.046C106.738 123.614 106.108 123.026 105.64 122.282C105.184 121.526 104.956 120.668 104.956 119.708C104.956 118.736 105.184 117.878 105.64 117.134C106.108 116.378 106.738 115.79 107.53 115.37C108.334 114.938 109.252 114.722 110.284 114.722C111.304 114.722 112.216 114.938 113.02 115.37C113.824 115.79 114.454 116.372 114.91 117.116C115.366 117.86 115.594 118.724 115.594 119.708C115.594 120.668 115.366 121.526 114.91 122.282C114.454 123.026 113.824 123.614 113.02 124.046C112.216 124.478 111.304 124.694 110.284 124.694ZM110.284 122.39C110.752 122.39 111.172 122.282 111.544 122.066C111.916 121.85 112.21 121.544 112.426 121.148C112.642 120.74 112.75 120.26 112.75 119.708C112.75 119.144 112.642 118.664 112.426 118.268C112.21 117.872 111.916 117.566 111.544 117.35C111.172 117.134 110.752 117.026 110.284 117.026C109.816 117.026 109.396 117.134 109.024 117.35C108.652 117.566 108.352 117.872 108.124 118.268C107.908 118.664 107.8 119.144 107.8 119.708C107.8 120.26 107.908 120.74 108.124 121.148C108.352 121.544 108.652 121.85 109.024 122.066C109.396 122.282 109.816 122.39 110.284 122.39ZM121.431 124.694C120.291 124.694 119.403 124.406 118.767 123.83C118.131 123.242 117.813 122.372 117.813 121.22V112.724H120.621V121.184C120.621 121.592 120.729 121.91 120.945 122.138C121.161 122.354 121.455 122.462 121.827 122.462C122.271 122.462 122.649 122.342 122.961 122.102L123.717 124.082C123.429 124.286 123.081 124.442 122.673 124.55C122.277 124.646 121.863 124.694 121.431 124.694ZM116.319 117.242V115.082H123.033V117.242H116.319ZM126.341 128.186C125.837 128.186 125.339 128.108 124.847 127.952C124.355 127.796 123.953 127.58 123.641 127.304L124.667 125.306C124.883 125.498 125.129 125.648 125.405 125.756C125.693 125.864 125.975 125.918 126.251 125.918C126.647 125.918 126.959 125.822 127.187 125.63C127.427 125.45 127.643 125.144 127.835 124.712L128.339 123.524L128.555 123.218L132.029 114.866H134.729L130.355 125.144C130.043 125.924 129.683 126.536 129.275 126.98C128.879 127.424 128.435 127.736 127.943 127.916C127.463 128.096 126.929 128.186 126.341 128.186ZM127.997 124.928L123.677 114.866H126.575L129.923 122.966L127.997 124.928ZM141.599 124.694C140.783 124.694 140.069 124.514 139.457 124.154C138.845 123.794 138.365 123.248 138.017 122.516C137.681 121.772 137.513 120.836 137.513 119.708C137.513 118.568 137.675 117.632 137.999 116.9C138.323 116.168 138.791 115.622 139.403 115.262C140.015 114.902 140.747 114.722 141.599 114.722C142.511 114.722 143.327 114.932 144.047 115.352C144.779 115.76 145.355 116.336 145.775 117.08C146.207 117.824 146.423 118.7 146.423 119.708C146.423 120.728 146.207 121.61 145.775 122.354C145.355 123.098 144.779 123.674 144.047 124.082C143.327 124.49 142.511 124.694 141.599 124.694ZM135.875 128.042V114.866H138.557V116.846L138.503 119.726L138.683 122.588V128.042H135.875ZM141.113 122.39C141.581 122.39 141.995 122.282 142.355 122.066C142.727 121.85 143.021 121.544 143.237 121.148C143.465 120.74 143.579 120.26 143.579 119.708C143.579 119.144 143.465 118.664 143.237 118.268C143.021 117.872 142.727 117.566 142.355 117.35C141.995 117.134 141.581 117.026 141.113 117.026C140.645 117.026 140.225 117.134 139.853 117.35C139.481 117.566 139.187 117.872 138.971 118.268C138.755 118.664 138.647 119.144 138.647 119.708C138.647 120.26 138.755 120.74 138.971 121.148C139.187 121.544 139.481 121.85 139.853 122.066C140.225 122.282 140.645 122.39 141.113 122.39ZM148.303 124.55V114.866H151.111V124.55H148.303ZM149.707 113.516C149.191 113.516 148.771 113.366 148.447 113.066C148.123 112.766 147.961 112.394 147.961 111.95C147.961 111.506 148.123 111.134 148.447 110.834C148.771 110.534 149.191 110.384 149.707 110.384C150.223 110.384 150.643 110.528 150.967 110.816C151.291 111.092 151.453 111.452 151.453 111.896C151.453 112.364 151.291 112.754 150.967 113.066C150.655 113.366 150.235 113.516 149.707 113.516ZM159.603 114.722C160.371 114.722 161.055 114.878 161.655 115.19C162.267 115.49 162.747 115.958 163.095 116.594C163.443 117.218 163.617 118.022 163.617 119.006V124.55H160.809V119.438C160.809 118.658 160.635 118.082 160.287 117.71C159.951 117.338 159.471 117.152 158.847 117.152C158.403 117.152 158.001 117.248 157.641 117.44C157.293 117.62 157.017 117.902 156.813 118.286C156.621 118.67 156.525 119.162 156.525 119.762V124.55H153.717V114.866H156.399V117.548L155.895 116.738C156.243 116.09 156.741 115.592 157.389 115.244C158.037 114.896 158.775 114.722 159.603 114.722ZM170.787 128.186C169.875 128.186 168.993 128.072 168.141 127.844C167.301 127.628 166.599 127.298 166.035 126.854L167.151 124.838C167.559 125.174 168.075 125.438 168.699 125.63C169.335 125.834 169.959 125.936 170.571 125.936C171.567 125.936 172.287 125.714 172.731 125.27C173.187 124.826 173.415 124.166 173.415 123.29V121.832L173.595 119.402L173.559 116.954V114.866H176.223V122.93C176.223 124.73 175.755 126.056 174.819 126.908C173.883 127.76 172.539 128.186 170.787 128.186ZM170.355 124.082C169.455 124.082 168.639 123.89 167.907 123.506C167.187 123.11 166.605 122.564 166.161 121.868C165.729 121.16 165.513 120.338 165.513 119.402C165.513 118.454 165.729 117.632 166.161 116.936C166.605 116.228 167.187 115.682 167.907 115.298C168.639 114.914 169.455 114.722 170.355 114.722C171.171 114.722 171.891 114.89 172.515 115.226C173.139 115.55 173.625 116.06 173.973 116.756C174.321 117.44 174.495 118.322 174.495 119.402C174.495 120.47 174.321 121.352 173.973 122.048C173.625 122.732 173.139 123.242 172.515 123.578C171.891 123.914 171.171 124.082 170.355 124.082ZM170.913 121.778C171.405 121.778 171.843 121.682 172.227 121.49C172.611 121.286 172.911 121.004 173.127 120.644C173.343 120.284 173.451 119.87 173.451 119.402C173.451 118.922 173.343 118.508 173.127 118.16C172.911 117.8 172.611 117.524 172.227 117.332C171.843 117.128 171.405 117.026 170.913 117.026C170.421 117.026 169.983 117.128 169.599 117.332C169.215 117.524 168.909 117.8 168.681 118.16C168.465 118.508 168.357 118.922 168.357 119.402C168.357 119.87 168.465 120.284 168.681 120.644C168.909 121.004 169.215 121.286 169.599 121.49C169.983 121.682 170.421 121.778 170.913 121.778Z" fill="#33B1B8"/>
<g filter="url(#filter3_d_2002_5026)">
<circle cx="32" cy="166.55" r="16" fill="#33B1B8"/>
</g>
<circle cx="32" cy="166.55" r="8" fill="white"/>
<path d="M65.5008 172.55V159.95H70.9548C72.0828 159.95 73.0548 160.136 73.8708 160.508C74.6868 160.868 75.3168 161.39 75.7608 162.074C76.2048 162.758 76.4268 163.574 76.4268 164.522C76.4268 165.458 76.2048 166.268 75.7608 166.952C75.3168 167.636 74.6868 168.164 73.8708 168.536C73.0548 168.896 72.0828 169.076 70.9548 169.076H67.1208L68.4168 167.762V172.55H65.5008ZM68.4168 168.086L67.1208 166.7H70.7928C71.6928 166.7 72.3648 166.508 72.8088 166.124C73.2528 165.74 73.4748 165.206 73.4748 164.522C73.4748 163.826 73.2528 163.286 72.8088 162.902C72.3648 162.518 71.6928 162.326 70.7928 162.326H67.1208L68.4168 160.94V168.086ZM82.9011 172.694C81.8691 172.694 80.9511 172.478 80.1471 172.046C79.3551 171.614 78.7251 171.026 78.2571 170.282C77.8011 169.526 77.5731 168.668 77.5731 167.708C77.5731 166.736 77.8011 165.878 78.2571 165.134C78.7251 164.378 79.3551 163.79 80.1471 163.37C80.9511 162.938 81.8691 162.722 82.9011 162.722C83.9211 162.722 84.8331 162.938 85.6371 163.37C86.4411 163.79 87.0711 164.372 87.5271 165.116C87.9831 165.86 88.2111 166.724 88.2111 167.708C88.2111 168.668 87.9831 169.526 87.5271 170.282C87.0711 171.026 86.4411 171.614 85.6371 172.046C84.8331 172.478 83.9211 172.694 82.9011 172.694ZM82.9011 170.39C83.3691 170.39 83.7891 170.282 84.1611 170.066C84.5331 169.85 84.8271 169.544 85.0431 169.148C85.2591 168.74 85.3671 168.26 85.3671 167.708C85.3671 167.144 85.2591 166.664 85.0431 166.268C84.8271 165.872 84.5331 165.566 84.1611 165.35C83.7891 165.134 83.3691 165.026 82.9011 165.026C82.4331 165.026 82.0131 165.134 81.6411 165.35C81.2691 165.566 80.9691 165.872 80.7411 166.268C80.5251 166.664 80.4171 167.144 80.4171 167.708C80.4171 168.26 80.5251 168.74 80.7411 169.148C80.9691 169.544 81.2691 169.85 81.6411 170.066C82.0131 170.282 82.4331 170.39 82.9011 170.39ZM96.316 172.766C95.344 172.766 94.438 172.61 93.598 172.298C92.77 171.974 92.05 171.518 91.438 170.93C90.826 170.342 90.346 169.652 89.998 168.86C89.662 168.068 89.494 167.198 89.494 166.25C89.494 165.302 89.662 164.432 89.998 163.64C90.346 162.848 90.826 162.158 91.438 161.57C92.062 160.982 92.788 160.532 93.616 160.22C94.444 159.896 95.35 159.734 96.334 159.734C97.426 159.734 98.41 159.926 99.286 160.31C100.174 160.682 100.918 161.234 101.518 161.966L99.646 163.694C99.214 163.202 98.734 162.836 98.206 162.596C97.678 162.344 97.102 162.218 96.478 162.218C95.89 162.218 95.35 162.314 94.858 162.506C94.366 162.698 93.94 162.974 93.58 163.334C93.22 163.694 92.938 164.12 92.734 164.612C92.542 165.104 92.446 165.65 92.446 166.25C92.446 166.85 92.542 167.396 92.734 167.888C92.938 168.38 93.22 168.806 93.58 169.166C93.94 169.526 94.366 169.802 94.858 169.994C95.35 170.186 95.89 170.282 96.478 170.282C97.102 170.282 97.678 170.162 98.206 169.922C98.734 169.67 99.214 169.292 99.646 168.788L101.518 170.516C100.918 171.248 100.174 171.806 99.286 172.19C98.41 172.574 97.42 172.766 96.316 172.766Z" fill="#33B1B8"/>
<g filter="url(#filter4_d_2002_5026)">
<circle cx="32" cy="214.55" r="16" fill="#33B1B8"/>
</g>
<circle cx="32" cy="214.55" r="8" fill="white"/>
<path d="M65.7499 220.55V207.95H68.1619L73.5259 216.842H72.2479L77.5219 207.95H79.9159L79.9519 220.55H77.2159L77.1979 212.144H77.7019L73.4899 219.218H72.1759L67.8739 212.144H68.4859V220.55H65.7499ZM86.6685 220.55L81.2325 207.95H84.3825L89.1345 219.11H87.2805L92.1045 207.95H95.0025L89.5485 220.55H86.6685ZM96.0545 220.55V207.95H101.509C102.637 207.95 103.609 208.136 104.425 208.508C105.241 208.868 105.871 209.39 106.315 210.074C106.759 210.758 106.981 211.574 106.981 212.522C106.981 213.458 106.759 214.268 106.315 214.952C105.871 215.636 105.241 216.164 104.425 216.536C103.609 216.896 102.637 217.076 101.509 217.076H97.6745L98.9705 215.762V220.55H96.0545ZM98.9705 216.086L97.6745 214.7H101.347C102.247 214.7 102.919 214.508 103.363 214.124C103.807 213.74 104.029 213.206 104.029 212.522C104.029 211.826 103.807 211.286 103.363 210.902C102.919 210.518 102.247 210.326 101.347 210.326H97.6745L98.9705 208.94V216.086Z" fill="#33B1B8"/>
<g filter="url(#filter5_d_2002_5026)">
<circle cx="32" cy="262.55" r="16" fill="#1476F2"/>
</g>
<circle cx="32" cy="262.55" r="8" fill="white"/>
<path d="M65.9178 268.55V255.95H71.3718C72.4998 255.95 73.4718 256.136 74.2878 256.508C75.1038 256.868 75.7338 257.39 76.1778 258.074C76.6218 258.758 76.8438 259.574 76.8438 260.522C76.8438 261.458 76.6218 262.268 76.1778 262.952C75.7338 263.636 75.1038 264.164 74.2878 264.536C73.4718 264.896 72.4998 265.076 71.3718 265.076H67.5378L68.8338 263.762V268.55H65.9178ZM68.8338 264.086L67.5378 262.7H71.2098C72.1098 262.7 72.7818 262.508 73.2258 262.124C73.6698 261.74 73.8918 261.206 73.8918 260.522C73.8918 259.826 73.6698 259.286 73.2258 258.902C72.7818 258.518 72.1098 258.326 71.2098 258.326H67.5378L68.8338 256.94V264.086ZM78.9034 268.55V255.194H81.7114V268.55H78.9034ZM90.2575 268.55V266.66L90.0775 266.246V262.862C90.0775 262.262 89.8915 261.794 89.5195 261.458C89.1595 261.122 88.6015 260.954 87.8455 260.954C87.3295 260.954 86.8195 261.038 86.3155 261.206C85.8235 261.362 85.4035 261.578 85.0555 261.854L84.0475 259.892C84.5755 259.52 85.2115 259.232 85.9555 259.028C86.6995 258.824 87.4555 258.722 88.2235 258.722C89.6995 258.722 90.8455 259.07 91.6615 259.766C92.4775 260.462 92.8855 261.548 92.8855 263.024V268.55H90.2575ZM87.3055 268.694C86.5495 268.694 85.9015 268.568 85.3615 268.316C84.8215 268.052 84.4075 267.698 84.1195 267.254C83.8315 266.81 83.6875 266.312 83.6875 265.76C83.6875 265.184 83.8255 264.68 84.1015 264.248C84.3895 263.816 84.8395 263.48 85.4515 263.24C86.0635 262.988 86.8615 262.862 87.8455 262.862H90.4195V264.5H88.1515C87.4915 264.5 87.0355 264.608 86.7835 264.824C86.5435 265.04 86.4235 265.31 86.4235 265.634C86.4235 265.994 86.5615 266.282 86.8375 266.498C87.1255 266.702 87.5155 266.804 88.0075 266.804C88.4755 266.804 88.8955 266.696 89.2675 266.48C89.6395 266.252 89.9095 265.922 90.0775 265.49L90.5095 266.786C90.3055 267.41 89.9335 267.884 89.3935 268.208C88.8535 268.532 88.1575 268.694 87.3055 268.694ZM101.313 258.722C102.081 258.722 102.765 258.878 103.365 259.19C103.977 259.49 104.457 259.958 104.805 260.594C105.153 261.218 105.327 262.022 105.327 263.006V268.55H102.519V263.438C102.519 262.658 102.345 262.082 101.997 261.71C101.661 261.338 101.181 261.152 100.557 261.152C100.113 261.152 99.7109 261.248 99.3509 261.44C99.0029 261.62 98.7269 261.902 98.5229 262.286C98.3309 262.67 98.2349 263.162 98.2349 263.762V268.55H95.4269V258.866H98.1089V261.548L97.6049 260.738C97.9529 260.09 98.4509 259.592 99.0989 259.244C99.7469 258.896 100.485 258.722 101.313 258.722Z" fill="#1476F2"/>
<g filter="url(#filter6_d_2002_5026)">
<circle cx="32" cy="310.55" r="16" fill="#1476F2"/>
</g>
<circle cx="32" cy="310.55" r="8" fill="white"/>
<path d="M65.7879 316.55V303.95H71.9439C73.5279 303.95 74.7159 304.25 75.5079 304.85C76.3119 305.45 76.7139 306.242 76.7139 307.226C76.7139 307.886 76.5519 308.462 76.2279 308.954C75.9039 309.434 75.4599 309.806 74.8959 310.07C74.3319 310.334 73.6839 310.466 72.9519 310.466L73.2939 309.728C74.0859 309.728 74.7879 309.86 75.3999 310.124C76.0119 310.376 76.4859 310.754 76.8219 311.258C77.1699 311.762 77.3439 312.38 77.3439 313.112C77.3439 314.192 76.9179 315.038 76.0659 315.65C75.2139 316.25 73.9599 316.55 72.3039 316.55H65.7879ZM68.6859 314.354H72.0879C72.8439 314.354 73.4139 314.234 73.7979 313.994C74.1939 313.742 74.3919 313.346 74.3919 312.806C74.3919 312.278 74.1939 311.888 73.7979 311.636C73.4139 311.372 72.8439 311.24 72.0879 311.24H68.4699V309.116H71.5839C72.2919 309.116 72.8319 308.996 73.2039 308.756C73.5879 308.504 73.7799 308.126 73.7799 307.622C73.7799 307.13 73.5879 306.764 73.2039 306.524C72.8319 306.272 72.2919 306.146 71.5839 306.146H68.6859V314.354ZM83.4396 316.694C82.6356 316.694 81.9156 316.538 81.2796 316.226C80.6556 315.914 80.1696 315.44 79.8216 314.804C79.4736 314.156 79.2996 313.334 79.2996 312.338V306.866H82.1076V311.924C82.1076 312.728 82.2756 313.322 82.6116 313.706C82.9596 314.078 83.4456 314.264 84.0696 314.264C84.5016 314.264 84.8856 314.174 85.2216 313.994C85.5576 313.802 85.8216 313.514 86.0136 313.13C86.2056 312.734 86.3016 312.242 86.3016 311.654V306.866H89.1096V316.55H86.4456V313.886L86.9316 314.66C86.6076 315.332 86.1276 315.842 85.4916 316.19C84.8676 316.526 84.1836 316.694 83.4396 316.694ZM91.711 316.55V306.866H94.519V316.55H91.711ZM93.115 305.516C92.599 305.516 92.179 305.366 91.855 305.066C91.531 304.766 91.369 304.394 91.369 303.95C91.369 303.506 91.531 303.134 91.855 302.834C92.179 302.534 92.599 302.384 93.115 302.384C93.631 302.384 94.051 302.528 94.375 302.816C94.699 303.092 94.861 303.452 94.861 303.896C94.861 304.364 94.699 304.754 94.375 305.066C94.063 305.366 93.643 305.516 93.115 305.516ZM97.1251 316.55V303.194H99.9331V316.55H97.1251ZM106.697 316.694C105.785 316.694 104.963 316.49 104.231 316.082C103.499 315.662 102.917 315.08 102.485 314.336C102.065 313.592 101.855 312.716 101.855 311.708C101.855 310.688 102.065 309.806 102.485 309.062C102.917 308.318 103.499 307.742 104.231 307.334C104.963 306.926 105.785 306.722 106.697 306.722C107.513 306.722 108.227 306.902 108.839 307.262C109.451 307.622 109.925 308.168 110.261 308.9C110.597 309.632 110.765 310.568 110.765 311.708C110.765 312.836 110.603 313.772 110.279 314.516C109.955 315.248 109.487 315.794 108.875 316.154C108.275 316.514 107.549 316.694 106.697 316.694ZM107.183 314.39C107.639 314.39 108.053 314.282 108.425 314.066C108.797 313.85 109.091 313.544 109.307 313.148C109.535 312.74 109.649 312.26 109.649 311.708C109.649 311.144 109.535 310.664 109.307 310.268C109.091 309.872 108.797 309.566 108.425 309.35C108.053 309.134 107.639 309.026 107.183 309.026C106.715 309.026 106.295 309.134 105.923 309.35C105.551 309.566 105.251 309.872 105.023 310.268C104.807 310.664 104.699 311.144 104.699 311.708C104.699 312.26 104.807 312.74 105.023 313.148C105.251 313.544 105.551 313.85 105.923 314.066C106.295 314.282 106.715 314.39 107.183 314.39ZM109.721 316.55V314.57L109.775 311.69L109.595 308.828V303.194H112.403V316.55H109.721Z" fill="#1476F2"/>
<g filter="url(#filter7_d_2002_5026)">
<circle cx="32" cy="358.55" r="16" fill="#1476F2"/>
</g>
<circle cx="32" cy="358.55" r="8" fill="white"/>
<path d="M68.1626 364.55V354.326H64.1306V351.95H75.1106V354.326H71.0786V364.55H68.1626ZM80.3032 364.694C79.1992 364.694 78.2272 364.478 77.3872 364.046C76.5592 363.614 75.9172 363.026 75.4612 362.282C75.0052 361.526 74.7772 360.668 74.7772 359.708C74.7772 358.736 74.9992 357.878 75.4432 357.134C75.8992 356.378 76.5172 355.79 77.2972 355.37C78.0772 354.938 78.9592 354.722 79.9432 354.722C80.8912 354.722 81.7432 354.926 82.4992 355.334C83.2672 355.73 83.8732 356.306 84.3172 357.062C84.7612 357.806 84.9832 358.7 84.9832 359.744C84.9832 359.852 84.9772 359.978 84.9652 360.122C84.9532 360.254 84.9412 360.38 84.9292 360.5H77.0632V358.862H83.4532L82.3732 359.348C82.3732 358.844 82.2712 358.406 82.0672 358.034C81.8632 357.662 81.5812 357.374 81.2212 357.17C80.8612 356.954 80.4412 356.846 79.9612 356.846C79.4812 356.846 79.0552 356.954 78.6832 357.17C78.3232 357.374 78.0412 357.668 77.8372 358.052C77.6332 358.424 77.5312 358.868 77.5312 359.384V359.816C77.5312 360.344 77.6452 360.812 77.8732 361.22C78.1132 361.616 78.4432 361.922 78.8632 362.138C79.2952 362.342 79.7992 362.444 80.3752 362.444C80.8912 362.444 81.3412 362.366 81.7252 362.21C82.1212 362.054 82.4812 361.82 82.8052 361.508L84.2992 363.128C83.8552 363.632 83.2972 364.022 82.6252 364.298C81.9532 364.562 81.1792 364.694 80.3032 364.694ZM90.1106 364.694C89.2826 364.694 88.4846 364.598 87.7166 364.406C86.9606 364.202 86.3606 363.95 85.9166 363.65L86.8526 361.634C87.2966 361.91 87.8186 362.138 88.4186 362.318C89.0306 362.486 89.6306 362.57 90.2186 362.57C90.8666 362.57 91.3226 362.492 91.5866 362.336C91.8626 362.18 92.0006 361.964 92.0006 361.688C92.0006 361.46 91.8926 361.292 91.6766 361.184C91.4726 361.064 91.1966 360.974 90.8486 360.914C90.5006 360.854 90.1166 360.794 89.6966 360.734C89.2886 360.674 88.8746 360.596 88.4546 360.5C88.0346 360.392 87.6506 360.236 87.3026 360.032C86.9546 359.828 86.6726 359.552 86.4566 359.204C86.2526 358.856 86.1506 358.406 86.1506 357.854C86.1506 357.242 86.3246 356.702 86.6726 356.234C87.0326 355.766 87.5486 355.4 88.2206 355.136C88.8926 354.86 89.6966 354.722 90.6326 354.722C91.2926 354.722 91.9646 354.794 92.6486 354.938C93.3326 355.082 93.9026 355.292 94.3586 355.568L93.4226 357.566C92.9546 357.29 92.4806 357.104 92.0006 357.008C91.5326 356.9 91.0766 356.846 90.6326 356.846C90.0086 356.846 89.5526 356.93 89.2646 357.098C88.9766 357.266 88.8326 357.482 88.8326 357.746C88.8326 357.986 88.9346 358.166 89.1386 358.286C89.3546 358.406 89.6366 358.502 89.9846 358.574C90.3326 358.646 90.7106 358.712 91.1186 358.772C91.5386 358.82 91.9586 358.898 92.3786 359.006C92.7986 359.114 93.1766 359.27 93.5126 359.474C93.8606 359.666 94.1426 359.936 94.3586 360.284C94.5746 360.62 94.6826 361.064 94.6826 361.616C94.6826 362.216 94.5026 362.75 94.1426 363.218C93.7826 363.674 93.2606 364.034 92.5766 364.298C91.9046 364.562 91.0826 364.694 90.1106 364.694ZM100.375 364.694C99.2351 364.694 98.3471 364.406 97.7111 363.83C97.0751 363.242 96.7571 362.372 96.7571 361.22V352.724H99.5651V361.184C99.5651 361.592 99.6731 361.91 99.8891 362.138C100.105 362.354 100.399 362.462 100.771 362.462C101.215 362.462 101.593 362.342 101.905 362.102L102.661 364.082C102.373 364.286 102.025 364.442 101.617 364.55C101.221 364.646 100.807 364.694 100.375 364.694ZM95.2631 357.242V355.082H101.977V357.242H95.2631Z" fill="#1476F2"/>
<g filter="url(#filter8_d_2002_5026)">
<circle cx="32" cy="406.55" r="16" fill="#1476F2"/>
</g>
<circle cx="32" cy="406.55" r="8" fill="white"/>
<path d="M65.6659 412.55V399.95H71.3899C72.7579 399.95 73.9639 400.214 75.0079 400.742C76.0519 401.258 76.8679 401.984 77.4559 402.92C78.0439 403.856 78.3379 404.966 78.3379 406.25C78.3379 407.522 78.0439 408.632 77.4559 409.58C76.8679 410.516 76.0519 411.248 75.0079 411.776C73.9639 412.292 72.7579 412.55 71.3899 412.55H65.6659ZM68.5819 410.156H71.2459C72.0859 410.156 72.8119 410 73.4239 409.688C74.0479 409.364 74.5279 408.908 74.8639 408.32C75.2119 407.732 75.3859 407.042 75.3859 406.25C75.3859 405.446 75.2119 404.756 74.8639 404.18C74.5279 403.592 74.0479 403.142 73.4239 402.83C72.8119 402.506 72.0859 402.344 71.2459 402.344H68.5819V410.156ZM85.145 412.694C84.041 412.694 83.069 412.478 82.229 412.046C81.401 411.614 80.759 411.026 80.303 410.282C79.847 409.526 79.619 408.668 79.619 407.708C79.619 406.736 79.841 405.878 80.285 405.134C80.741 404.378 81.359 403.79 82.139 403.37C82.919 402.938 83.801 402.722 84.785 402.722C85.733 402.722 86.585 402.926 87.341 403.334C88.109 403.73 88.715 404.306 89.159 405.062C89.603 405.806 89.825 406.7 89.825 407.744C89.825 407.852 89.819 407.978 89.807 408.122C89.795 408.254 89.783 408.38 89.771 408.5H81.905V406.862H88.295L87.215 407.348C87.215 406.844 87.113 406.406 86.909 406.034C86.705 405.662 86.423 405.374 86.063 405.17C85.703 404.954 85.283 404.846 84.803 404.846C84.323 404.846 83.897 404.954 83.525 405.17C83.165 405.374 82.883 405.668 82.679 406.052C82.475 406.424 82.373 406.868 82.373 407.384V407.816C82.373 408.344 82.487 408.812 82.715 409.22C82.955 409.616 83.285 409.922 83.705 410.138C84.137 410.342 84.641 410.444 85.217 410.444C85.733 410.444 86.183 410.366 86.567 410.21C86.963 410.054 87.323 409.82 87.647 409.508L89.141 411.128C88.697 411.632 88.139 412.022 87.467 412.298C86.795 412.562 86.021 412.694 85.145 412.694ZM91.6944 412.55V399.194H94.5024V412.55H91.6944ZM97.1085 412.55V402.866H99.9165V412.55H97.1085ZM98.5125 401.516C97.9965 401.516 97.5765 401.366 97.2525 401.066C96.9285 400.766 96.7665 400.394 96.7665 399.95C96.7665 399.506 96.9285 399.134 97.2525 398.834C97.5765 398.534 97.9965 398.384 98.5125 398.384C99.0285 398.384 99.4485 398.528 99.7725 398.816C100.097 399.092 100.259 399.452 100.259 399.896C100.259 400.364 100.097 400.754 99.7725 401.066C99.4605 401.366 99.0405 401.516 98.5125 401.516ZM105.151 412.55L101.083 402.866H103.981L107.365 411.2H105.925L109.435 402.866H112.135L108.049 412.55H105.151ZM117.823 412.694C116.719 412.694 115.747 412.478 114.907 412.046C114.079 411.614 113.437 411.026 112.981 410.282C112.525 409.526 112.297 408.668 112.297 407.708C112.297 406.736 112.519 405.878 112.963 405.134C113.419 404.378 114.037 403.79 114.817 403.37C115.597 402.938 116.479 402.722 117.463 402.722C118.411 402.722 119.263 402.926 120.019 403.334C120.787 403.73 121.393 404.306 121.837 405.062C122.281 405.806 122.503 406.7 122.503 407.744C122.503 407.852 122.497 407.978 122.485 408.122C122.473 408.254 122.461 408.38 122.449 408.5H114.583V406.862H120.973L119.893 407.348C119.893 406.844 119.791 406.406 119.587 406.034C119.383 405.662 119.101 405.374 118.741 405.17C118.381 404.954 117.961 404.846 117.481 404.846C117.001 404.846 116.575 404.954 116.203 405.17C115.843 405.374 115.561 405.668 115.357 406.052C115.153 406.424 115.051 406.868 115.051 407.384V407.816C115.051 408.344 115.165 408.812 115.393 409.22C115.633 409.616 115.963 409.922 116.383 410.138C116.815 410.342 117.319 410.444 117.895 410.444C118.411 410.444 118.861 410.366 119.245 410.21C119.641 410.054 120.001 409.82 120.325 409.508L121.819 411.128C121.375 411.632 120.817 412.022 120.145 412.298C119.473 412.562 118.699 412.694 117.823 412.694ZM124.372 412.55V402.866H127.054V405.602L126.676 404.81C126.964 404.126 127.426 403.61 128.062 403.262C128.698 402.902 129.472 402.722 130.384 402.722V405.314C130.264 405.302 130.156 405.296 130.06 405.296C129.964 405.284 129.862 405.278 129.754 405.278C128.986 405.278 128.362 405.5 127.882 405.944C127.414 406.376 127.18 407.054 127.18 407.978V412.55H124.372Z" fill="#1476F2"/>
<g filter="url(#filter9_d_2002_5026)">
<circle cx="32" cy="550.55" r="16" fill="#4B3DDB"/>
</g>
<circle cx="32" cy="550.55" r="8" fill="white"/>
<path d="M72.0388 556.766C71.0428 556.766 70.1188 556.604 69.2668 556.28C68.4268 555.956 67.6948 555.5 67.0708 554.912C66.4588 554.324 65.9788 553.634 65.6308 552.842C65.2948 552.05 65.1268 551.186 65.1268 550.25C65.1268 549.314 65.2948 548.45 65.6308 547.658C65.9788 546.866 66.4648 546.176 67.0888 545.588C67.7128 545 68.4448 544.544 69.2848 544.22C70.1248 543.896 71.0368 543.734 72.0208 543.734C73.0168 543.734 73.9288 543.896 74.7568 544.22C75.5968 544.544 76.3228 545 76.9348 545.588C77.5588 546.176 78.0448 546.866 78.3928 547.658C78.7408 548.438 78.9148 549.302 78.9148 550.25C78.9148 551.186 78.7408 552.056 78.3928 552.86C78.0448 553.652 77.5588 554.342 76.9348 554.93C76.3228 555.506 75.5968 555.956 74.7568 556.28C73.9288 556.604 73.0228 556.766 72.0388 556.766ZM72.0208 554.282C72.5848 554.282 73.1008 554.186 73.5688 553.994C74.0488 553.802 74.4688 553.526 74.8288 553.166C75.1888 552.806 75.4648 552.38 75.6568 551.888C75.8608 551.396 75.9628 550.85 75.9628 550.25C75.9628 549.65 75.8608 549.104 75.6568 548.612C75.4648 548.12 75.1888 547.694 74.8288 547.334C74.4808 546.974 74.0668 546.698 73.5868 546.506C73.1068 546.314 72.5848 546.218 72.0208 546.218C71.4568 546.218 70.9348 546.314 70.4548 546.506C69.9868 546.698 69.5728 546.974 69.2128 547.334C68.8528 547.694 68.5708 548.12 68.3668 548.612C68.1748 549.104 68.0788 549.65 68.0788 550.25C68.0788 550.838 68.1748 551.384 68.3668 551.888C68.5708 552.38 68.8468 552.806 69.1948 553.166C69.5548 553.526 69.9748 553.802 70.4548 553.994C70.9348 554.186 71.4568 554.282 72.0208 554.282ZM86.6323 556.694C85.8163 556.694 85.1023 556.514 84.4903 556.154C83.8783 555.794 83.3983 555.248 83.0503 554.516C82.7143 553.772 82.5463 552.836 82.5463 551.708C82.5463 550.568 82.7083 549.632 83.0323 548.9C83.3563 548.168 83.8243 547.622 84.4363 547.262C85.0483 546.902 85.7803 546.722 86.6323 546.722C87.5443 546.722 88.3603 546.932 89.0803 547.352C89.8123 547.76 90.3883 548.336 90.8083 549.08C91.2403 549.824 91.4563 550.7 91.4563 551.708C91.4563 552.728 91.2403 553.61 90.8083 554.354C90.3883 555.098 89.8123 555.674 89.0803 556.082C88.3603 556.49 87.5443 556.694 86.6323 556.694ZM80.9083 560.042V546.866H83.5903V548.846L83.5363 551.726L83.7163 554.588V560.042H80.9083ZM86.1463 554.39C86.6143 554.39 87.0283 554.282 87.3883 554.066C87.7603 553.85 88.0543 553.544 88.2703 553.148C88.4983 552.74 88.6123 552.26 88.6123 551.708C88.6123 551.144 88.4983 550.664 88.2703 550.268C88.0543 549.872 87.7603 549.566 87.3883 549.35C87.0283 549.134 86.6143 549.026 86.1463 549.026C85.6783 549.026 85.2583 549.134 84.8863 549.35C84.5143 549.566 84.2203 549.872 84.0043 550.268C83.7883 550.664 83.6803 551.144 83.6803 551.708C83.6803 552.26 83.7883 552.74 84.0043 553.148C84.2203 553.544 84.5143 553.85 84.8863 554.066C85.2583 554.282 85.6783 554.39 86.1463 554.39ZM97.296 556.694C96.156 556.694 95.268 556.406 94.632 555.83C93.996 555.242 93.678 554.372 93.678 553.22V544.724H96.486V553.184C96.486 553.592 96.594 553.91 96.81 554.138C97.026 554.354 97.32 554.462 97.692 554.462C98.136 554.462 98.514 554.342 98.826 554.102L99.582 556.082C99.294 556.286 98.946 556.442 98.538 556.55C98.142 556.646 97.728 556.694 97.296 556.694ZM92.184 549.242V547.082H98.898V549.242H92.184ZM101.158 556.55V546.866H103.966V556.55H101.158ZM102.562 545.516C102.046 545.516 101.626 545.366 101.302 545.066C100.978 544.766 100.816 544.394 100.816 543.95C100.816 543.506 100.978 543.134 101.302 542.834C101.626 542.534 102.046 542.384 102.562 542.384C103.078 542.384 103.498 542.528 103.822 542.816C104.146 543.092 104.308 543.452 104.308 543.896C104.308 544.364 104.146 544.754 103.822 545.066C103.51 545.366 103.09 545.516 102.562 545.516ZM118.974 546.722C119.742 546.722 120.42 546.878 121.008 547.19C121.608 547.49 122.076 547.958 122.412 548.594C122.76 549.218 122.934 550.022 122.934 551.006V556.55H120.126V551.438C120.126 550.658 119.964 550.082 119.64 549.71C119.316 549.338 118.86 549.152 118.272 549.152C117.864 549.152 117.498 549.248 117.174 549.44C116.85 549.62 116.598 549.896 116.418 550.268C116.238 550.64 116.148 551.114 116.148 551.69V556.55H113.34V551.438C113.34 550.658 113.178 550.082 112.854 549.71C112.542 549.338 112.092 549.152 111.504 549.152C111.096 549.152 110.73 549.248 110.406 549.44C110.082 549.62 109.83 549.896 109.65 550.268C109.47 550.64 109.38 551.114 109.38 551.69V556.55H106.572V546.866H109.254V549.512L108.75 548.738C109.086 548.078 109.56 547.58 110.172 547.244C110.796 546.896 111.504 546.722 112.296 546.722C113.184 546.722 113.958 546.95 114.618 547.406C115.29 547.85 115.734 548.534 115.95 549.458L114.96 549.188C115.284 548.432 115.8 547.832 116.508 547.388C117.228 546.944 118.05 546.722 118.974 546.722ZM125.451 556.55V546.866H128.259V556.55H125.451ZM126.855 545.516C126.339 545.516 125.919 545.366 125.595 545.066C125.271 544.766 125.109 544.394 125.109 543.95C125.109 543.506 125.271 543.134 125.595 542.834C125.919 542.534 126.339 542.384 126.855 542.384C127.371 542.384 127.791 542.528 128.115 542.816C128.439 543.092 128.601 543.452 128.601 543.896C128.601 544.364 128.439 544.754 128.115 545.066C127.803 545.366 127.383 545.516 126.855 545.516ZM130.199 556.55V554.858L135.923 548.09L136.409 549.026H130.325V546.866H138.677V548.558L132.953 555.326L132.449 554.39H138.839V556.55H130.199ZM145.322 556.694C144.218 556.694 143.246 556.478 142.406 556.046C141.578 555.614 140.936 555.026 140.48 554.282C140.024 553.526 139.796 552.668 139.796 551.708C139.796 550.736 140.018 549.878 140.462 549.134C140.918 548.378 141.536 547.79 142.316 547.37C143.096 546.938 143.978 546.722 144.962 546.722C145.91 546.722 146.762 546.926 147.518 547.334C148.286 547.73 148.892 548.306 149.336 549.062C149.78 549.806 150.002 550.7 150.002 551.744C150.002 551.852 149.996 551.978 149.984 552.122C149.972 552.254 149.96 552.38 149.948 552.5H142.082V550.862H148.472L147.392 551.348C147.392 550.844 147.29 550.406 147.086 550.034C146.882 549.662 146.6 549.374 146.24 549.17C145.88 548.954 145.46 548.846 144.98 548.846C144.5 548.846 144.074 548.954 143.702 549.17C143.342 549.374 143.06 549.668 142.856 550.052C142.652 550.424 142.55 550.868 142.55 551.384V551.816C142.55 552.344 142.664 552.812 142.892 553.22C143.132 553.616 143.462 553.922 143.882 554.138C144.314 554.342 144.818 554.444 145.394 554.444C145.91 554.444 146.36 554.366 146.744 554.21C147.14 554.054 147.5 553.82 147.824 553.508L149.318 555.128C148.874 555.632 148.316 556.022 147.644 556.298C146.972 556.562 146.198 556.694 145.322 556.694Z" fill="#4B3DDB"/>
<g filter="url(#filter10_d_2002_5026)">
<circle cx="32" cy="598.55" r="16" fill="#4B3DDB"/>
</g>
<circle cx="32" cy="598.55" r="8" fill="white"/>
<path d="M69.9719 604.766C68.9639 604.766 67.9979 604.634 67.0739 604.37C66.1499 604.094 65.4059 603.74 64.8419 603.308L65.8319 601.112C66.3719 601.496 67.0079 601.814 67.7399 602.066C68.4839 602.306 69.2339 602.426 69.9899 602.426C70.5659 602.426 71.0279 602.372 71.3759 602.264C71.7359 602.144 71.9999 601.982 72.1679 601.778C72.3359 601.574 72.4199 601.34 72.4199 601.076C72.4199 600.74 72.2879 600.476 72.0239 600.284C71.7599 600.08 71.4119 599.918 70.9799 599.798C70.5479 599.666 70.0679 599.546 69.5399 599.438C69.0239 599.318 68.5019 599.174 67.9739 599.006C67.4579 598.838 66.9839 598.622 66.5519 598.358C66.1199 598.094 65.7659 597.746 65.4899 597.314C65.2259 596.882 65.0939 596.33 65.0939 595.658C65.0939 594.938 65.2859 594.284 65.6699 593.696C66.0659 593.096 66.6539 592.622 67.4339 592.274C68.2259 591.914 69.2159 591.734 70.4039 591.734C71.1959 591.734 71.9759 591.83 72.7439 592.022C73.5119 592.202 74.1899 592.478 74.7779 592.85L73.8779 595.064C73.2899 594.728 72.7019 594.482 72.1139 594.326C71.5259 594.158 70.9499 594.074 70.3859 594.074C69.8219 594.074 69.3599 594.14 68.9999 594.272C68.6399 594.404 68.3819 594.578 68.2259 594.794C68.0699 594.998 67.9919 595.238 67.9919 595.514C67.9919 595.838 68.1239 596.102 68.3879 596.306C68.6519 596.498 68.9999 596.654 69.4319 596.774C69.8639 596.894 70.3379 597.014 70.8539 597.134C71.3819 597.254 71.9039 597.392 72.4199 597.548C72.9479 597.704 73.4279 597.914 73.8599 598.178C74.2919 598.442 74.6399 598.79 74.9039 599.222C75.1799 599.654 75.3179 600.2 75.3179 600.86C75.3179 601.568 75.1199 602.216 74.7239 602.804C74.3279 603.392 73.7339 603.866 72.9419 604.226C72.1619 604.586 71.1719 604.766 69.9719 604.766ZM81.1984 604.694C80.3944 604.694 79.6744 604.538 79.0384 604.226C78.4144 603.914 77.9284 603.44 77.5804 602.804C77.2324 602.156 77.0584 601.334 77.0584 600.338V594.866H79.8664V599.924C79.8664 600.728 80.0344 601.322 80.3704 601.706C80.7184 602.078 81.2044 602.264 81.8284 602.264C82.2604 602.264 82.6444 602.174 82.9804 601.994C83.3164 601.802 83.5804 601.514 83.7724 601.13C83.9644 600.734 84.0604 600.242 84.0604 599.654V594.866H86.8684V604.55H84.2044V601.886L84.6904 602.66C84.3664 603.332 83.8864 603.842 83.2504 604.19C82.6264 604.526 81.9424 604.694 81.1984 604.694ZM95.1938 604.694C94.3778 604.694 93.6638 604.514 93.0518 604.154C92.4398 603.794 91.9598 603.248 91.6118 602.516C91.2758 601.772 91.1078 600.836 91.1078 599.708C91.1078 598.568 91.2698 597.632 91.5938 596.9C91.9178 596.168 92.3858 595.622 92.9978 595.262C93.6098 594.902 94.3418 594.722 95.1938 594.722C96.1058 594.722 96.9218 594.932 97.6418 595.352C98.3738 595.76 98.9498 596.336 99.3698 597.08C99.8018 597.824 100.018 598.7 100.018 599.708C100.018 600.728 99.8018 601.61 99.3698 602.354C98.9498 603.098 98.3738 603.674 97.6418 604.082C96.9218 604.49 96.1058 604.694 95.1938 604.694ZM89.4698 608.042V594.866H92.1518V596.846L92.0978 599.726L92.2778 602.588V608.042H89.4698ZM94.7078 602.39C95.1758 602.39 95.5898 602.282 95.9498 602.066C96.3218 601.85 96.6158 601.544 96.8318 601.148C97.0598 600.74 97.1738 600.26 97.1738 599.708C97.1738 599.144 97.0598 598.664 96.8318 598.268C96.6158 597.872 96.3218 597.566 95.9498 597.35C95.5898 597.134 95.1758 597.026 94.7078 597.026C94.2398 597.026 93.8198 597.134 93.4478 597.35C93.0758 597.566 92.7818 597.872 92.5658 598.268C92.3498 598.664 92.2418 599.144 92.2418 599.708C92.2418 600.26 92.3498 600.74 92.5658 601.148C92.7818 601.544 93.0758 601.85 93.4478 602.066C93.8198 602.282 94.2398 602.39 94.7078 602.39ZM107.622 604.694C106.806 604.694 106.092 604.514 105.48 604.154C104.868 603.794 104.388 603.248 104.04 602.516C103.704 601.772 103.536 600.836 103.536 599.708C103.536 598.568 103.698 597.632 104.022 596.9C104.346 596.168 104.814 595.622 105.426 595.262C106.038 594.902 106.77 594.722 107.622 594.722C108.534 594.722 109.35 594.932 110.07 595.352C110.802 595.76 111.378 596.336 111.798 597.08C112.23 597.824 112.446 598.7 112.446 599.708C112.446 600.728 112.23 601.61 111.798 602.354C111.378 603.098 110.802 603.674 110.07 604.082C109.35 604.49 108.534 604.694 107.622 604.694ZM101.898 608.042V594.866H104.58V596.846L104.526 599.726L104.706 602.588V608.042H101.898ZM107.136 602.39C107.604 602.39 108.018 602.282 108.378 602.066C108.75 601.85 109.044 601.544 109.26 601.148C109.488 600.74 109.602 600.26 109.602 599.708C109.602 599.144 109.488 598.664 109.26 598.268C109.044 597.872 108.75 597.566 108.378 597.35C108.018 597.134 107.604 597.026 107.136 597.026C106.668 597.026 106.248 597.134 105.876 597.35C105.504 597.566 105.21 597.872 104.994 598.268C104.778 598.664 104.67 599.144 104.67 599.708C104.67 600.26 104.778 600.74 104.994 601.148C105.21 601.544 105.504 601.85 105.876 602.066C106.248 602.282 106.668 602.39 107.136 602.39ZM118.933 604.694C117.901 604.694 116.983 604.478 116.179 604.046C115.387 603.614 114.757 603.026 114.289 602.282C113.833 601.526 113.605 600.668 113.605 599.708C113.605 598.736 113.833 597.878 114.289 597.134C114.757 596.378 115.387 595.79 116.179 595.37C116.983 594.938 117.901 594.722 118.933 594.722C119.953 594.722 120.865 594.938 121.669 595.37C122.473 595.79 123.103 596.372 123.559 597.116C124.015 597.86 124.243 598.724 124.243 599.708C124.243 600.668 124.015 601.526 123.559 602.282C123.103 603.026 122.473 603.614 121.669 604.046C120.865 604.478 119.953 604.694 118.933 604.694ZM118.933 602.39C119.401 602.39 119.821 602.282 120.193 602.066C120.565 601.85 120.859 601.544 121.075 601.148C121.291 600.74 121.399 600.26 121.399 599.708C121.399 599.144 121.291 598.664 121.075 598.268C120.859 597.872 120.565 597.566 120.193 597.35C119.821 597.134 119.401 597.026 118.933 597.026C118.465 597.026 118.045 597.134 117.673 597.35C117.301 597.566 117.001 597.872 116.773 598.268C116.557 598.664 116.449 599.144 116.449 599.708C116.449 600.26 116.557 600.74 116.773 601.148C117.001 601.544 117.301 601.85 117.673 602.066C118.045 602.282 118.465 602.39 118.933 602.39ZM126.12 604.55V594.866H128.802V597.602L128.424 596.81C128.712 596.126 129.174 595.61 129.81 595.262C130.446 594.902 131.22 594.722 132.132 594.722V597.314C132.012 597.302 131.904 597.296 131.808 597.296C131.712 597.284 131.61 597.278 131.502 597.278C130.734 597.278 130.11 597.5 129.63 597.944C129.162 598.376 128.928 599.054 128.928 599.978V604.55H126.12ZM138.096 604.694C136.956 604.694 136.068 604.406 135.432 603.83C134.796 603.242 134.478 602.372 134.478 601.22V592.724H137.286V601.184C137.286 601.592 137.394 601.91 137.61 602.138C137.826 602.354 138.12 602.462 138.492 602.462C138.936 602.462 139.314 602.342 139.626 602.102L140.382 604.082C140.094 604.286 139.746 604.442 139.338 604.55C138.942 604.646 138.528 604.694 138.096 604.694ZM132.984 597.242V595.082H139.698V597.242H132.984Z" fill="#4B3DDB"/>
<g filter="url(#filter11_d_2002_5026)">
<circle cx="32" cy="646.55" r="16" fill="#9E5DC7"/>
</g>
<circle cx="32" cy="646.55" r="8" fill="white"/>
<path d="M74.2551 639.95H77.1711V652.55H74.2551V639.95ZM68.5311 652.55H65.6151V639.95H68.5311V652.55ZM74.4711 647.384H68.3151V644.918H74.4711V647.384ZM85.8942 652.55V650.66L85.7142 650.246V646.862C85.7142 646.262 85.5282 645.794 85.1562 645.458C84.7962 645.122 84.2382 644.954 83.4822 644.954C82.9662 644.954 82.4562 645.038 81.9522 645.206C81.4602 645.362 81.0402 645.578 80.6922 645.854L79.6842 643.892C80.2122 643.52 80.8482 643.232 81.5922 643.028C82.3362 642.824 83.0922 642.722 83.8602 642.722C85.3362 642.722 86.4822 643.07 87.2982 643.766C88.1142 644.462 88.5222 645.548 88.5222 647.024V652.55H85.8942ZM82.9422 652.694C82.1862 652.694 81.5382 652.568 80.9982 652.316C80.4582 652.052 80.0442 651.698 79.7562 651.254C79.4682 650.81 79.3242 650.312 79.3242 649.76C79.3242 649.184 79.4622 648.68 79.7382 648.248C80.0262 647.816 80.4762 647.48 81.0882 647.24C81.7002 646.988 82.4982 646.862 83.4822 646.862H86.0562V648.5H83.7882C83.1282 648.5 82.6722 648.608 82.4202 648.824C82.1802 649.04 82.0602 649.31 82.0602 649.634C82.0602 649.994 82.1982 650.282 82.4742 650.498C82.7622 650.702 83.1522 650.804 83.6442 650.804C84.1122 650.804 84.5322 650.696 84.9042 650.48C85.2762 650.252 85.5462 649.922 85.7142 649.49L86.1462 650.786C85.9422 651.41 85.5702 651.884 85.0302 652.208C84.4902 652.532 83.7942 652.694 82.9422 652.694ZM96.9496 642.722C97.7176 642.722 98.4016 642.878 99.0016 643.19C99.6136 643.49 100.094 643.958 100.442 644.594C100.79 645.218 100.964 646.022 100.964 647.006V652.55H98.1556V647.438C98.1556 646.658 97.9816 646.082 97.6336 645.71C97.2976 645.338 96.8176 645.152 96.1936 645.152C95.7496 645.152 95.3476 645.248 94.9876 645.44C94.6396 645.62 94.3636 645.902 94.1596 646.286C93.9676 646.67 93.8716 647.162 93.8716 647.762V652.55H91.0636V642.866H93.7456V645.548L93.2416 644.738C93.5896 644.09 94.0876 643.592 94.7356 643.244C95.3836 642.896 96.1216 642.722 96.9496 642.722ZM107.737 652.694C106.825 652.694 106.003 652.49 105.271 652.082C104.539 651.662 103.957 651.08 103.525 650.336C103.105 649.592 102.895 648.716 102.895 647.708C102.895 646.688 103.105 645.806 103.525 645.062C103.957 644.318 104.539 643.742 105.271 643.334C106.003 642.926 106.825 642.722 107.737 642.722C108.553 642.722 109.267 642.902 109.879 643.262C110.491 643.622 110.965 644.168 111.301 644.9C111.637 645.632 111.805 646.568 111.805 647.708C111.805 648.836 111.643 649.772 111.319 650.516C110.995 651.248 110.527 651.794 109.915 652.154C109.315 652.514 108.589 652.694 107.737 652.694ZM108.223 650.39C108.679 650.39 109.093 650.282 109.465 650.066C109.837 649.85 110.131 649.544 110.347 649.148C110.575 648.74 110.689 648.26 110.689 647.708C110.689 647.144 110.575 646.664 110.347 646.268C110.131 645.872 109.837 645.566 109.465 645.35C109.093 645.134 108.679 645.026 108.223 645.026C107.755 645.026 107.335 645.134 106.963 645.35C106.591 645.566 106.291 645.872 106.063 646.268C105.847 646.664 105.739 647.144 105.739 647.708C105.739 648.26 105.847 648.74 106.063 649.148C106.291 649.544 106.591 649.85 106.963 650.066C107.335 650.282 107.755 650.39 108.223 650.39ZM110.761 652.55V650.57L110.815 647.69L110.635 644.828V639.194H113.443V652.55H110.761ZM120.65 652.694C119.618 652.694 118.7 652.478 117.896 652.046C117.104 651.614 116.474 651.026 116.006 650.282C115.55 649.526 115.322 648.668 115.322 647.708C115.322 646.736 115.55 645.878 116.006 645.134C116.474 644.378 117.104 643.79 117.896 643.37C118.7 642.938 119.618 642.722 120.65 642.722C121.67 642.722 122.582 642.938 123.386 643.37C124.19 643.79 124.82 644.372 125.276 645.116C125.732 645.86 125.96 646.724 125.96 647.708C125.96 648.668 125.732 649.526 125.276 650.282C124.82 651.026 124.19 651.614 123.386 652.046C122.582 652.478 121.67 652.694 120.65 652.694ZM120.65 650.39C121.118 650.39 121.538 650.282 121.91 650.066C122.282 649.85 122.576 649.544 122.792 649.148C123.008 648.74 123.116 648.26 123.116 647.708C123.116 647.144 123.008 646.664 122.792 646.268C122.576 645.872 122.282 645.566 121.91 645.35C121.538 645.134 121.118 645.026 120.65 645.026C120.182 645.026 119.762 645.134 119.39 645.35C119.018 645.566 118.718 645.872 118.49 646.268C118.274 646.664 118.166 647.144 118.166 647.708C118.166 648.26 118.274 648.74 118.49 649.148C118.718 649.544 119.018 649.85 119.39 650.066C119.762 650.282 120.182 650.39 120.65 650.39ZM130.201 652.55L126.133 642.866H129.031L132.415 651.2H130.975L134.485 642.866H137.185L133.099 652.55H130.201ZM142.873 652.694C141.769 652.694 140.797 652.478 139.957 652.046C139.129 651.614 138.487 651.026 138.031 650.282C137.575 649.526 137.347 648.668 137.347 647.708C137.347 646.736 137.569 645.878 138.013 645.134C138.469 644.378 139.087 643.79 139.867 643.37C140.647 642.938 141.529 642.722 142.513 642.722C143.461 642.722 144.313 642.926 145.069 643.334C145.837 643.73 146.443 644.306 146.887 645.062C147.331 645.806 147.553 646.7 147.553 647.744C147.553 647.852 147.547 647.978 147.535 648.122C147.523 648.254 147.511 648.38 147.499 648.5H139.633V646.862H146.023L144.943 647.348C144.943 646.844 144.841 646.406 144.637 646.034C144.433 645.662 144.151 645.374 143.791 645.17C143.431 644.954 143.011 644.846 142.531 644.846C142.051 644.846 141.625 644.954 141.253 645.17C140.893 645.374 140.611 645.668 140.407 646.052C140.203 646.424 140.101 646.868 140.101 647.384V647.816C140.101 648.344 140.215 648.812 140.443 649.22C140.683 649.616 141.013 649.922 141.433 650.138C141.865 650.342 142.369 650.444 142.945 650.444C143.461 650.444 143.911 650.366 144.295 650.21C144.691 650.054 145.051 649.82 145.375 649.508L146.869 651.128C146.425 651.632 145.867 652.022 145.195 652.298C144.523 652.562 143.749 652.694 142.873 652.694ZM149.423 652.55V642.866H152.105V645.602L151.727 644.81C152.015 644.126 152.477 643.61 153.113 643.262C153.749 642.902 154.523 642.722 155.435 642.722V645.314C155.315 645.302 155.207 645.296 155.111 645.296C155.015 645.284 154.913 645.278 154.805 645.278C154.037 645.278 153.413 645.5 152.933 645.944C152.465 646.376 152.231 647.054 152.231 647.978V652.55H149.423Z" fill="#9E5DC7"/>
<g filter="url(#filter12_d_2002_5026)">
<circle cx="32" cy="694.55" r="16" fill="#9E5DC7"/>
</g>
<circle cx="32" cy="694.55" r="8" fill="white"/>
<path d="M70.1233 700.766C69.1153 700.766 68.1493 700.634 67.2253 700.37C66.3013 700.094 65.5573 699.74 64.9933 699.308L65.9833 697.112C66.5233 697.496 67.1593 697.814 67.8913 698.066C68.6353 698.306 69.3853 698.426 70.1413 698.426C70.7173 698.426 71.1793 698.372 71.5273 698.264C71.8873 698.144 72.1513 697.982 72.3193 697.778C72.4873 697.574 72.5713 697.34 72.5713 697.076C72.5713 696.74 72.4393 696.476 72.1753 696.284C71.9113 696.08 71.5633 695.918 71.1313 695.798C70.6993 695.666 70.2193 695.546 69.6913 695.438C69.1753 695.318 68.6533 695.174 68.1253 695.006C67.6093 694.838 67.1353 694.622 66.7033 694.358C66.2713 694.094 65.9173 693.746 65.6413 693.314C65.3773 692.882 65.2453 692.33 65.2453 691.658C65.2453 690.938 65.4373 690.284 65.8213 689.696C66.2173 689.096 66.8053 688.622 67.5853 688.274C68.3773 687.914 69.3673 687.734 70.5553 687.734C71.3473 687.734 72.1273 687.83 72.8953 688.022C73.6633 688.202 74.3413 688.478 74.9293 688.85L74.0293 691.064C73.4413 690.728 72.8533 690.482 72.2653 690.326C71.6773 690.158 71.1013 690.074 70.5373 690.074C69.9733 690.074 69.5113 690.14 69.1513 690.272C68.7913 690.404 68.5333 690.578 68.3773 690.794C68.2213 690.998 68.1433 691.238 68.1433 691.514C68.1433 691.838 68.2753 692.102 68.5393 692.306C68.8033 692.498 69.1513 692.654 69.5833 692.774C70.0153 692.894 70.4893 693.014 71.0053 693.134C71.5333 693.254 72.0553 693.392 72.5713 693.548C73.0993 693.704 73.5793 693.914 74.0113 694.178C74.4433 694.442 74.7913 694.79 75.0553 695.222C75.3313 695.654 75.4693 696.2 75.4693 696.86C75.4693 697.568 75.2713 698.216 74.8753 698.804C74.4793 699.392 73.8853 699.866 73.0933 700.226C72.3133 700.586 71.3233 700.766 70.1233 700.766ZM81.3498 700.694C80.5458 700.694 79.8258 700.538 79.1898 700.226C78.5658 699.914 78.0798 699.44 77.7318 698.804C77.3838 698.156 77.2098 697.334 77.2098 696.338V690.866H80.0178V695.924C80.0178 696.728 80.1858 697.322 80.5218 697.706C80.8698 698.078 81.3558 698.264 81.9798 698.264C82.4118 698.264 82.7958 698.174 83.1318 697.994C83.4678 697.802 83.7318 697.514 83.9238 697.13C84.1158 696.734 84.2118 696.242 84.2118 695.654V690.866H87.0198V700.55H84.3558V697.886L84.8418 698.66C84.5178 699.332 84.0378 699.842 83.4018 700.19C82.7778 700.526 82.0938 700.694 81.3498 700.694ZM95.5072 690.722C96.2752 690.722 96.9592 690.878 97.5592 691.19C98.1712 691.49 98.6512 691.958 98.9992 692.594C99.3472 693.218 99.5212 694.022 99.5212 695.006V700.55H96.7132V695.438C96.7132 694.658 96.5392 694.082 96.1912 693.71C95.8552 693.338 95.3752 693.152 94.7512 693.152C94.3072 693.152 93.9052 693.248 93.5452 693.44C93.1972 693.62 92.9212 693.902 92.7172 694.286C92.5252 694.67 92.4292 695.162 92.4292 695.762V700.55H89.6212V690.866H92.3032V693.548L91.7992 692.738C92.1472 692.09 92.6452 691.592 93.2932 691.244C93.9412 690.896 94.6792 690.722 95.5072 690.722ZM105.325 700.694C104.497 700.694 103.699 700.598 102.931 700.406C102.175 700.202 101.575 699.95 101.131 699.65L102.067 697.634C102.511 697.91 103.033 698.138 103.633 698.318C104.245 698.486 104.845 698.57 105.433 698.57C106.081 698.57 106.537 698.492 106.801 698.336C107.077 698.18 107.215 697.964 107.215 697.688C107.215 697.46 107.107 697.292 106.891 697.184C106.687 697.064 106.411 696.974 106.063 696.914C105.715 696.854 105.331 696.794 104.911 696.734C104.503 696.674 104.089 696.596 103.669 696.5C103.249 696.392 102.865 696.236 102.517 696.032C102.169 695.828 101.887 695.552 101.671 695.204C101.467 694.856 101.365 694.406 101.365 693.854C101.365 693.242 101.539 692.702 101.887 692.234C102.247 691.766 102.763 691.4 103.435 691.136C104.107 690.86 104.911 690.722 105.847 690.722C106.507 690.722 107.179 690.794 107.863 690.938C108.547 691.082 109.117 691.292 109.573 691.568L108.637 693.566C108.169 693.29 107.695 693.104 107.215 693.008C106.747 692.9 106.291 692.846 105.847 692.846C105.223 692.846 104.767 692.93 104.479 693.098C104.191 693.266 104.047 693.482 104.047 693.746C104.047 693.986 104.149 694.166 104.353 694.286C104.569 694.406 104.851 694.502 105.199 694.574C105.547 694.646 105.925 694.712 106.333 694.772C106.753 694.82 107.173 694.898 107.593 695.006C108.013 695.114 108.391 695.27 108.727 695.474C109.075 695.666 109.357 695.936 109.573 696.284C109.789 696.62 109.897 697.064 109.897 697.616C109.897 698.216 109.717 698.75 109.357 699.218C108.997 699.674 108.475 700.034 107.791 700.298C107.119 700.562 106.297 700.694 105.325 700.694ZM116.435 700.694C115.331 700.694 114.359 700.478 113.519 700.046C112.691 699.614 112.049 699.026 111.593 698.282C111.137 697.526 110.909 696.668 110.909 695.708C110.909 694.736 111.131 693.878 111.575 693.134C112.031 692.378 112.649 691.79 113.429 691.37C114.209 690.938 115.091 690.722 116.075 690.722C117.023 690.722 117.875 690.926 118.631 691.334C119.399 691.73 120.005 692.306 120.449 693.062C120.893 693.806 121.115 694.7 121.115 695.744C121.115 695.852 121.109 695.978 121.097 696.122C121.085 696.254 121.073 696.38 121.061 696.5H113.195V694.862H119.585L118.505 695.348C118.505 694.844 118.403 694.406 118.199 694.034C117.995 693.662 117.713 693.374 117.353 693.17C116.993 692.954 116.573 692.846 116.093 692.846C115.613 692.846 115.187 692.954 114.815 693.17C114.455 693.374 114.173 693.668 113.969 694.052C113.765 694.424 113.663 694.868 113.663 695.384V695.816C113.663 696.344 113.777 696.812 114.005 697.22C114.245 697.616 114.575 697.922 114.995 698.138C115.427 698.342 115.931 698.444 116.507 698.444C117.023 698.444 117.473 698.366 117.857 698.21C118.253 698.054 118.613 697.82 118.937 697.508L120.431 699.128C119.987 699.632 119.429 700.022 118.757 700.298C118.085 700.562 117.311 700.694 116.435 700.694ZM126.944 700.694C125.804 700.694 124.916 700.406 124.28 699.83C123.644 699.242 123.326 698.372 123.326 697.22V688.724H126.134V697.184C126.134 697.592 126.242 697.91 126.458 698.138C126.674 698.354 126.968 698.462 127.34 698.462C127.784 698.462 128.162 698.342 128.474 698.102L129.23 700.082C128.942 700.286 128.594 700.442 128.186 700.55C127.79 700.646 127.376 700.694 126.944 700.694ZM121.832 693.242V691.082H128.546V693.242H121.832Z" fill="#9E5DC7"/>
<g filter="url(#filter13_d_2002_5026)">
<circle cx="32" cy="454.55" r="16" fill="#1476F2"/>
</g>
<circle cx="32" cy="454.55" r="8" fill="white"/>
<path d="M65.9872 460.55V447.95H71.4412C72.5692 447.95 73.5412 448.136 74.3572 448.508C75.1732 448.868 75.8032 449.39 76.2472 450.074C76.6912 450.758 76.9132 451.574 76.9132 452.522C76.9132 453.458 76.6912 454.268 76.2472 454.952C75.8032 455.624 75.1732 456.14 74.3572 456.5C73.5412 456.86 72.5692 457.04 71.4412 457.04H67.6072L68.9032 455.762V460.55H65.9872ZM73.9972 460.55L70.8472 455.978H73.9612L77.1472 460.55H73.9972ZM68.9032 456.086L67.6072 454.718H71.2792C72.1792 454.718 72.8512 454.526 73.2952 454.142C73.7392 453.746 73.9612 453.206 73.9612 452.522C73.9612 451.826 73.7392 451.286 73.2952 450.902C72.8512 450.518 72.1792 450.326 71.2792 450.326H67.6072L68.9032 448.94V456.086ZM83.8315 460.694C82.7275 460.694 81.7555 460.478 80.9155 460.046C80.0875 459.614 79.4455 459.026 78.9895 458.282C78.5335 457.526 78.3055 456.668 78.3055 455.708C78.3055 454.736 78.5275 453.878 78.9715 453.134C79.4275 452.378 80.0455 451.79 80.8255 451.37C81.6055 450.938 82.4875 450.722 83.4715 450.722C84.4195 450.722 85.2715 450.926 86.0275 451.334C86.7955 451.73 87.4015 452.306 87.8455 453.062C88.2895 453.806 88.5115 454.7 88.5115 455.744C88.5115 455.852 88.5055 455.978 88.4935 456.122C88.4815 456.254 88.4695 456.38 88.4575 456.5H80.5915V454.862H86.9815L85.9015 455.348C85.9015 454.844 85.7995 454.406 85.5955 454.034C85.3915 453.662 85.1095 453.374 84.7495 453.17C84.3895 452.954 83.9695 452.846 83.4895 452.846C83.0095 452.846 82.5835 452.954 82.2115 453.17C81.8515 453.374 81.5695 453.668 81.3655 454.052C81.1615 454.424 81.0595 454.868 81.0595 455.384V455.816C81.0595 456.344 81.1735 456.812 81.4015 457.22C81.6415 457.616 81.9715 457.922 82.3915 458.138C82.8235 458.342 83.3275 458.444 83.9035 458.444C84.4195 458.444 84.8695 458.366 85.2535 458.21C85.6495 458.054 86.0095 457.82 86.3335 457.508L87.8275 459.128C87.3835 459.632 86.8255 460.022 86.1535 460.298C85.4815 460.562 84.7075 460.694 83.8315 460.694ZM90.723 460.55V450.65C90.723 449.558 91.047 448.688 91.695 448.04C92.343 447.38 93.267 447.05 94.467 447.05C94.875 447.05 95.265 447.092 95.637 447.176C96.021 447.26 96.345 447.392 96.609 447.572L95.871 449.606C95.715 449.498 95.541 449.414 95.349 449.354C95.157 449.294 94.953 449.264 94.737 449.264C94.329 449.264 94.011 449.384 93.783 449.624C93.567 449.852 93.459 450.2 93.459 450.668V451.568L93.531 452.774V460.55H90.723ZM89.229 453.242V451.082H95.943V453.242H89.229ZM97.527 460.55V450.866H100.335V460.55H97.527ZM98.931 449.516C98.415 449.516 97.995 449.366 97.671 449.066C97.347 448.766 97.185 448.394 97.185 447.95C97.185 447.506 97.347 447.134 97.671 446.834C97.995 446.534 98.415 446.384 98.931 446.384C99.447 446.384 99.867 446.528 100.191 446.816C100.515 447.092 100.677 447.452 100.677 447.896C100.677 448.364 100.515 448.754 100.191 449.066C99.879 449.366 99.459 449.516 98.931 449.516ZM108.818 450.722C109.586 450.722 110.27 450.878 110.87 451.19C111.482 451.49 111.962 451.958 112.31 452.594C112.658 453.218 112.832 454.022 112.832 455.006V460.55H110.024V455.438C110.024 454.658 109.85 454.082 109.502 453.71C109.166 453.338 108.686 453.152 108.062 453.152C107.618 453.152 107.216 453.248 106.856 453.44C106.508 453.62 106.232 453.902 106.028 454.286C105.836 454.67 105.74 455.162 105.74 455.762V460.55H102.932V450.866H105.614V453.548L105.11 452.738C105.458 452.09 105.956 451.592 106.604 451.244C107.252 450.896 107.99 450.722 108.818 450.722ZM120.253 460.694C119.149 460.694 118.177 460.478 117.337 460.046C116.509 459.614 115.867 459.026 115.411 458.282C114.955 457.526 114.727 456.668 114.727 455.708C114.727 454.736 114.949 453.878 115.393 453.134C115.849 452.378 116.467 451.79 117.247 451.37C118.027 450.938 118.909 450.722 119.893 450.722C120.841 450.722 121.693 450.926 122.449 451.334C123.217 451.73 123.823 452.306 124.267 453.062C124.711 453.806 124.933 454.7 124.933 455.744C124.933 455.852 124.927 455.978 124.915 456.122C124.903 456.254 124.891 456.38 124.879 456.5H117.013V454.862H123.403L122.323 455.348C122.323 454.844 122.221 454.406 122.017 454.034C121.813 453.662 121.531 453.374 121.171 453.17C120.811 452.954 120.391 452.846 119.911 452.846C119.431 452.846 119.005 452.954 118.633 453.17C118.273 453.374 117.991 453.668 117.787 454.052C117.583 454.424 117.481 454.868 117.481 455.384V455.816C117.481 456.344 117.595 456.812 117.823 457.22C118.063 457.616 118.393 457.922 118.813 458.138C119.245 458.342 119.749 458.444 120.325 458.444C120.841 458.444 121.291 458.366 121.675 458.21C122.071 458.054 122.431 457.82 122.755 457.508L124.249 459.128C123.805 459.632 123.247 460.022 122.575 460.298C121.903 460.562 121.129 460.694 120.253 460.694Z" fill="#1476F2"/>
<g filter="url(#filter14_d_2002_5026)">
<circle cx="32" cy="502.55" r="16" fill="#4B3DDB"/>
</g>
<circle cx="32" cy="502.55" r="8" fill="white"/>
<path d="M65.5184 508.55V495.95H67.9304L73.2944 504.842H72.0164L77.2904 495.95H79.6844L79.7204 508.55H76.9844L76.9664 500.144H77.4704L73.2584 507.218H71.9444L67.6424 500.144H68.2544V508.55H65.5184ZM88.4518 508.55V506.66L88.2718 506.246V502.862C88.2718 502.262 88.0858 501.794 87.7138 501.458C87.3538 501.122 86.7958 500.954 86.0398 500.954C85.5238 500.954 85.0138 501.038 84.5098 501.206C84.0178 501.362 83.5978 501.578 83.2498 501.854L82.2418 499.892C82.7698 499.52 83.4058 499.232 84.1498 499.028C84.8938 498.824 85.6498 498.722 86.4178 498.722C87.8938 498.722 89.0398 499.07 89.8558 499.766C90.6718 500.462 91.0798 501.548 91.0798 503.024V508.55H88.4518ZM85.4998 508.694C84.7438 508.694 84.0958 508.568 83.5558 508.316C83.0158 508.052 82.6018 507.698 82.3138 507.254C82.0258 506.81 81.8818 506.312 81.8818 505.76C81.8818 505.184 82.0198 504.68 82.2958 504.248C82.5838 503.816 83.0338 503.48 83.6458 503.24C84.2578 502.988 85.0558 502.862 86.0398 502.862H88.6138V504.5H86.3458C85.6858 504.5 85.2298 504.608 84.9778 504.824C84.7378 505.04 84.6178 505.31 84.6178 505.634C84.6178 505.994 84.7558 506.282 85.0318 506.498C85.3198 506.702 85.7098 506.804 86.2018 506.804C86.6698 506.804 87.0898 506.696 87.4618 506.48C87.8338 506.252 88.1038 505.922 88.2718 505.49L88.7038 506.786C88.4998 507.41 88.1278 507.884 87.5878 508.208C87.0478 508.532 86.3518 508.694 85.4998 508.694ZM93.6212 508.55V498.866H96.4292V508.55H93.6212ZM95.0252 497.516C94.5092 497.516 94.0892 497.366 93.7652 497.066C93.4412 496.766 93.2792 496.394 93.2792 495.95C93.2792 495.506 93.4412 495.134 93.7652 494.834C94.0892 494.534 94.5092 494.384 95.0252 494.384C95.5412 494.384 95.9612 494.528 96.2852 494.816C96.6092 495.092 96.7712 495.452 96.7712 495.896C96.7712 496.364 96.6092 496.754 96.2852 497.066C95.9732 497.366 95.5532 497.516 95.0252 497.516ZM104.921 498.722C105.689 498.722 106.373 498.878 106.973 499.19C107.585 499.49 108.065 499.958 108.413 500.594C108.761 501.218 108.935 502.022 108.935 503.006V508.55H106.127V503.438C106.127 502.658 105.953 502.082 105.605 501.71C105.269 501.338 104.789 501.152 104.165 501.152C103.721 501.152 103.319 501.248 102.959 501.44C102.611 501.62 102.335 501.902 102.131 502.286C101.939 502.67 101.843 503.162 101.843 503.762V508.55H99.0353V498.866H101.717V501.548L101.213 500.738C101.561 500.09 102.059 499.592 102.707 499.244C103.355 498.896 104.093 498.722 104.921 498.722ZM115.441 508.694C114.301 508.694 113.413 508.406 112.777 507.83C112.141 507.242 111.823 506.372 111.823 505.22V496.724H114.631V505.184C114.631 505.592 114.739 505.91 114.955 506.138C115.171 506.354 115.465 506.462 115.837 506.462C116.281 506.462 116.659 506.342 116.971 506.102L117.727 508.082C117.439 508.286 117.091 508.442 116.683 508.55C116.287 508.646 115.873 508.694 115.441 508.694ZM110.329 501.242V499.082H117.043V501.242H110.329ZM125.243 508.55V506.66L125.063 506.246V502.862C125.063 502.262 124.877 501.794 124.505 501.458C124.145 501.122 123.587 500.954 122.831 500.954C122.315 500.954 121.805 501.038 121.301 501.206C120.809 501.362 120.389 501.578 120.041 501.854L119.033 499.892C119.561 499.52 120.197 499.232 120.941 499.028C121.685 498.824 122.441 498.722 123.209 498.722C124.685 498.722 125.831 499.07 126.647 499.766C127.463 500.462 127.871 501.548 127.871 503.024V508.55H125.243ZM122.291 508.694C121.535 508.694 120.887 508.568 120.347 508.316C119.807 508.052 119.393 507.698 119.105 507.254C118.817 506.81 118.673 506.312 118.673 505.76C118.673 505.184 118.811 504.68 119.087 504.248C119.375 503.816 119.825 503.48 120.437 503.24C121.049 502.988 121.847 502.862 122.831 502.862H125.405V504.5H123.137C122.477 504.5 122.021 504.608 121.769 504.824C121.529 505.04 121.409 505.31 121.409 505.634C121.409 505.994 121.547 506.282 121.823 506.498C122.111 506.702 122.501 506.804 122.993 506.804C123.461 506.804 123.881 506.696 124.253 506.48C124.625 506.252 124.895 505.922 125.063 505.49L125.495 506.786C125.291 507.41 124.919 507.884 124.379 508.208C123.839 508.532 123.143 508.694 122.291 508.694ZM130.412 508.55V498.866H133.22V508.55H130.412ZM131.816 497.516C131.3 497.516 130.88 497.366 130.556 497.066C130.232 496.766 130.07 496.394 130.07 495.95C130.07 495.506 130.232 495.134 130.556 494.834C130.88 494.534 131.3 494.384 131.816 494.384C132.332 494.384 132.752 494.528 133.076 494.816C133.4 495.092 133.562 495.452 133.562 495.896C133.562 496.364 133.4 496.754 133.076 497.066C132.764 497.366 132.344 497.516 131.816 497.516ZM141.712 498.722C142.48 498.722 143.164 498.878 143.764 499.19C144.376 499.49 144.856 499.958 145.204 500.594C145.552 501.218 145.726 502.022 145.726 503.006V508.55H142.918V503.438C142.918 502.658 142.744 502.082 142.396 501.71C142.06 501.338 141.58 501.152 140.956 501.152C140.512 501.152 140.11 501.248 139.75 501.44C139.402 501.62 139.126 501.902 138.922 502.286C138.73 502.67 138.634 503.162 138.634 503.762V508.55H135.826V498.866H138.508V501.548L138.004 500.738C138.352 500.09 138.85 499.592 139.498 499.244C140.146 498.896 140.884 498.722 141.712 498.722Z" fill="#4B3DDB"/>
<defs>
<filter id="filter0_d_2002_5026" x="10" y="0.549805" width="44" height="44" filterUnits="userSpaceOnUse" color-interpolation-filters="sRGB">
<feFlood flood-opacity="0" result="BackgroundImageFix"/>
<feColorMatrix in="SourceAlpha" type="matrix" values="0 0 0 0 0 0 0 0 0 0 0 0 0 0 0 0 0 0 127 0" result="hardAlpha"/>
<feOffset/>
<feGaussianBlur stdDeviation="3"/>
<feColorMatrix type="matrix" values="0 0 0 0 0.630851 0 0 0 0 0.70444 0 0 0 0 0.745833 0 0 0 0.5 0"/>
<feBlend mode="normal" in2="BackgroundImageFix" result="effect1_dropShadow_2002_5026"/>
<feBlend mode="normal" in="SourceGraphic" in2="effect1_dropShadow_2002_5026" result="shape"/>
</filter>
<filter id="filter1_d_2002_5026" x="10" y="48.5498" width="44" height="44" filterUnits="userSpaceOnUse" color-interpolation-filters="sRGB">
<feFlood flood-opacity="0" result="BackgroundImageFix"/>
<feColorMatrix in="SourceAlpha" type="matrix" values="0 0 0 0 0 0 0 0 0 0 0 0 0 0 0 0 0 0 127 0" result="hardAlpha"/>
<feOffset/>
<feGaussianBlur stdDeviation="3"/>
<feColorMatrix type="matrix" values="0 0 0 0 0.630851 0 0 0 0 0.70444 0 0 0 0 0.745833 0 0 0 0.5 0"/>
<feBlend mode="normal" in2="BackgroundImageFix" result="effect1_dropShadow_2002_5026"/>
<feBlend mode="normal" in="SourceGraphic" in2="effect1_dropShadow_2002_5026" result="shape"/>
</filter>
<filter id="filter2_d_2002_5026" x="10" y="96.5498" width="44" height="44" filterUnits="userSpaceOnUse" color-interpolation-filters="sRGB">
<feFlood flood-opacity="0" result="BackgroundImageFix"/>
<feColorMatrix in="SourceAlpha" type="matrix" values="0 0 0 0 0 0 0 0 0 0 0 0 0 0 0 0 0 0 127 0" result="hardAlpha"/>
<feOffset/>
<feGaussianBlur stdDeviation="3"/>
<feColorMatrix type="matrix" values="0 0 0 0 0.630851 0 0 0 0 0.70444 0 0 0 0 0.745833 0 0 0 0.5 0"/>
<feBlend mode="normal" in2="BackgroundImageFix" result="effect1_dropShadow_2002_5026"/>
<feBlend mode="normal" in="SourceGraphic" in2="effect1_dropShadow_2002_5026" result="shape"/>
</filter>
<filter id="filter3_d_2002_5026" x="10" y="144.55" width="44" height="44" filterUnits="userSpaceOnUse" color-interpolation-filters="sRGB">
<feFlood flood-opacity="0" result="BackgroundImageFix"/>
<feColorMatrix in="SourceAlpha" type="matrix" values="0 0 0 0 0 0 0 0 0 0 0 0 0 0 0 0 0 0 127 0" result="hardAlpha"/>
<feOffset/>
<feGaussianBlur stdDeviation="3"/>
<feColorMatrix type="matrix" values="0 0 0 0 0.630851 0 0 0 0 0.70444 0 0 0 0 0.745833 0 0 0 0.5 0"/>
<feBlend mode="normal" in2="BackgroundImageFix" result="effect1_dropShadow_2002_5026"/>
<feBlend mode="normal" in="SourceGraphic" in2="effect1_dropShadow_2002_5026" result="shape"/>
</filter>
<filter id="filter4_d_2002_5026" x="10" y="192.55" width="44" height="44" filterUnits="userSpaceOnUse" color-interpolation-filters="sRGB">
<feFlood flood-opacity="0" result="BackgroundImageFix"/>
<feColorMatrix in="SourceAlpha" type="matrix" values="0 0 0 0 0 0 0 0 0 0 0 0 0 0 0 0 0 0 127 0" result="hardAlpha"/>
<feOffset/>
<feGaussianBlur stdDeviation="3"/>
<feColorMatrix type="matrix" values="0 0 0 0 0.630851 0 0 0 0 0.70444 0 0 0 0 0.745833 0 0 0 0.5 0"/>
<feBlend mode="normal" in2="BackgroundImageFix" result="effect1_dropShadow_2002_5026"/>
<feBlend mode="normal" in="SourceGraphic" in2="effect1_dropShadow_2002_5026" result="shape"/>
</filter>
<filter id="filter5_d_2002_5026" x="10" y="240.55" width="44" height="44" filterUnits="userSpaceOnUse" color-interpolation-filters="sRGB">
<feFlood flood-opacity="0" result="BackgroundImageFix"/>
<feColorMatrix in="SourceAlpha" type="matrix" values="0 0 0 0 0 0 0 0 0 0 0 0 0 0 0 0 0 0 127 0" result="hardAlpha"/>
<feOffset/>
<feGaussianBlur stdDeviation="3"/>
<feColorMatrix type="matrix" values="0 0 0 0 0.630851 0 0 0 0 0.70444 0 0 0 0 0.745833 0 0 0 0.5 0"/>
<feBlend mode="normal" in2="BackgroundImageFix" result="effect1_dropShadow_2002_5026"/>
<feBlend mode="normal" in="SourceGraphic" in2="effect1_dropShadow_2002_5026" result="shape"/>
</filter>
<filter id="filter6_d_2002_5026" x="10" y="288.55" width="44" height="44" filterUnits="userSpaceOnUse" color-interpolation-filters="sRGB">
<feFlood flood-opacity="0" result="BackgroundImageFix"/>
<feColorMatrix in="SourceAlpha" type="matrix" values="0 0 0 0 0 0 0 0 0 0 0 0 0 0 0 0 0 0 127 0" result="hardAlpha"/>
<feOffset/>
<feGaussianBlur stdDeviation="3"/>
<feColorMatrix type="matrix" values="0 0 0 0 0.630851 0 0 0 0 0.70444 0 0 0 0 0.745833 0 0 0 0.5 0"/>
<feBlend mode="normal" in2="BackgroundImageFix" result="effect1_dropShadow_2002_5026"/>
<feBlend mode="normal" in="SourceGraphic" in2="effect1_dropShadow_2002_5026" result="shape"/>
</filter>
<filter id="filter7_d_2002_5026" x="10" y="336.55" width="44" height="44" filterUnits="userSpaceOnUse" color-interpolation-filters="sRGB">
<feFlood flood-opacity="0" result="BackgroundImageFix"/>
<feColorMatrix in="SourceAlpha" type="matrix" values="0 0 0 0 0 0 0 0 0 0 0 0 0 0 0 0 0 0 127 0" result="hardAlpha"/>
<feOffset/>
<feGaussianBlur stdDeviation="3"/>
<feColorMatrix type="matrix" values="0 0 0 0 0.630851 0 0 0 0 0.70444 0 0 0 0 0.745833 0 0 0 0.5 0"/>
<feBlend mode="normal" in2="BackgroundImageFix" result="effect1_dropShadow_2002_5026"/>
<feBlend mode="normal" in="SourceGraphic" in2="effect1_dropShadow_2002_5026" result="shape"/>
</filter>
<filter id="filter8_d_2002_5026" x="10" y="384.55" width="44" height="44" filterUnits="userSpaceOnUse" color-interpolation-filters="sRGB">
<feFlood flood-opacity="0" result="BackgroundImageFix"/>
<feColorMatrix in="SourceAlpha" type="matrix" values="0 0 0 0 0 0 0 0 0 0 0 0 0 0 0 0 0 0 127 0" result="hardAlpha"/>
<feOffset/>
<feGaussianBlur stdDeviation="3"/>
<feColorMatrix type="matrix" values="0 0 0 0 0.630851 0 0 0 0 0.70444 0 0 0 0 0.745833 0 0 0 0.5 0"/>
<feBlend mode="normal" in2="BackgroundImageFix" result="effect1_dropShadow_2002_5026"/>
<feBlend mode="normal" in="SourceGraphic" in2="effect1_dropShadow_2002_5026" result="shape"/>
</filter>
<filter id="filter9_d_2002_5026" x="10" y="528.55" width="44" height="44" filterUnits="userSpaceOnUse" color-interpolation-filters="sRGB">
<feFlood flood-opacity="0" result="BackgroundImageFix"/>
<feColorMatrix in="SourceAlpha" type="matrix" values="0 0 0 0 0 0 0 0 0 0 0 0 0 0 0 0 0 0 127 0" result="hardAlpha"/>
<feOffset/>
<feGaussianBlur stdDeviation="3"/>
<feColorMatrix type="matrix" values="0 0 0 0 0.630851 0 0 0 0 0.70444 0 0 0 0 0.745833 0 0 0 0.5 0"/>
<feBlend mode="normal" in2="BackgroundImageFix" result="effect1_dropShadow_2002_5026"/>
<feBlend mode="normal" in="SourceGraphic" in2="effect1_dropShadow_2002_5026" result="shape"/>
</filter>
<filter id="filter10_d_2002_5026" x="10" y="576.55" width="44" height="44" filterUnits="userSpaceOnUse" color-interpolation-filters="sRGB">
<feFlood flood-opacity="0" result="BackgroundImageFix"/>
<feColorMatrix in="SourceAlpha" type="matrix" values="0 0 0 0 0 0 0 0 0 0 0 0 0 0 0 0 0 0 127 0" result="hardAlpha"/>
<feOffset/>
<feGaussianBlur stdDeviation="3"/>
<feColorMatrix type="matrix" values="0 0 0 0 0.630851 0 0 0 0 0.70444 0 0 0 0 0.745833 0 0 0 0.5 0"/>
<feBlend mode="normal" in2="BackgroundImageFix" result="effect1_dropShadow_2002_5026"/>
<feBlend mode="normal" in="SourceGraphic" in2="effect1_dropShadow_2002_5026" result="shape"/>
</filter>
<filter id="filter11_d_2002_5026" x="10" y="624.55" width="44" height="44" filterUnits="userSpaceOnUse" color-interpolation-filters="sRGB">
<feFlood flood-opacity="0" result="BackgroundImageFix"/>
<feColorMatrix in="SourceAlpha" type="matrix" values="0 0 0 0 0 0 0 0 0 0 0 0 0 0 0 0 0 0 127 0" result="hardAlpha"/>
<feOffset/>
<feGaussianBlur stdDeviation="3"/>
<feColorMatrix type="matrix" values="0 0 0 0 0.630851 0 0 0 0 0.70444 0 0 0 0 0.745833 0 0 0 0.5 0"/>
<feBlend mode="normal" in2="BackgroundImageFix" result="effect1_dropShadow_2002_5026"/>
<feBlend mode="normal" in="SourceGraphic" in2="effect1_dropShadow_2002_5026" result="shape"/>
</filter>
<filter id="filter12_d_2002_5026" x="10" y="672.55" width="44" height="44" filterUnits="userSpaceOnUse" color-interpolation-filters="sRGB">
<feFlood flood-opacity="0" result="BackgroundImageFix"/>
<feColorMatrix in="SourceAlpha" type="matrix" values="0 0 0 0 0 0 0 0 0 0 0 0 0 0 0 0 0 0 127 0" result="hardAlpha"/>
<feOffset/>
<feGaussianBlur stdDeviation="3"/>
<feColorMatrix type="matrix" values="0 0 0 0 0.630851 0 0 0 0 0.70444 0 0 0 0 0.745833 0 0 0 0.5 0"/>
<feBlend mode="normal" in2="BackgroundImageFix" result="effect1_dropShadow_2002_5026"/>
<feBlend mode="normal" in="SourceGraphic" in2="effect1_dropShadow_2002_5026" result="shape"/>
</filter>
<filter id="filter13_d_2002_5026" x="10" y="432.55" width="44" height="44" filterUnits="userSpaceOnUse" color-interpolation-filters="sRGB">
<feFlood flood-opacity="0" result="BackgroundImageFix"/>
<feColorMatrix in="SourceAlpha" type="matrix" values="0 0 0 0 0 0 0 0 0 0 0 0 0 0 0 0 0 0 127 0" result="hardAlpha"/>
<feOffset/>
<feGaussianBlur stdDeviation="3"/>
<feColorMatrix type="matrix" values="0 0 0 0 0.630851 0 0 0 0 0.70444 0 0 0 0 0.745833 0 0 0 0.5 0"/>
<feBlend mode="normal" in2="BackgroundImageFix" result="effect1_dropShadow_2002_5026"/>
<feBlend mode="normal" in="SourceGraphic" in2="effect1_dropShadow_2002_5026" result="shape"/>
</filter>
<filter id="filter14_d_2002_5026" x="10" y="480.55" width="44" height="44" filterUnits="userSpaceOnUse" color-interpolation-filters="sRGB">
<feFlood flood-opacity="0" result="BackgroundImageFix"/>
<feColorMatrix in="SourceAlpha" type="matrix" values="0 0 0 0 0 0 0 0 0 0 0 0 0 0 0 0 0 0 127 0" result="hardAlpha"/>
<feOffset/>
<feGaussianBlur stdDeviation="3"/>
<feColorMatrix type="matrix" values="0 0 0 0 0.630851 0 0 0 0 0.70444 0 0 0 0 0.745833 0 0 0 0.5 0"/>
<feBlend mode="normal" in2="BackgroundImageFix" result="effect1_dropShadow_2002_5026"/>
<feBlend mode="normal" in="SourceGraphic" in2="effect1_dropShadow_2002_5026" result="shape"/>
</filter>
<linearGradient id="paint0_linear_2002_5026" x1="34" y1="457.651" x2="34" y2="231.648" gradientUnits="userSpaceOnUse">
<stop stop-color="#1476F2"/>
<stop offset="1" stop-color="#33B1B8"/>
</linearGradient>
<linearGradient id="paint1_linear_2002_5026" x1="34" y1="231.648" x2="34" y2="504.55" gradientUnits="userSpaceOnUse">
<stop stop-color="#33B1B8"/>
<stop offset="0.640625" stop-color="#1476F2"/>
<stop offset="1" stop-color="#4B3DDB"/>
</linearGradient>
<linearGradient id="paint2_linear_2002_5026" x1="34" y1="70.6484" x2="82" y2="70.6484" gradientUnits="userSpaceOnUse">
<stop stop-color="#5DC792"/>
<stop offset="1" stop-color="#33B1B8"/>
</linearGradient>
<linearGradient id="paint3_linear_2002_5026" x1="58" y1="22.6484" x2="82" y2="22.6484" gradientUnits="userSpaceOnUse">
<stop stop-color="#5DC792"/>
<stop offset="1" stop-color="#5DC792"/>
</linearGradient>
<linearGradient id="paint4_linear_2002_5026" x1="82" y1="118.55" x2="130" y2="118.55" gradientUnits="userSpaceOnUse">
<stop stop-color="#33B1B8"/>
<stop offset="1" stop-color="#33B1B8"/>
</linearGradient>
<linearGradient id="paint5_linear_2002_5026" x1="34.0986" y1="214.55" x2="82" y2="214.55" gradientUnits="userSpaceOnUse">
<stop stop-color="#33B1B8"/>
<stop offset="1" stop-color="#1476F2"/>
</linearGradient>
<linearGradient id="paint6_linear_2002_5026" x1="34.0986" y1="454.55" x2="82" y2="454.55" gradientUnits="userSpaceOnUse">
<stop stop-color="#1476F2"/>
<stop offset="1" stop-color="#4B3DDB"/>
</linearGradient>
<linearGradient id="paint7_linear_2002_5026" x1="82" y1="502.55" x2="130" y2="502.55" gradientUnits="userSpaceOnUse">
<stop stop-color="#4B3DDB"/>
<stop offset="1" stop-color="#4B3DDB"/>
</linearGradient>
<linearGradient id="paint8_linear_2002_5026" x1="34.0986" y1="598.55" x2="82" y2="598.55" gradientUnits="userSpaceOnUse">
<stop stop-color="#4B3DDB"/>
<stop offset="1" stop-color="#9E5DC7"/>
</linearGradient>
<linearGradient id="paint9_linear_2002_5026" x1="58" y1="646.55" x2="82" y2="646.55" gradientUnits="userSpaceOnUse">
<stop stop-color="#9E5DC7"/>
<stop offset="1" stop-color="#9E5DC7"/>
</linearGradient>
<linearGradient id="paint10_linear_2002_5026" x1="130" y1="262.55" x2="226" y2="262.55" gradientUnits="userSpaceOnUse">
<stop stop-color="#1476F2"/>
<stop offset="1" stop-color="#1476F2"/>
</linearGradient>
</defs>
</svg>
