<svg xmlns="http://www.w3.org/2000/svg" width="30" height="31" viewBox="0 0 30 31" fill="none">
  <path fill-rule="evenodd" clip-rule="evenodd" d="M19.995 4.28975C17.5776 3.21262 14.8768 2.94578 12.2953 3.52902C9.71387 4.11227 7.39011 5.51435 5.67062 7.52616C3.95112 9.53797 2.92801 12.0517 2.75388 14.6925C2.57974 17.3333 3.26392 19.9596 4.70436 22.1798C6.1448 24.4 8.26433 26.095 10.7468 27.0122C13.2294 27.9293 15.9418 28.0195 18.4798 27.2691C21.0177 26.5187 23.245 24.968 24.8296 22.8484C26.4142 20.7287 27.2712 18.1535 27.2727 15.507V14.2533C27.2727 13.5001 27.8832 12.8896 28.6364 12.8896C29.3895 12.8896 30 13.5001 30 14.2533V15.5078C29.9981 18.7424 28.9507 21.8906 27.014 24.4813C25.0772 27.072 22.3549 28.9673 19.253 29.8844C16.1511 30.8016 12.8359 30.6914 9.8017 29.5705C6.76752 28.4495 4.17698 26.3777 2.41644 23.6642C0.655899 20.9506 -0.180313 17.7407 0.0325152 14.5131C0.245344 11.2854 1.49581 8.21307 3.59742 5.75419C5.69903 3.29531 8.53918 1.58166 11.6943 0.868805C14.8494 0.15595 18.1504 0.482091 21.105 1.79859C21.7929 2.1051 22.1021 2.91125 21.7956 3.59917C21.4891 4.28709 20.6829 4.59627 19.995 4.28975Z" fill="#1476F2"/>
  <path fill-rule="evenodd" clip-rule="evenodd" d="M29.6001 3.63354C30.1329 4.1658 30.1333 5.02921 29.601 5.56201L15.9647 19.212C15.709 19.4679 15.3621 19.6118 15.0003 19.6119C14.6385 19.612 14.2915 19.4683 14.0357 19.2125L9.94481 15.1216C9.41228 14.589 9.41228 13.7256 9.94481 13.1931C10.4773 12.6606 11.3407 12.6606 11.8733 13.1931L14.9995 16.3193L27.6716 3.6345C28.2039 3.1017 29.0673 3.10127 29.6001 3.63354Z" fill="#1476F2"/>
</svg>