<svg width="97" height="64" viewBox="0 0 97 64" fill="none" xmlns="http://www.w3.org/2000/svg">
<path fill-rule="evenodd" clip-rule="evenodd" d="M25.6019 13.0009C25.651 13.0169 26.2072 13.3689 26.8288 13.785C27.4504 14.1851 28.5954 14.7772 29.3642 15.0812C30.133 15.3853 31.458 15.7854 32.3086 15.9774C33.1592 16.1854 34.7132 16.4415 35.7437 16.5695C36.7743 16.6815 38.5245 16.7936 41.6325 16.7936V23.1947C41.6325 29.2118 41.6161 29.5959 41.338 29.5159C41.1908 29.4839 40.5856 29.3078 38.9335 28.8438L38.7699 19.434L37.952 19.386C37.494 19.37 36.2181 19.242 35.0894 19.114C33.9607 18.986 32.3086 18.6979 31.4089 18.4899C30.5093 18.2658 29.1843 17.8658 28.4645 17.5937C27.7448 17.3217 26.8124 16.8896 25.6347 16.2335L24.2606 16.9056C23.5082 17.2736 22.4286 17.7217 21.8397 17.9138C21.2508 18.1058 20.1876 18.3939 19.4678 18.5699C18.7481 18.7299 17.2922 18.97 16.229 19.114C15.1821 19.242 13.9226 19.354 13.4645 19.354C12.9902 19.354 12.4994 19.418 12.3849 19.4821C12.2214 19.5781 12.1886 20.9383 12.2377 26.4753C12.3031 32.1884 12.3522 33.5326 12.5812 34.3488C12.7284 34.9089 13.0556 35.805 13.301 36.3491C13.5463 36.9092 14.0043 37.7094 14.3151 38.1575C14.6096 38.5895 15.2312 39.3897 15.6892 39.9018C16.1472 40.4299 17.0796 41.31 17.7503 41.8701C18.4209 42.4463 19.566 43.2784 20.2857 43.7425C21.0054 44.2066 22.0523 44.8307 22.6085 45.1347C23.4754 45.6148 23.6554 45.7909 23.9498 46.479C24.1298 46.9111 24.5551 47.7112 24.8659 48.2393C25.193 48.7674 25.4547 49.2155 25.4384 49.2315C25.4384 49.2635 25.3402 49.2795 25.2421 49.2795C25.1276 49.2795 24.0807 48.8154 22.9029 48.2553C21.7252 47.6952 19.8768 46.655 18.7808 45.9349C17.5376 45.1347 16.1308 44.0465 15.1167 43.0704C14.2006 42.2222 13.1047 41.054 12.663 40.4779C12.2214 39.9018 11.5834 38.8936 11.2235 38.2375C10.88 37.5814 10.4384 36.5732 10.2584 35.9971C10.0621 35.421 9.83313 34.5248 9.73499 33.9967C9.63684 33.4046 9.57141 29.916 9.57141 16.7936H11.4525C12.4831 16.7936 14.0534 16.7135 14.9367 16.6335C15.8037 16.5375 17.1123 16.3455 17.832 16.2175C18.5518 16.0734 19.7295 15.7854 20.4493 15.5613C21.169 15.3373 22.3141 14.8892 22.9847 14.5531C23.6554 14.2171 24.506 13.721 24.8659 13.4649C25.2257 13.1929 25.5529 12.9849 25.6019 13.0009ZM25.5202 19.242L25.5692 25.0191C25.6019 29.2598 25.6674 30.8441 25.8146 31.0042C25.9618 31.1642 27.2704 31.2122 31.8179 31.1962C37.1668 31.1962 37.723 31.2122 38.9335 31.5163C39.6532 31.7083 40.7165 32.1084 41.3053 32.4124C41.8942 32.7165 42.5812 33.1325 43.2846 33.6766L39.6041 38.1575C37.5758 40.6219 35.8582 42.6543 35.7928 42.6863C35.711 42.7023 35.024 42.0302 34.2552 41.166C33.47 40.3019 32.7175 39.5017 32.5703 39.3897C32.3577 39.2297 32.2105 39.2777 31.7034 39.7097C31.3599 39.9818 30.7383 40.5099 29.5442 41.5181L31.9814 44.2386C33.3391 45.7269 34.6314 47.0871 34.8768 47.2311C35.1385 47.3912 35.5474 47.5192 35.8255 47.5192C36.1036 47.5192 36.5125 47.3912 36.7579 47.2311C37.0033 47.0871 39.0807 44.6707 41.3871 41.8701C43.6772 39.0856 45.6238 36.7972 45.7219 36.7972C45.8201 36.7972 46.0327 37.1813 46.1963 37.6294C46.3599 38.0935 46.6052 38.7976 46.7197 39.1977C46.8342 39.5977 46.916 40.7019 46.916 41.6781C46.916 43.1184 46.8342 43.6785 46.4907 44.7187C46.2617 45.4228 45.7056 46.527 45.2639 47.1991C44.8386 47.8552 44.0043 48.8154 43.4155 49.3275C42.843 49.8396 41.8942 50.4957 41.3053 50.7838C40.7165 51.0878 39.7186 51.4719 39.097 51.6639C38.2628 51.904 37.494 52 36.3162 52C35.1221 52 34.3697 51.904 33.5354 51.6639C32.9138 51.4719 31.8997 51.0718 31.2781 50.7838C30.6401 50.4637 29.7077 49.7916 29.0207 49.1515C28.3828 48.5594 27.5976 47.6792 27.2704 47.1991C26.9433 46.719 26.4689 45.7429 25.6837 43.7585L25.6347 37.6774C25.6019 33.3086 25.5202 31.5323 25.3893 31.3882C25.2421 31.2282 24.0643 31.1802 14.9694 31.1962V21.8345L17.1287 21.5464C18.3228 21.3864 20.1221 21.0503 21.1036 20.7943C22.085 20.5382 23.4918 20.0902 24.2115 19.7861L25.5202 19.242ZM84.4896 25.9152H86.0436C87.5649 25.9152 87.5976 25.9312 87.5649 26.2833C87.5158 26.6034 87.4177 26.6354 85.6347 26.7154V27.2755C85.6347 27.8356 85.6347 27.8356 86.3708 27.8356C87.0414 27.8356 87.1069 27.8676 87.1069 28.2357C87.1069 28.6037 87.0414 28.6357 86.3708 28.6357C85.6347 28.6357 85.6347 28.6357 85.6347 29.7559L86.5834 29.8039C87.4177 29.8359 87.5158 29.884 87.5649 30.204C87.5976 30.5561 87.5649 30.5561 84.4896 30.5561V25.9152ZM46.2126 18.5539H47.7666C49.2879 18.5539 49.3206 18.5699 49.2879 18.9219C49.2388 19.242 49.1407 19.274 47.3577 19.354V20.6343H48.1756C48.9444 20.6343 48.9934 20.6663 48.9934 21.0343C48.9934 21.4184 48.9444 21.4344 47.3577 21.4344V23.1947H46.2126V18.5539ZM49.9749 18.5539H51.1199V23.1947H49.9749V18.5539ZM53.2792 18.5539C53.7208 18.5539 54.1298 18.6499 54.3588 18.8259C54.7023 19.082 54.7023 19.146 54.506 19.434C54.2933 19.7221 54.2279 19.7381 53.8026 19.5461C53.5409 19.418 53.1974 19.37 53.0502 19.418C52.8866 19.466 52.7557 19.6581 52.7557 19.8341C52.7557 20.0742 52.9357 20.2182 53.4264 20.3622C53.8026 20.4742 54.2443 20.6823 54.4078 20.8423C54.6205 21.0183 54.7186 21.3384 54.7186 21.7545C54.7186 22.2666 54.6205 22.4746 54.2279 22.7947C53.9171 23.0507 53.5409 23.1947 53.1647 23.1947C52.8539 23.1947 52.3304 23.0827 52.0196 22.9547C51.4798 22.7306 51.4635 22.6986 51.6761 22.3626C51.807 22.1545 51.9705 22.0105 52.0523 22.0265C52.1178 22.0425 52.4286 22.1545 52.7066 22.2666C53.181 22.4586 53.2792 22.4426 53.5245 22.2025C53.6881 22.0585 53.7699 21.8345 53.7208 21.7225C53.6717 21.6104 53.3119 21.4344 52.9356 21.3224C52.5594 21.2104 52.1178 20.9223 51.9378 20.6823C51.7415 20.4422 51.6107 20.0742 51.6107 19.8661C51.627 19.6581 51.8397 19.29 52.1014 19.018C52.4776 18.6499 52.7066 18.5539 53.2792 18.5539ZM55.2094 18.5539H55.7819C56.3381 18.5539 56.3708 18.6019 57.8757 21.5144L58.6281 20.0422C59.3479 18.6179 59.3969 18.5539 60.4438 18.5539V23.1947H59.4624L59.3806 20.5542L58.8081 21.5944C58.3991 22.3626 58.1374 22.6506 57.8757 22.6826C57.5649 22.7146 57.4177 22.5386 57.0087 21.7545C56.747 21.2264 56.4526 20.7943 56.3544 20.7943C56.2563 20.7943 56.1908 21.3064 56.1908 23.1947H55.2094V18.5539ZM63.3391 18.5859C63.9117 18.6339 63.928 18.6659 64.3697 19.8341C64.615 20.4902 65.024 21.5304 65.6783 23.1947H65.1058C64.615 23.1947 64.5169 23.1307 64.3697 22.7146C64.2225 22.2666 64.157 22.2346 63.3555 22.2346C62.554 22.2186 62.4722 22.2666 62.2432 22.7146C62.0469 23.1147 61.8997 23.2107 61.4744 23.2107C61.0327 23.1947 60.9509 23.1467 61.0327 22.9227C61.0818 22.7627 61.4253 21.8825 61.7852 20.9543C62.145 20.0262 62.5049 19.114 62.5867 18.9059C62.7176 18.6019 62.8484 18.5539 63.3391 18.5859ZM63.012 20.4422C62.8648 20.8103 62.7339 21.1944 62.7339 21.2744C62.7339 21.3704 62.9956 21.4344 63.3064 21.4344C63.8135 21.4344 63.8626 21.4024 63.7808 21.0823C63.7154 20.8743 63.5845 20.5062 63.4864 20.2342L63.2901 19.7541L63.012 20.4422ZM48.3719 25.9312C48.7154 25.9312 49.2061 26.0272 49.4842 26.1713C49.7459 26.2993 49.9749 26.4593 49.9749 26.5233C49.9749 26.5874 49.8768 26.7954 49.7459 26.9714C49.5496 27.2435 49.4678 27.2595 49.0916 27.0834C48.8626 26.9714 48.5354 26.8914 48.3719 26.8754C48.2246 26.8754 47.8975 27.0194 47.6358 27.1955C47.2759 27.4675 47.1941 27.6435 47.1941 28.2517C47.1941 28.8438 47.2759 29.0198 47.6358 29.2918C47.8975 29.4679 48.2246 29.6119 48.3719 29.6119C48.5354 29.6119 48.8462 29.5159 49.0589 29.4039C49.4024 29.2438 49.5169 29.2438 49.7295 29.4519C49.8768 29.5799 49.9913 29.7399 49.9749 29.8039C49.9749 29.868 49.7295 30.076 49.4351 30.252C49.157 30.4281 48.6336 30.5721 48.2901 30.5721C47.9629 30.5721 47.4558 30.4601 47.1941 30.332C46.916 30.188 46.5561 29.8519 46.3762 29.5639C46.1636 29.2278 46.0491 28.7638 46.0491 28.2517C46.0491 27.6916 46.1636 27.2915 46.3926 26.9554C46.5725 26.6834 46.9651 26.3473 47.2432 26.2033C47.5376 26.0593 48.0447 25.9312 48.3719 25.9312ZM52.6739 25.9312C53.0338 25.9312 53.59 26.0593 53.9008 26.2193C54.2116 26.3953 54.6205 26.7634 54.7841 27.0674C54.964 27.3555 55.1112 27.8996 55.1112 28.2517C55.1112 28.6037 54.964 29.1318 54.7841 29.4359C54.6205 29.7239 54.2116 30.108 53.9008 30.284C53.4918 30.4921 53.0992 30.5721 52.5103 30.5241C52.036 30.4921 51.4962 30.348 51.2508 30.156C51.0054 29.996 50.6946 29.6119 50.5474 29.3239C50.4166 29.0358 50.3021 28.5397 50.3021 28.2036C50.3021 27.8836 50.4166 27.3875 50.5638 27.1315C50.711 26.8594 50.9727 26.5393 51.169 26.4113C51.3653 26.2673 51.627 26.1233 51.7743 26.0593C51.9051 25.9952 52.3141 25.9472 52.6739 25.9312ZM51.4307 28.2517C51.4471 28.8278 51.5289 29.0358 51.8888 29.3078C52.2323 29.5479 52.494 29.6119 52.9193 29.5479C53.2301 29.4999 53.59 29.3239 53.7045 29.1638C53.819 29.0198 53.9008 28.6037 53.9008 28.2517C53.9008 27.8996 53.8353 27.5315 53.7699 27.4355C53.7045 27.3395 53.4918 27.1795 53.2792 27.0674C53.0829 26.9714 52.7884 26.8914 52.6085 26.8914C52.4449 26.8914 52.1178 27.0354 51.8724 27.2115C51.4798 27.4995 51.4144 27.6595 51.4307 28.2517ZM55.5365 25.9312H56.109C56.6652 25.9312 56.6979 25.9632 58.2028 28.8918L58.9553 27.4035C59.675 25.9952 59.7241 25.9312 60.771 25.9312V30.5721H59.7895L59.7077 27.9316L59.1352 28.9718C58.7099 29.7239 58.4646 30.012 58.1865 30.044C57.892 30.076 57.7285 29.916 57.3359 29.1318C57.0578 28.6037 56.7634 28.1716 56.6816 28.1716C56.5834 28.1716 56.518 28.6677 56.518 30.5721H55.5365V25.9312ZM61.458 25.8992L62.8484 25.9472C64.157 26.0112 64.2552 26.0272 64.6478 26.4913C64.9913 26.8914 65.0403 27.0674 64.9586 27.6115C64.9095 27.9636 64.7459 28.3797 64.5823 28.5397C64.4187 28.6997 63.928 28.8758 62.5703 29.0518V30.5721H61.4253L61.458 25.8992ZM63.0283 28.1716C63.2737 28.1716 63.5681 28.0756 63.6827 27.9636C63.7972 27.8516 63.8789 27.6275 63.8789 27.4515C63.8789 27.2755 63.7808 27.0354 63.6663 26.9234C63.5518 26.8114 63.2574 26.7314 63.012 26.7314C62.5867 26.7314 62.5703 26.7634 62.5703 27.4515C62.5703 28.1236 62.5867 28.1716 63.0283 28.1716ZM65.5147 25.9312H66.6598V29.7719H67.5594C68.41 29.7719 68.4591 29.7879 68.4591 30.172C68.4591 30.5721 68.4427 30.5721 65.5147 30.5721V25.9312ZM68.9498 25.9312H70.0949V30.5721H68.9498V25.9312ZM72.9902 25.9632C73.5463 26.0112 73.5791 26.0433 74.0207 27.2115C74.2661 27.8676 74.6587 28.8918 75.3293 30.5721H74.7568C74.2661 30.5721 74.1516 30.4921 74.0207 30.092C73.8571 29.6439 73.8081 29.6119 72.9902 29.5959C72.1887 29.5959 72.1232 29.6279 71.8942 30.092C71.6979 30.4921 71.5507 30.5881 71.109 30.5721C70.6838 30.5721 70.602 30.5241 70.6837 30.284C70.7328 30.14 71.0763 29.2598 71.4362 28.3317C71.7961 27.4035 72.1559 26.4753 72.2377 26.2833C72.3686 25.9792 72.4995 25.9152 72.9902 25.9632ZM72.663 27.8036C72.4995 28.1876 72.3849 28.5557 72.3849 28.6517C72.3849 28.7317 72.6467 28.8118 72.9575 28.8118C73.4646 28.8118 73.5136 28.7798 73.4318 28.4437C73.3664 28.2517 73.2355 27.8676 73.121 27.6115L72.9411 27.1315L72.663 27.8036ZM75.4929 25.9152H75.9346C76.3108 25.9152 76.5889 26.1713 78.6009 28.7157V25.9152H79.5823V30.5561H79.1734C78.8462 30.5561 78.5354 30.268 77.7339 29.2918C77.1777 28.5877 76.6543 28.0596 76.5889 28.0916C76.5234 28.1236 76.4744 28.6997 76.4744 30.5561H75.4929V25.9152ZM82.5594 25.9312C82.9029 25.9152 83.3937 26.0272 83.6718 26.1553C83.9335 26.2993 84.1625 26.4593 84.1625 26.5233C84.1625 26.5874 84.0643 26.7794 83.9335 26.9554C83.7372 27.2435 83.6554 27.2595 83.2792 27.0834C83.0338 26.9714 82.723 26.8754 82.5594 26.8754C82.4122 26.8754 82.0687 27.0194 81.8233 27.1955C81.4471 27.4675 81.3817 27.6435 81.3817 28.2357C81.3817 28.8438 81.4471 29.0198 81.8233 29.2918C82.0687 29.4679 82.4122 29.6119 82.5594 29.6119C82.723 29.5959 83.0338 29.5159 83.2465 29.4039C83.59 29.2278 83.6881 29.2438 83.9171 29.4359C84.048 29.5799 84.1625 29.7399 84.1625 29.8039C84.1625 29.868 83.9171 30.06 83.6227 30.236C83.3282 30.4121 82.8212 30.5561 82.4776 30.5561C82.1505 30.5561 81.6434 30.4601 81.3817 30.316C81.1036 30.188 80.7437 29.8519 80.5638 29.5639C80.3511 29.2278 80.2366 28.7637 80.2366 28.2357C80.2366 27.6916 80.3348 27.2915 80.5802 26.9554C80.7601 26.6834 81.1527 26.3473 81.4307 26.1873C81.7252 26.0433 82.2323 25.9312 82.5594 25.9312Z" fill="black" fill-opacity="0.64"/>
</svg>
