<svg width="65" height="64" viewBox="0 0 65 64" fill="none" xmlns="http://www.w3.org/2000/svg">
<g clip-path="url(#clip0_1765_2334)">
<path d="M31.0273 2.67786C31.1104 2.6363 31.3762 2.06277 31.6918 1.27312C31.9742 0.54166 32.2317 -0.0318725 32.2566 0.00137574C32.2899 0.0429361 32.5307 0.641405 32.7965 1.34793C33.0706 2.04614 33.3447 2.65293 33.4112 2.68617C33.4776 2.71942 34.1421 2.78592 34.8897 2.81917C35.6289 2.86073 36.227 2.91891 36.2187 2.94385C36.2021 2.9771 35.7452 3.35945 35.197 3.8083C34.6488 4.25716 34.1587 4.68107 34.1006 4.75588C34.0258 4.86394 34.0757 5.17148 34.3664 6.26036C34.5741 7.01676 34.7236 7.64017 34.7153 7.64848C34.707 7.65679 34.2335 7.36587 33.6604 7.00014C33.0872 6.6261 32.5224 6.27699 32.3978 6.21049C32.1736 6.09412 32.1237 6.11906 30.9609 6.88377C30.2964 7.316 29.7399 7.67342 29.7149 7.67342C29.69 7.67342 29.8395 7.05001 30.0389 6.2853C30.2798 5.3876 30.3877 4.84731 30.3379 4.76419C30.3047 4.6977 29.798 4.26547 29.2249 3.8083C28.6517 3.35114 28.1866 2.96047 28.1783 2.93554C28.1783 2.9106 28.7846 2.86073 29.5239 2.81917C30.2715 2.78592 30.9443 2.71942 31.0273 2.67786Z" fill="black" fill-opacity="0.64"/>
<path d="M45.4219 3.6005C45.6794 2.93554 45.9037 2.362 45.9286 2.31213C45.9535 2.26226 46.0034 2.27888 46.0449 2.35369C46.0781 2.42019 46.319 3.01866 46.5682 3.68362C46.8257 4.34859 47.0832 4.91381 47.1413 4.94706C47.1911 4.98031 47.5566 5.02187 47.947 5.05511C48.3374 5.08005 48.9687 5.12992 50.0402 5.22136L49.0185 6.05256C48.462 6.50973 47.9553 6.95858 47.8972 7.05001C47.8058 7.19132 47.839 7.40743 48.1381 8.56281C48.3291 9.31089 48.4703 9.91768 48.4454 9.91768C48.4205 9.91768 47.8806 9.58519 47.241 9.16959C46.6014 8.7623 46.0283 8.4215 45.9784 8.4215C45.9203 8.4215 45.3472 8.77061 44.7076 9.19452C44.068 9.61013 43.5281 9.94261 43.5032 9.91768C43.4866 9.89274 43.6278 9.27765 43.8271 8.54618C44.0182 7.81472 44.1677 7.16638 44.1511 7.11651C44.1345 7.05832 43.6195 6.60116 41.8835 5.1798L42.6975 5.13824C43.1377 5.1133 43.769 5.07174 44.0846 5.05511C44.4003 5.03018 44.7325 4.96368 44.8156 4.9055C44.8903 4.85562 45.1644 4.26547 45.4219 3.6005Z" fill="black" fill-opacity="0.64"/>
<path d="M17.4052 6.33517C17.4882 6.29361 17.754 5.72008 18.0697 4.93043C18.3521 4.19897 18.6096 3.62544 18.6345 3.65869C18.6594 3.70025 18.9003 4.27378 19.1578 4.94706C19.4734 5.78658 19.6811 6.2188 19.814 6.30192C19.9303 6.38505 20.2127 6.42661 20.6197 6.43492C20.9602 6.44323 21.5749 6.46817 22.7045 6.55129L21.5832 7.46561C20.9602 7.97265 20.4369 8.41319 20.4203 8.46306C20.4037 8.51293 20.5615 9.16128 20.7526 9.91768C20.9519 10.6741 21.1097 11.2975 21.0931 11.3058C21.0848 11.3141 20.5698 10.9899 19.9552 10.591C19.3405 10.192 18.7674 9.84287 18.6926 9.80962C18.5847 9.76806 18.2607 9.9343 17.6128 10.3582C17.0978 10.6907 16.5746 11.0398 16.4417 11.1229C16.3171 11.2144 16.1842 11.2642 16.1509 11.2227C16.1177 11.1894 16.2506 10.5743 16.4417 9.85118C16.6327 9.13634 16.7656 8.49631 16.7324 8.42981C16.6992 8.36332 16.1842 7.91447 14.5146 6.53466L15.8851 6.46817C16.641 6.43492 17.3221 6.37673 17.4052 6.33517Z" fill="black" fill-opacity="0.64"/>
<path d="M7.70356 14.3231C7.92782 13.7495 8.1604 13.1511 8.22685 12.9931L8.35144 12.7022L8.88304 14.0737C9.18206 14.8301 9.46447 15.4701 9.51431 15.5034C9.57245 15.5366 10.2369 15.5865 11.0011 15.6281C11.757 15.6613 12.3633 15.7195 12.3467 15.7611C12.3301 15.7943 11.8483 16.2016 11.2669 16.6754C10.6938 17.1409 10.212 17.5814 10.1954 17.6479C10.1705 17.7144 10.3117 18.3794 10.511 19.1191C10.7021 19.8672 10.8516 20.474 10.8433 20.474C10.8267 20.474 10.2951 20.1332 9.65551 19.7259C9.01593 19.3186 8.4262 18.9778 8.35144 18.9778C8.26838 18.9778 7.67864 19.3103 7.03906 19.7176C6.39949 20.1249 5.86789 20.4574 5.85128 20.4491C5.83467 20.4408 5.97587 19.8589 6.16691 19.169C6.34965 18.4708 6.49916 17.8308 6.49916 17.756C6.50747 17.6728 6.36626 17.4733 6.19183 17.3154C6.0174 17.1575 5.52734 16.7419 5.10372 16.4011C4.68011 16.0603 4.33955 15.7527 4.33955 15.7195C4.33955 15.6779 4.94591 15.6364 5.69346 15.6114C6.549 15.5782 7.0889 15.5283 7.17196 15.4618C7.24672 15.4036 7.4876 14.8966 7.70356 14.3231Z" fill="black" fill-opacity="0.64"/>
<path d="M3.13516 29.584C3.23483 29.5092 3.49232 28.9689 3.79965 28.171C4.07376 27.4561 4.31464 26.9159 4.34786 26.974C4.37278 27.0322 4.60535 27.6307 4.86284 28.3123C5.18678 29.1435 5.38613 29.5591 5.50242 29.6173C5.59379 29.6588 6.24998 29.742 6.97261 29.7835C7.69525 29.8334 8.2933 29.875 8.3016 29.8916C8.31822 29.8999 7.85307 30.2989 7.27994 30.781C6.69851 31.2631 6.20014 31.7119 6.16691 31.7784C6.12538 31.8532 6.24167 32.4184 6.42441 33.1084C6.59884 33.7733 6.77326 34.405 6.80649 34.5131C6.85633 34.6793 6.67359 34.5879 5.64362 33.9146C4.97082 33.4658 4.37278 33.1084 4.31463 33.1084C4.25649 33.1084 3.70828 33.4325 3.09363 33.8232C2.47066 34.2222 1.93076 34.5547 1.88923 34.5713C1.83939 34.5879 1.93907 34.0476 2.1135 33.3743C2.28793 32.7011 2.44574 32.1026 2.46236 32.0527C2.48728 31.9945 2.47066 31.8699 2.42913 31.7784C2.3793 31.687 1.87262 31.2298 1.29949 30.7643C0.734671 30.2906 0.269525 29.8999 0.286137 29.8916C0.294443 29.8833 0.909101 29.8334 1.64004 29.7835C2.47066 29.7253 3.02718 29.6505 3.13516 29.584Z" fill="black" fill-opacity="0.64"/>
<path d="M59.0773 29.6173C59.1853 29.5591 59.4012 29.1186 59.7501 28.2042C60.0242 27.4728 60.2734 26.8743 60.2817 26.8743C60.2983 26.8743 60.5309 27.4561 60.7967 28.171C61.0957 28.9939 61.3366 29.5092 61.4445 29.584C61.5442 29.6505 62.1007 29.7253 62.9397 29.7835C63.6706 29.8334 64.277 29.8833 64.2853 29.8916C64.3019 29.8999 63.845 30.2906 63.2719 30.7643C62.6988 31.2298 62.1921 31.687 62.1506 31.7784C62.1007 31.8699 62.0841 31.9945 62.109 32.0527C62.1257 32.1026 62.2918 32.7011 62.4579 33.3743C62.6323 34.0476 62.732 34.5879 62.6905 34.5713C62.6406 34.5547 62.1007 34.2222 61.4861 33.8232C60.8631 33.4325 60.3149 33.1084 60.2568 33.1084C60.1986 33.1084 59.6006 33.4658 58.9278 33.9146C57.9061 34.5879 57.7151 34.6793 57.7649 34.5131C57.7981 34.405 57.9726 33.7733 58.147 33.1084C58.3297 32.4184 58.446 31.8532 58.4045 31.7784C58.3713 31.7119 57.8729 31.2631 57.2915 30.781C56.7183 30.2989 56.2532 29.8999 56.2698 29.8916C56.2781 29.875 56.8762 29.8334 57.5988 29.7835C58.3214 29.742 58.9859 29.6588 59.0773 29.6173Z" fill="black" fill-opacity="0.64"/>
<path d="M7.78662 42.3597C7.8946 42.3015 8.11056 41.8526 8.44281 40.9716C8.7086 40.2567 8.9661 39.6749 9.00763 39.6749C9.04916 39.6749 9.29834 40.2567 9.55584 40.9716C9.87978 41.861 10.0791 42.2932 10.1954 42.3597C10.2868 42.4012 10.9014 42.4761 11.5659 42.5176C12.2221 42.5509 12.8368 42.5924 12.9198 42.6091C13.0195 42.6174 12.7039 42.9166 11.9397 43.54C11.3251 44.0387 10.8184 44.5125 10.8184 44.579C10.8184 44.6455 10.9679 45.2855 11.1506 45.9921C11.3334 46.6986 11.4663 47.2971 11.4413 47.322C11.4164 47.3469 10.943 47.0643 10.3781 46.6903C9.82163 46.3245 9.27343 45.9754 9.17375 45.9256C9.03255 45.8508 8.94118 45.8508 8.79997 45.9256C8.7003 45.9754 8.15209 46.3245 7.59558 46.6903C7.03076 47.0643 6.5573 47.3469 6.53239 47.322C6.50747 47.2971 6.64037 46.7069 6.8231 46.017C7.00584 45.3188 7.16366 44.6788 7.16366 44.6039C7.16366 44.5125 6.69851 44.0803 6.03401 43.54C5.26985 42.9166 4.95421 42.6174 5.05389 42.6091C5.13695 42.5924 5.75161 42.5509 6.4161 42.5176C7.07229 42.4761 7.69525 42.4096 7.78662 42.3597Z" fill="black" fill-opacity="0.64"/>
<path d="M55.9957 41.8776C56.0788 41.6532 56.3113 41.0547 56.5107 40.5643C56.71 40.0656 56.8928 39.6915 56.926 39.7331C56.9509 39.7663 57.1835 40.3482 57.441 41.0298C57.7898 41.9275 57.956 42.2766 58.0972 42.3514C58.1968 42.4012 58.8281 42.4761 59.4926 42.5176C60.1488 42.5509 60.7551 42.5924 60.8299 42.6091C60.913 42.6174 60.5475 42.9665 59.8913 43.4984C59.2933 43.9805 58.7783 44.4294 58.745 44.4959C58.7118 44.5707 58.8281 45.1775 59.0441 45.9921C59.2434 46.7485 59.3929 47.3719 59.3846 47.3719C59.3763 47.3802 58.8447 47.0477 58.2051 46.6321C57.5656 46.2248 56.9675 45.884 56.8761 45.884C56.7848 45.884 56.1867 46.2248 55.5472 46.6404C54.9076 47.056 54.376 47.3885 54.3677 47.3802C54.3594 47.3719 54.5172 46.7485 54.7165 45.9921C54.9325 45.1525 55.0488 44.5707 55.0073 44.4959C54.974 44.4294 54.4591 43.9805 53.8693 43.4984C53.2879 43.0246 52.8393 42.6257 52.8892 42.6091C52.9307 42.6007 53.5454 42.5509 54.2597 42.5093C54.9657 42.4677 55.6136 42.4012 55.6967 42.3597C55.7797 42.3264 55.9126 42.1103 55.9957 41.8776Z" fill="black" fill-opacity="0.64"/>
<path d="M16.8154 51.7191C16.8985 51.6775 17.1726 51.104 17.4799 50.3143C17.7623 49.5829 18.0198 49.0093 18.0448 49.0426C18.078 49.0841 18.3189 49.6826 18.5847 50.3891C18.8588 51.0874 19.1329 51.6941 19.2076 51.7274C19.2741 51.7606 19.9386 51.8271 20.6778 51.8604C21.4254 51.9019 22.0234 51.9601 22.0068 51.9851C21.9985 52.0183 21.5167 52.4256 20.9519 52.8911C20.3788 53.3565 19.8887 53.7805 19.8555 53.8303C19.8223 53.8885 19.9635 54.5452 20.1628 55.3016C20.3622 56.058 20.52 56.6814 20.5117 56.6897C20.5034 56.7063 20.0964 56.457 19.6229 56.1494C19.1412 55.8335 18.5763 55.4844 18.0032 55.1353L16.7739 55.925C16.1011 56.3572 15.528 56.7146 15.5114 56.7146C15.4864 56.7146 15.636 56.0912 15.8353 55.3265C16.0762 54.4122 16.1759 53.8885 16.1343 53.8054C16.0928 53.7389 15.5861 53.3067 15.0213 52.8495C14.4482 52.3924 13.9747 52.0017 13.9747 51.9767C13.9747 51.9518 14.5811 51.9019 15.3203 51.8604C16.0596 51.8271 16.7324 51.7606 16.8154 51.7191Z" fill="black" fill-opacity="0.64"/>
<path d="M45.3306 52.8495C45.4302 52.783 45.6794 52.251 45.9951 51.4448C46.2692 50.7383 46.51 50.1813 46.5433 50.2146C46.5682 50.2478 46.8174 50.8463 47.0832 51.5528C47.349 52.251 47.6231 52.8578 47.6978 52.8911C47.7643 52.9326 48.4122 52.9908 49.1348 53.0324C49.8574 53.0656 50.4638 53.1155 50.4804 53.1404C50.497 53.1654 50.0236 53.581 49.4338 54.0797C48.7112 54.6782 48.3623 55.0273 48.3623 55.1353C48.3623 55.2268 48.5118 55.8751 48.6946 56.5733C48.8773 57.2632 49.0102 57.8451 49.0019 57.8534C48.9936 57.8617 48.462 57.5375 47.8224 57.1302C47.1828 56.7229 46.5931 56.3821 46.51 56.3821C46.427 56.3821 45.8455 56.7146 45.206 57.1302C44.5664 57.5458 44.0265 57.87 44.0099 57.8617C43.9933 57.8451 44.1428 57.2383 44.3421 56.5068C44.5415 55.7754 44.6827 55.1187 44.6661 55.0522C44.6411 54.9857 44.1428 54.5286 43.5447 54.0381C42.6311 53.2817 42.4898 53.1321 42.6477 53.1072C42.7473 53.0823 43.362 53.0407 44.0016 53.0158C44.7325 52.9825 45.2226 52.9243 45.3306 52.8495Z" fill="black" fill-opacity="0.64"/>
<path d="M31.019 56.6232C31.1021 56.5816 31.3762 56.0081 31.6835 55.2185C31.9659 54.487 32.2234 53.9135 32.2566 53.9467C32.2815 53.9883 32.5224 54.5867 32.7965 55.2933C33.0623 55.9915 33.3364 56.5983 33.4112 56.6315C33.4776 56.6648 34.1421 56.7313 34.8814 56.7645C35.6289 56.8061 36.227 56.8642 36.2104 56.8892C36.2021 56.9224 35.7452 57.3048 35.197 57.7536C34.6488 58.2025 34.1504 58.6264 34.1006 58.7012C34.0175 58.8093 34.0757 59.1168 34.3664 60.2057C34.5658 60.9621 34.7236 61.5855 34.7153 61.5938C34.707 61.6021 34.2252 61.3112 33.6604 60.9455C33.0872 60.5714 32.5141 60.2223 32.3895 60.1558C32.1736 60.0395 32.1237 60.0644 31.0024 60.7875C30.3628 61.2031 29.8063 61.519 29.7731 61.4941C29.7399 61.4691 29.8644 60.8624 30.0638 60.1392C30.2798 59.308 30.3794 58.7926 30.3379 58.7095C30.2964 58.643 29.798 58.2108 29.2249 57.7536C28.6517 57.2965 28.1783 56.9058 28.1783 56.8809C28.1783 56.8559 28.7846 56.8061 29.5239 56.7645C30.2631 56.7313 30.9359 56.6648 31.019 56.6232Z" fill="black" fill-opacity="0.64"/>
<path fill-rule="evenodd" clip-rule="evenodd" d="M56.2947 10.6658C56.0206 10.6242 55.3146 10.5826 54.7165 10.5909C54.1185 10.5909 53.3959 10.6491 53.0968 10.7073C52.7978 10.7738 52.3327 10.8985 52.0586 10.9982C51.7845 11.0897 51.2695 11.3307 50.9123 11.5219C50.5468 11.7131 49.9903 12.0871 49.6664 12.3448C49.3341 12.6025 48.8358 13.1095 48.545 13.4669C48.2377 13.8493 47.8307 14.4893 47.5649 15.0296C47.2659 15.6447 47.0582 16.2016 46.942 16.7336C46.7924 17.4152 46.7758 17.7144 46.8091 18.8531C46.834 19.7093 46.9004 20.3576 46.9835 20.6818C47.0582 20.9561 47.324 21.5878 47.5732 22.0948C47.8307 22.6268 48.246 23.2835 48.545 23.6575C48.8358 24.0149 49.3341 24.522 49.6581 24.7796C49.9903 25.0373 50.5884 25.428 50.9871 25.6358C51.3941 25.8519 51.9672 26.1013 52.2662 26.1927C52.5652 26.2924 53.0304 26.4088 53.3045 26.4587C53.5786 26.5002 54.2514 26.5418 54.7996 26.5418C55.3478 26.5418 56.0206 26.5002 56.2947 26.4587C56.5688 26.4088 57.034 26.2924 57.333 26.1927C57.632 26.1013 58.2051 25.8519 58.6121 25.6358C59.0108 25.428 59.6089 25.0373 59.9411 24.7796C60.2651 24.522 60.7634 24.0149 61.0542 23.6575C61.3532 23.2835 61.7685 22.6185 62.026 22.0948C62.2752 21.5878 62.541 20.9395 62.624 20.6402C62.7403 20.2163 62.7735 19.7758 62.7735 18.5622C62.7735 17.3487 62.7403 16.9081 62.624 16.4842C62.541 16.185 62.2752 15.5283 62.026 15.0296C61.7685 14.5059 61.3532 13.841 61.0542 13.4669C60.7634 13.1095 60.2651 12.6025 59.9411 12.3448C59.6089 12.0871 59.0108 11.6964 58.6121 11.4886C58.2051 11.2725 57.632 11.0232 57.333 10.9317C57.034 10.832 56.5688 10.7156 56.2947 10.6658ZM53.969 12.0871C53.6949 12.1287 53.2048 12.2368 52.8892 12.3365C52.5736 12.4279 52.0669 12.6357 51.7679 12.7937C51.4688 12.9433 50.9871 13.2675 50.688 13.5168C50.389 13.7579 49.9488 14.1984 49.7079 14.4893C49.467 14.7886 49.1431 15.2707 48.9936 15.5699C48.8358 15.8691 48.6032 16.4427 48.4786 16.8583C48.2959 17.4817 48.2543 17.7643 48.2543 18.5622C48.2543 19.3602 48.2959 19.6428 48.4786 20.2662C48.6032 20.6735 48.8358 21.2554 48.9853 21.5546C49.1431 21.8538 49.467 22.3359 49.7162 22.6352C49.9571 22.9344 50.3973 23.3749 50.688 23.616C50.9871 23.857 51.527 24.2061 51.8924 24.389C52.2579 24.5636 52.856 24.7963 53.2214 24.8877C53.7032 25.0124 54.1351 25.0623 54.7996 25.0623C55.4641 25.0623 55.896 25.0124 56.3778 24.8877C56.7433 24.7963 57.3413 24.5636 57.7068 24.389C58.0722 24.2061 58.6121 23.857 58.9112 23.616C59.2019 23.3749 59.6421 22.9344 59.883 22.6352C60.1322 22.3359 60.4561 21.8538 60.6139 21.5546C60.7634 21.2554 60.996 20.6735 61.1206 20.2662C61.3034 19.6428 61.3449 19.3602 61.3449 18.5622C61.3449 17.7643 61.3034 17.4817 61.1206 16.8583C60.996 16.4427 60.7634 15.8691 60.6139 15.5699C60.4561 15.2707 60.1322 14.7886 59.883 14.4893C59.6421 14.1901 59.2019 13.7496 58.9112 13.5085C58.6121 13.2675 58.0722 12.9183 57.7068 12.7355C57.3413 12.5609 56.7599 12.3365 56.4193 12.2534C56.0788 12.1619 55.4973 12.0788 55.1319 12.0539C54.7664 12.029 54.2431 12.0456 53.969 12.0871Z" fill="black" fill-opacity="0.64"/>
<path d="M20.4951 26.6083C20.0465 26.4836 19.5731 26.4337 18.4185 26.4088C17.0978 26.3756 16.8487 26.3922 16.3004 26.5418C15.9599 26.6416 15.4532 26.8327 15.1791 26.9823C14.905 27.1236 14.4731 27.4478 14.2156 27.7055C13.9332 27.9798 13.6342 28.3954 13.4597 28.7445C13.2936 29.0604 13.1192 29.5508 13.0527 29.8251C12.9946 30.0994 12.9531 30.7145 12.9531 31.1966C12.9531 31.6787 12.9946 32.2938 13.0527 32.5681C13.1109 32.8424 13.3019 33.3494 13.4763 33.6902C13.6757 34.0725 13.9664 34.4798 14.2405 34.7375C14.4814 34.9702 14.9548 35.2944 15.2788 35.4607C15.611 35.6352 16.1177 35.8264 16.4001 35.8929C16.7324 35.9677 17.347 36.0176 18.0863 36.0176C18.9086 36.0176 19.4734 35.9677 19.9967 35.8596C20.412 35.7765 20.9851 35.6103 21.2842 35.5022L21.8241 35.2944L21.8656 30.8641H18.2939V32.2771C19.3571 32.2771 19.5731 32.3104 19.6645 32.4018C19.7558 32.4932 19.789 32.726 19.789 33.3577C19.789 33.9894 19.7558 34.2222 19.6645 34.3136C19.598 34.3801 19.3654 34.4632 19.1412 34.4881C18.9252 34.5214 18.4517 34.5297 18.0863 34.5048C17.671 34.4798 17.264 34.3967 17.0065 34.2887C16.7573 34.1806 16.4084 33.9229 16.126 33.632C15.7605 33.2496 15.6193 33.0252 15.4615 32.5681C15.3037 32.1109 15.2622 31.82 15.2705 31.1966C15.2705 30.5898 15.3203 30.2739 15.4698 29.8251C15.6276 29.3513 15.7605 29.1518 16.1675 28.7279C16.6078 28.2873 16.7573 28.1959 17.2557 28.0463C17.6377 27.9299 18.0614 27.8717 18.5016 27.8717C18.892 27.8717 19.4402 27.9382 19.8306 28.038C20.196 28.1294 20.7276 28.3206 21.0101 28.4536L21.5333 28.7029V26.9574C21.1762 26.8161 20.819 26.6997 20.4951 26.6083Z" fill="black" fill-opacity="0.64"/>
<path fill-rule="evenodd" clip-rule="evenodd" d="M26.0436 26.5418H23.8591V35.9344C25.4372 35.9344 26.5503 35.8929 27.3477 35.8596C28.1451 35.8181 29.0587 35.7183 29.3827 35.6435C29.7066 35.5687 30.1884 35.3859 30.4542 35.2445C30.7283 35.0949 31.1436 34.804 31.3679 34.5962C31.642 34.3552 31.9161 33.9811 32.1403 33.5572C32.3231 33.1998 32.5224 32.6761 32.5723 32.4018C32.6221 32.1275 32.6636 31.5872 32.6636 31.1966C32.6636 30.8059 32.6221 30.2656 32.5723 29.9913C32.5224 29.717 32.3231 29.1934 32.1403 28.8359C31.9078 28.3954 31.642 28.038 31.3346 27.7637C31.0855 27.5309 30.6203 27.2234 30.2964 27.0655C29.9309 26.8909 29.4408 26.7413 28.9674 26.6665C28.4441 26.5751 27.5719 26.5418 26.0436 26.5418ZM26.2429 34.2388C26.1184 34.1141 26.1017 33.8564 26.0934 31.2464C26.0934 28.6198 26.1017 28.3705 26.2346 28.2458C26.3592 28.1294 26.5171 28.1128 27.2563 28.1377C27.9125 28.171 28.2614 28.2292 28.6351 28.3705C28.984 28.5035 29.2664 28.7029 29.5654 29.0105C29.9226 29.3679 30.0389 29.5591 30.1718 30.0079C30.2714 30.3404 30.3379 30.8059 30.3379 31.1301C30.3379 31.4459 30.2964 31.8698 30.2548 32.086C30.205 32.3104 30.0472 32.6927 29.8977 32.9421C29.7565 33.1915 29.4657 33.5156 29.2581 33.6736C29.0504 33.8232 28.6434 34.0227 28.3444 34.1058C28.0454 34.1889 27.4889 34.2887 27.0985 34.3136C26.5087 34.3635 26.3675 34.3468 26.2429 34.2388Z" fill="black" fill-opacity="0.64"/>
<path fill-rule="evenodd" clip-rule="evenodd" d="M36.9247 26.5418H34.4079V35.9344H36.6506C36.6506 33.233 36.6755 32.834 36.7586 32.7509C36.8333 32.6844 37.3151 32.6262 38.154 32.5847C38.86 32.5514 39.6574 32.4683 39.9315 32.3935C40.2056 32.327 40.6293 32.1525 40.8784 32.0028C41.1193 31.8532 41.4266 31.5872 41.5512 31.4044C41.6841 31.2215 41.8503 30.9056 41.9167 30.6978C42.0081 30.4568 42.0496 30.0495 42.0496 29.5342C42.0496 29.0188 42.0081 28.6115 41.9167 28.3705C41.8503 28.1627 41.6841 27.8468 41.5512 27.6639C41.4266 27.4811 41.1193 27.2151 40.8784 27.0655C40.6293 26.9158 40.2056 26.7413 39.9315 26.6665C39.5328 26.5667 38.9182 26.5418 36.9247 26.5418ZM36.8001 31.0054C36.6672 30.8807 36.6506 30.6895 36.6423 29.584C36.6423 28.4951 36.6589 28.279 36.7752 28.171C36.8832 28.0712 37.0991 28.038 37.7387 28.038C38.2952 28.038 38.6607 28.0795 38.8767 28.171C39.0428 28.2375 39.267 28.3788 39.375 28.4785C39.483 28.5783 39.6242 28.8609 39.6907 29.0936C39.7903 29.476 39.7903 29.5923 39.6907 29.9664C39.6242 30.2074 39.483 30.49 39.375 30.5898C39.267 30.6895 39.0345 30.8308 38.8517 30.9056C38.669 30.9805 38.1623 31.0636 37.7304 31.0885C37.0659 31.1301 36.9164 31.1134 36.8001 31.0054Z" fill="black" fill-opacity="0.64"/>
<path fill-rule="evenodd" clip-rule="evenodd" d="M48.9936 26.5834L43.6361 26.5335L43.6278 35.9344H45.8705C45.8705 32.7925 45.8871 32.5099 46.0034 32.4018C46.0864 32.3187 46.3024 32.2771 46.6263 32.2771C46.8921 32.2771 47.2161 32.3187 47.3407 32.3686C47.4735 32.4101 47.7227 32.6013 47.9055 32.7759C48.138 33.0003 48.4537 33.5323 48.9437 34.5214L49.6498 35.9344C51.4854 35.9344 52.017 35.9178 52.017 35.8929C52.017 35.8679 51.6266 35.0783 51.1532 34.1224C50.6714 33.1748 50.1897 32.3021 50.0734 32.1691C49.9488 32.0444 49.7079 31.8532 49.5252 31.7369C49.3424 31.6205 49.2095 31.4792 49.2345 31.421C49.2594 31.3711 49.4172 31.2714 49.5833 31.2049C49.7578 31.1384 50.0568 30.9223 50.2478 30.7228C50.5053 30.4651 50.6465 30.2324 50.7379 29.8833C50.8376 29.5591 50.8625 29.2183 50.8376 28.7861C50.8043 28.3123 50.7379 28.0546 50.5551 27.7055C50.3392 27.2899 50.2561 27.2151 49.6581 26.9158L48.9936 26.5834ZM46.0117 30.6729C45.8871 30.5565 45.8622 30.3737 45.8622 29.4178C45.8538 28.4619 45.8788 28.2873 45.995 28.1627C46.1196 28.0546 46.2858 28.0297 46.942 28.0546C47.4237 28.0712 47.8307 28.1294 47.9802 28.2125C48.1131 28.279 48.2876 28.4286 48.3789 28.5367C48.462 28.6531 48.5534 28.8941 48.5783 29.077C48.6115 29.2599 48.5866 29.584 48.5367 29.7835C48.4786 29.9913 48.354 30.2407 48.2543 30.3404C48.1547 30.4319 47.9553 30.5482 47.8224 30.5981C47.6812 30.648 47.2493 30.7145 46.8672 30.7477C46.2692 30.7976 46.1363 30.7893 46.0117 30.6729Z" fill="black" fill-opacity="0.64"/>
<path d="M57.5407 15.7361C57.8148 15.5117 58.3048 15.1792 58.6205 14.9963C58.9361 14.8052 59.2268 14.6556 59.26 14.6556C59.285 14.6556 59.3016 14.7387 59.2766 14.8384C59.26 14.9465 59.1853 15.4203 59.1105 15.9024C58.9859 16.6421 58.9776 16.8666 59.069 17.3985L59.0707 17.4099C59.1198 17.7456 59.1602 18.022 59.1438 18.0303C59.1271 18.0303 58.9112 18.13 58.662 18.2547C58.4128 18.3794 57.8729 18.7285 57.4576 19.036C57.0506 19.3519 56.2449 20.0667 55.6635 20.6402C55.0903 21.2138 54.3345 22.0367 53.9773 22.4689C53.6201 22.9011 53.3045 23.2918 53.2713 23.325C53.2464 23.3583 52.9556 23.0591 52.6317 22.6601C52.3078 22.2611 51.6848 21.5878 51.2612 21.1805C50.8293 20.7649 50.2561 20.2828 49.4837 19.7509L50.7711 19.1108C51.4771 18.7617 52.0669 18.4791 52.0752 18.4957C52.0835 18.5124 52.3078 19.0443 52.5819 19.6844C53.0055 20.6901 53.0969 20.848 53.263 20.848C53.4125 20.848 53.5454 20.6818 53.9192 20.075C54.1767 19.6511 54.6667 18.928 55.0073 18.4542C55.3478 17.9887 55.9459 17.2739 56.3363 16.8666C56.7267 16.4676 57.2666 15.9522 57.5407 15.7361Z" fill="black" fill-opacity="0.64"/>
</g>
<defs>
<clipPath id="clip0_1765_2334">
<rect width="64" height="64" fill="white" transform="translate(0.285706)"/>
</clipPath>
</defs>
</svg>
