<svg width="97" height="64" viewBox="0 0 97 64" fill="none" xmlns="http://www.w3.org/2000/svg">
<g clip-path="url(#clip0_1765_2350)">
<path fill-rule="evenodd" clip-rule="evenodd" d="M71.9919 12.0873C72.318 12.0805 72.9078 12.1147 73.3102 12.149C73.7127 12.1901 74.3372 12.2861 74.698 12.3684C75.0588 12.4438 75.6694 12.6151 76.0511 12.7454C76.4327 12.8756 77.0433 13.1361 77.4041 13.3143C77.7649 13.4926 78.3409 13.8285 78.6878 14.0547C79.0347 14.2809 79.576 14.6922 79.9021 14.9732C80.2282 15.2543 80.7278 15.7479 81.0123 16.0837C81.2968 16.4128 81.7131 16.9475 81.9352 17.2765C82.1641 17.6055 82.5111 18.2156 82.7123 18.6269C82.9135 19.0382 83.1772 19.6757 83.2952 20.0322C83.42 20.3887 83.5866 20.9919 83.6698 21.3689C83.8017 21.9584 83.8225 22.2669 83.8225 23.6311C83.8225 25.0089 83.8017 25.2968 83.6698 25.9275C83.5796 26.3251 83.4062 26.9557 83.2743 27.3327C83.1494 27.7098 82.9551 28.2033 82.858 28.4295C82.7539 28.6557 82.5111 29.1219 82.3098 29.4578C82.1156 29.7937 81.7686 30.3215 81.5396 30.6231C81.3107 30.9247 80.8735 31.432 80.5682 31.7542C80.256 32.0764 79.9298 32.426 79.6592 32.7276L79.5898 46.9379L79.2498 47.5206C79.0694 47.8428 78.8127 48.2403 78.6809 48.4117C78.549 48.5831 78.2992 48.8367 78.1188 48.9738C77.9315 49.1109 77.5082 49.3783 76.5368 49.9198H18.8756L18.3551 49.6319C18.0707 49.4811 17.6543 49.2275 17.4323 49.0698C17.2033 48.9121 16.9049 48.6311 16.7592 48.446C16.6135 48.2541 16.3498 47.8428 15.8503 46.9379L15.8572 21.4032L16.1139 20.9371C16.2527 20.6834 16.5025 20.2858 16.669 20.0459C16.8286 19.8128 17.1131 19.5044 17.2935 19.3604C17.4809 19.2233 17.8972 18.956 18.8409 18.4556L61.7294 18.3527L61.9098 18.0443C62.0139 17.8729 62.2707 17.4753 62.4858 17.1531C62.7078 16.8309 63.1033 16.3237 63.367 16.0221C63.6307 15.7204 64.1441 15.2269 64.5049 14.9321C64.8658 14.6305 65.4347 14.2055 65.7817 13.9793C66.1286 13.7599 66.7184 13.4309 67.1 13.2458C67.4817 13.0607 68.12 12.8002 68.5225 12.67C68.9249 12.5397 69.5009 12.3821 69.8062 12.3204C70.1115 12.2655 70.5972 12.1901 70.8817 12.1559C71.1662 12.1216 71.6658 12.0942 71.9919 12.0873ZM70.1878 14.4523C69.9033 14.514 69.4037 14.6579 69.0776 14.7676C68.7515 14.8841 68.2103 15.1172 67.8633 15.2886C67.5164 15.4668 66.989 15.7958 66.6837 16.0152C66.3784 16.2414 65.8511 16.7075 65.5111 17.0434C65.1711 17.3862 64.6992 17.9277 64.4494 18.2499C64.2066 18.5721 63.8596 19.1273 63.6723 19.4838C63.4849 19.8403 63.2213 20.4572 63.0825 20.8548C62.9298 21.3141 62.8119 21.8145 62.7633 22.2258C62.7286 22.5822 62.6939 23.1718 62.6939 23.5282C62.6939 23.8847 62.7286 24.5291 62.7633 24.9472C62.8119 25.5025 62.9021 25.9206 63.0686 26.421C63.1935 26.8118 63.4433 27.4013 63.6168 27.744C63.7902 28.0799 64.1164 28.6215 64.3454 28.9436C64.5813 29.2658 65.0878 29.8416 65.4833 30.2324C65.8788 30.6163 66.4478 31.1167 66.7531 31.3429C67.0584 31.576 67.6551 31.9256 68.0715 32.1243C68.4878 32.33 69.147 32.5973 69.5286 32.7276L70.2225 32.9538H74.1082C75.2878 32.5562 75.9817 32.2683 76.398 32.0627C76.8143 31.857 77.3764 31.528 77.647 31.3292C77.9107 31.1304 78.4449 30.6574 78.8266 30.2804C79.2082 29.9033 79.687 29.3755 79.8882 29.115C80.0894 28.8477 80.4017 28.3404 80.589 27.984C80.7833 27.6275 81.047 27.0243 81.1858 26.6472C81.3315 26.2702 81.4841 25.7287 81.5396 25.4476C81.5951 25.146 81.6298 24.4399 81.6368 23.7476C81.6368 23.1032 81.6021 22.3286 81.5605 22.0338C81.5188 21.7459 81.3939 21.225 81.276 20.8891C81.1649 20.5463 80.936 19.9911 80.7694 19.6552C80.6029 19.3124 80.2907 18.7915 80.0756 18.4898C79.8535 18.1882 79.4788 17.7221 79.236 17.4616C79 17.1943 78.549 16.7624 78.2368 16.5019C77.9245 16.2346 77.4596 15.885 77.2029 15.7204C76.9531 15.5491 76.4951 15.2954 76.1898 15.1583C75.8845 15.0144 75.3988 14.8224 75.1143 14.7333C74.8298 14.6374 74.2956 14.5071 73.9347 14.4454C73.5739 14.3837 72.7898 14.322 72.2 14.3083C71.6102 14.2946 71.0274 14.3015 70.9164 14.3152C70.7984 14.3289 70.4723 14.3974 70.1878 14.4523ZM23.0041 33.605H24.496C24.5862 30.4449 24.6139 29.5195 24.6209 29.5058C24.6278 29.4989 25.5021 29.4646 26.5637 29.4372L28.4858 29.3892V33.605H30.0123V24.3508H28.4858V28.0525H24.5307V24.3508H23.0041V33.605ZM32.4409 25.6053C32.4409 26.2908 32.4617 28.3541 32.4964 30.1981L32.5449 33.5365H34.0021C34.0854 29.4715 34.1062 27.4081 34.1062 26.3251V24.3508H32.4409V25.6053ZM36.5347 33.6119H38.1307V30.1844C39.5878 30.1844 40.1429 30.1364 40.469 30.0747C40.7674 30.013 41.2254 29.8622 41.496 29.7457C41.8082 29.6017 42.1135 29.3961 42.3425 29.1699C42.5437 28.9711 42.7727 28.6763 42.849 28.5186C42.9254 28.361 43.0225 27.984 43.0711 27.6823C43.1335 27.2779 43.1335 27.0105 43.0849 26.6884C43.0433 26.4416 42.9392 26.0851 42.849 25.9C42.7519 25.7081 42.5437 25.4202 42.3841 25.2625C42.2176 25.1049 41.8915 24.8787 41.6486 24.769C41.3849 24.6387 41.0172 24.5359 40.698 24.4948C40.4135 24.4605 39.3658 24.4057 38.3666 24.3782L36.5556 24.3303L36.5347 33.6119ZM45.5066 27.4218C44.9654 29.0396 44.2992 31.055 44.0286 31.8981C43.758 32.7481 43.5498 33.4885 43.5776 33.5433C43.6123 33.6324 43.7441 33.6393 44.3062 33.6119C44.6809 33.5982 45.007 33.5639 45.0278 33.5433C45.0556 33.5296 45.2221 33.0018 45.4094 32.378C45.7356 31.3018 45.7564 31.2469 45.9507 31.1989C46.0547 31.1715 46.6307 31.1304 47.2205 31.103C47.8103 31.0824 48.4486 31.0755 48.629 31.103C48.8927 31.1372 48.976 31.1784 49.0523 31.336C49.1009 31.4389 49.2813 31.9941 49.4478 32.5699L49.7531 33.6187C51.3005 33.6119 51.3143 33.6119 51.3143 33.4611C51.3143 33.3719 50.6551 31.3155 49.8503 28.882C49.0454 26.4553 48.3862 24.4605 48.3792 24.4536C48.3723 24.4468 48.0045 24.4262 47.5674 24.4057C47.1233 24.3782 46.707 24.392 46.6307 24.4262C46.5196 24.4742 46.2837 25.1186 45.5066 27.4218ZM54.3674 26.9146C53.9025 28.3198 53.278 30.205 52.9796 31.1098C52.6882 32.0147 52.3898 32.9195 52.3274 33.1183L52.2164 33.4748C52.5147 33.5502 52.8617 33.5776 53.1809 33.5776H53.7637C54.2286 31.9872 54.409 31.4389 54.4576 31.3292L54.5409 31.1441C57.2331 31.1372 57.6147 31.1647 57.6772 31.2263C57.7188 31.2812 57.9131 31.809 58.1005 32.4123C58.4266 33.4611 58.4543 33.5159 58.6417 33.557C58.7527 33.5776 59.0719 33.5982 59.3494 33.605C59.627 33.6119 59.8907 33.5982 59.9392 33.5776C60.0017 33.5502 59.967 33.3377 59.7935 32.7344C59.6617 32.2957 59.1205 30.6094 58.5862 28.9848C58.0519 27.367 57.4968 25.6601 57.3441 25.2008L57.0735 24.3577H55.207L54.3674 26.9146ZM23.9062 37.6426C23.7396 37.7454 23.476 37.9373 23.3303 38.0676C23.1845 38.2047 22.9764 38.4515 22.8654 38.6228C22.7543 38.7942 22.6156 39.0684 22.56 39.2398C22.4976 39.4112 22.4213 39.8225 22.3866 40.1652C22.3519 40.5148 22.3519 41.0152 22.3796 41.3306C22.4282 41.735 22.5045 42.0023 22.6849 42.3588C22.8307 42.6536 23.0596 42.962 23.2817 43.1608C23.476 43.3391 23.8437 43.5858 24.1005 43.7092C24.5307 43.9149 24.6209 43.9354 25.2592 43.9354C25.8768 43.9354 26.0017 43.9149 26.3347 43.7504C26.5498 43.6475 26.8205 43.4624 26.9523 43.3391L27.1813 43.1128C26.987 42.7701 26.8551 42.6261 26.7719 42.5782C26.64 42.5028 26.5845 42.5165 26.3556 42.6741C26.2098 42.7701 25.967 42.8935 25.8143 42.9415C25.6547 42.9895 25.3633 43.0169 25.1205 42.9963C24.8637 42.9757 24.5862 42.9003 24.3919 42.7975C24.1837 42.681 24.0103 42.5165 23.8715 42.2902C23.7605 42.0983 23.6217 41.7624 23.5731 41.5362C23.5107 41.2757 23.4898 40.8507 23.5037 40.4051C23.5315 39.8499 23.5731 39.6031 23.6911 39.3426C23.7743 39.1507 23.9478 38.897 24.0658 38.7668C24.1907 38.6434 24.4127 38.472 24.5654 38.3966C24.7735 38.287 24.9747 38.2458 25.3356 38.2458C25.7727 38.2458 25.8629 38.2664 26.1682 38.4652L26.5082 38.6845L27.1743 38.0402C26.9315 37.8551 26.6886 37.7111 26.4735 37.6015C26.2654 37.4918 25.9045 37.3684 25.6756 37.3273C25.4466 37.2861 25.2315 37.2519 25.1898 37.2587C25.1551 37.2587 24.9192 37.3067 24.6694 37.3615C24.4266 37.4164 24.0796 37.5398 23.9062 37.6426ZM29.2837 37.6289C29.1311 37.718 28.8605 37.9442 28.68 38.1361C28.4996 38.3281 28.2707 38.6434 28.1805 38.8422C28.0833 39.041 27.9584 39.4386 27.896 39.7196C27.8127 40.083 27.7919 40.3983 27.8196 40.8164C27.8474 41.1386 27.9098 41.5842 27.9723 41.8104C28.0347 42.0366 28.1666 42.3725 28.2707 42.5507C28.3678 42.7358 28.6176 43.0374 28.8188 43.2225C29.02 43.4076 29.36 43.6407 29.5821 43.7435C29.936 43.9149 30.0609 43.9354 30.6715 43.9354C31.3029 43.9354 31.407 43.9149 31.7817 43.7298C32.0107 43.6201 32.3715 43.3596 32.5866 43.1471C32.8017 42.9415 33.0584 42.5987 33.1556 42.3931C33.2527 42.1874 33.3845 41.8173 33.447 41.5705C33.5025 41.3237 33.5511 40.9055 33.5511 40.6451C33.558 40.3777 33.4886 39.9184 33.4123 39.6168C33.336 39.3152 33.1833 38.9108 33.0792 38.7257C32.9821 38.5337 32.7254 38.2115 32.5103 37.999C32.2466 37.7317 32.0107 37.574 31.7331 37.4712C31.5111 37.389 31.1086 37.3067 30.8311 37.2861C30.4911 37.2587 30.2066 37.2861 29.9429 37.3615C29.7347 37.4164 29.4364 37.5398 29.2837 37.6289ZM34.9388 43.9012H35.9796C35.9172 39.795 35.9311 39.3083 36.0005 39.3015C36.049 39.3015 36.3335 39.939 36.6666 40.7959C36.9858 41.6185 37.3188 42.4411 37.4021 42.633C37.4854 42.8181 37.6103 43.01 37.6727 43.058C37.7351 43.106 37.8462 43.1334 37.9225 43.1128C38.0196 43.0923 38.1584 42.8866 38.3319 42.5096C38.4845 42.2011 38.8315 41.3443 39.116 40.6039C39.4537 39.7082 39.6549 39.2626 39.7196 39.2672C39.8029 39.2741 39.8098 39.6305 39.7752 41.5842L39.7266 43.9012H40.7674V37.389L39.5531 37.3821C39.3172 37.999 39.0327 38.7599 38.769 39.4797C38.5054 40.1926 38.2139 40.9672 38.1237 41.1935C38.0335 41.4265 37.9156 41.6048 37.86 41.6048C37.7976 41.6048 37.6588 41.3306 37.4854 40.885C37.3396 40.4874 36.9927 39.5483 36.7151 38.7942L36.2156 37.4232L34.9458 37.3821L34.9388 43.9012ZM42.5715 43.9012C43.3556 43.8326 43.5845 43.812 43.5915 43.8052C43.5984 43.8052 43.6331 43.2842 43.6609 42.6604L43.7164 41.5156C44.9307 41.4608 45.3262 41.406 45.6245 41.3031C45.8743 41.2209 46.2282 41.0426 46.4156 40.8987C46.6029 40.7616 46.818 40.5697 46.8874 40.4737C46.9776 40.3571 47.047 40.1035 47.0886 39.6854C47.1303 39.3495 47.1441 38.945 47.1233 38.7942C47.0956 38.6091 46.9984 38.4241 46.818 38.2115C46.6654 38.0402 46.3947 37.8208 46.2074 37.718C45.9992 37.6083 45.6662 37.5123 45.3331 37.4644C45.0347 37.4232 44.2923 37.389 43.6817 37.389H42.5715V43.9012ZM48.5388 43.9012H52.3551V42.8729H49.649V37.389H48.5388V43.9012ZM53.6041 43.9012H54.7143V37.389H53.6041V43.9012ZM56.8376 40.1652C56.3658 41.5979 55.8939 43.0237 55.7968 43.3391L55.6164 43.9012L56.6919 43.908L57.2539 42.0846C58.2739 42.0572 58.7805 42.0709 59.0511 42.0983L59.5298 42.1531L60.0572 43.8326H61.2368L59.0511 37.389C57.9547 37.389 57.7535 37.4164 57.7327 37.4781C57.7188 37.5192 57.3164 38.7325 56.8376 40.1652ZM62.0694 43.9012H63.2837C63.2005 41.5362 63.1588 40.4737 63.1241 40.0144C63.0825 39.2878 63.0894 39.1712 63.1796 39.1712C63.2421 39.1712 63.4849 39.5414 63.7972 40.1104C64.0747 40.6313 64.6645 41.6939 65.0947 42.4822L65.8858 43.9012H66.9266V37.389C66.1217 37.389 65.8996 37.4095 65.9135 37.4438C65.9274 37.4712 65.9552 38.5337 65.9829 39.8088C66.0176 41.6322 66.0107 42.1189 65.9413 42.1189C65.8927 42.1257 65.5527 41.5636 65.1849 40.8713C64.8102 40.1789 64.2829 39.2055 64.0054 38.7051C63.7209 38.2047 63.4294 37.7248 63.3462 37.6426C63.2698 37.5603 63.0964 37.4712 62.9645 37.4369C62.8396 37.4095 62.5829 37.389 62.4025 37.389H62.0694V43.9012ZM68.2449 38.3486H70.049V43.9012H71.2286V38.3486H73.1021V37.389H68.2449V38.3486ZM77.0988 19.0177C77.1127 19.0177 77.2445 19.0725 77.3902 19.1479C77.529 19.2165 77.8413 19.4564 78.0841 19.6757C78.4241 19.9911 78.5143 20.1282 78.5143 20.2858C78.5213 20.4161 78.4102 20.656 78.2229 20.9371C78.0494 21.1975 77.1474 22.1572 76.0858 23.2266C75.0727 24.2411 73.5254 25.7561 72.6441 26.5855C71.756 27.4218 70.9372 28.1553 70.6041 28.3404L70.2433 28.0525C70.0421 27.888 69.3898 27.3122 68.8 26.7569C68.2103 26.2085 67.3845 25.3859 66.9613 24.9404C66.538 24.4948 66.1078 24.0218 66.0037 23.9053C65.8788 23.7544 65.8164 23.6036 65.8164 23.4391C65.8164 23.2403 65.8927 23.1238 66.2882 22.7056C66.5449 22.4383 66.878 22.1298 67.0307 22.0201C67.1833 21.9105 67.3707 21.8282 67.447 21.8282C67.5233 21.8282 67.787 21.9996 68.0368 22.2052C68.2866 22.4109 69.036 23.1032 70.9164 24.8992L73.2409 22.6234C74.5176 21.3758 75.9053 20.0528 76.3147 19.6826C76.7311 19.3193 77.0849 19.0177 77.0988 19.0177ZM38.1307 25.5984H38.429C38.5886 25.5984 39.0951 25.6327 39.5531 25.667C40.0111 25.7013 40.5245 25.7767 40.698 25.8384C40.8715 25.9 41.0796 26.0166 41.1698 26.0988C41.26 26.1811 41.3919 26.4142 41.4682 26.613C41.5376 26.8049 41.6 27.086 41.6 27.2299C41.6 27.367 41.5515 27.6206 41.496 27.792C41.4335 27.9634 41.3156 28.1896 41.2323 28.3061C41.149 28.4158 40.927 28.5735 40.7327 28.6626C40.5384 28.7517 40.136 28.8477 39.796 28.882C39.4698 28.9231 38.9633 28.9642 38.1307 29.0259V25.5984ZM56.1298 25.7561C56.1715 25.7698 56.449 26.6267 56.7405 27.6618C57.0319 28.6969 57.2747 29.6086 57.2817 29.6977C57.2817 29.8348 57.247 29.8554 56.7821 29.8896C56.5045 29.9102 55.998 29.9033 55.6511 29.8691C55.1029 29.8211 55.0266 29.8005 55.0058 29.6771C54.9919 29.6017 55.1584 28.8957 55.3735 28.1005C55.5886 27.3122 55.8315 26.4484 55.9078 26.1948C55.9911 25.9275 56.0813 25.7355 56.1298 25.7561ZM47.4494 25.8932C47.498 25.9069 47.6507 26.3182 47.7894 26.8049C47.9352 27.2916 48.1641 28.1485 48.3098 28.7037C48.5388 29.5812 48.5596 29.7251 48.4694 29.78C48.4139 29.8074 48.1433 29.8554 47.8658 29.8759C47.5882 29.8965 47.1233 29.8965 46.8319 29.8691C46.5405 29.8348 46.2837 29.7868 46.2698 29.7457C46.249 29.7114 46.4433 28.9368 46.6862 28.0319C46.936 27.1271 47.1858 26.2702 47.2551 26.1263C47.3176 25.9823 47.4078 25.8726 47.4494 25.8932ZM30.9698 38.2801C31.1086 38.3007 31.3376 38.3829 31.4694 38.4583C31.6013 38.5337 31.8164 38.7462 31.9413 38.9313C32.0731 39.1233 32.2258 39.4454 32.2882 39.6511C32.3507 39.8636 32.3992 40.2817 32.3992 40.6108C32.3992 41.0152 32.3507 41.3443 32.2535 41.6733C32.1703 41.9406 32.0176 42.2697 31.9066 42.4068C31.8025 42.5439 31.5596 42.7427 31.3654 42.8455C31.0739 43.0032 30.956 43.0237 30.5951 43.0032C30.2551 42.9826 30.1025 42.9346 29.8666 42.7701C29.7 42.6536 29.4572 42.3931 29.3323 42.1874C29.2074 41.9818 29.0756 41.687 29.027 41.5362C28.9854 41.3854 28.9507 40.9878 28.9507 40.6451C28.9507 40.2612 28.9923 39.8773 29.0686 39.6168C29.138 39.3906 29.2698 39.0753 29.36 38.9176C29.4503 38.7531 29.6237 38.5612 29.7347 38.4857C29.8527 38.4103 30.1164 38.3281 30.3245 38.2938C30.5396 38.2664 30.8241 38.2595 30.9698 38.2801ZM43.6817 38.2115H44.1535C44.4102 38.2115 44.7919 38.2458 45 38.2801C45.2082 38.3212 45.4858 38.4035 45.6176 38.472C45.7425 38.5337 45.909 38.6982 45.9784 38.8285C46.0547 38.9656 46.1103 39.2055 46.1103 39.3769C46.1103 39.5483 46.0478 39.8156 45.9715 39.9801C45.8951 40.1446 45.7494 40.3092 45.6454 40.364C45.5413 40.412 45.2984 40.4874 45.1041 40.5285C44.9168 40.5697 44.5143 40.6245 43.6817 40.7136V38.2115ZM58.3711 38.4172C58.4751 38.4172 58.5584 38.6434 58.829 39.6031C59.0094 40.2475 59.1829 40.8918 59.2592 41.2551L58.4266 41.2072C57.9686 41.1797 57.58 41.1455 57.5592 41.1249C57.5384 41.1043 57.6911 40.5285 57.8923 39.8362C58.0935 39.1507 58.2531 38.5474 58.2531 38.5063C58.2531 38.4583 58.3086 38.4172 58.3711 38.4172Z" fill="black" fill-opacity="0.64"/>
</g>
<defs>
<clipPath id="clip0_1765_2350">
<rect width="68" height="38" fill="white" transform="translate(15.8572 12)"/>
</clipPath>
</defs>
</svg>
