<svg width="65" height="64" viewBox="0 0 65 64" fill="none" xmlns="http://www.w3.org/2000/svg">
<g clip-path="url(#clip0_1765_2331)">
<path fill-rule="evenodd" clip-rule="evenodd" d="M0.243927 0H64.0418V64H0.243927V0ZM31.1093 9.22437C30.8975 9.22437 30.4229 9.25499 30.0503 9.29072C29.6777 9.32389 29.1673 9.38259 28.9147 9.41576C28.662 9.45149 28.2665 9.51529 28.0343 9.55867C27.802 9.60205 27.4473 9.67095 27.2432 9.71434C27.039 9.75772 26.6664 9.84448 26.4138 9.90828C26.1612 9.97208 25.7707 10.0793 25.5462 10.1456C25.3216 10.2145 24.9031 10.3498 24.6147 10.4467C24.3263 10.5463 23.9027 10.6994 23.6705 10.7912C23.4383 10.8831 23.0759 11.0337 22.8666 11.1281C22.6548 11.2225 22.2414 11.4165 21.948 11.5619C21.6545 11.7099 21.2385 11.9243 21.0293 12.0417C20.8175 12.1591 20.5138 12.3377 20.353 12.4347C20.1922 12.5316 19.9906 12.6567 19.9064 12.7103C19.8222 12.7639 19.6334 12.8889 19.4854 12.9859C19.3373 13.0854 19.0566 13.2819 18.8601 13.4223C18.6636 13.5626 18.3753 13.7744 18.2222 13.8944C18.069 14.0143 17.8088 14.221 17.648 14.3537C17.4872 14.489 17.2014 14.7365 17.0126 14.9049C16.8237 15.0734 16.5073 15.3668 16.3133 15.5557C16.1168 15.7445 15.7774 16.0941 15.558 16.334C15.3385 16.5739 15.0833 16.8546 14.9914 16.9592C14.8996 17.0638 14.7209 17.2782 14.5959 17.4313C14.4708 17.5844 14.2565 17.8549 14.1238 18.031C13.9885 18.2071 13.7716 18.5057 13.6389 18.6945C13.5062 18.8834 13.348 19.1105 13.2893 19.1998C13.2306 19.2866 13.1898 19.3657 13.1974 19.3784C13.2051 19.3886 13.3582 19.4014 13.5343 19.4065C13.7129 19.4116 13.8992 19.4091 13.9477 19.4014C14.0268 19.3886 14.0676 19.3453 14.3305 18.9956C14.4913 18.7813 14.7796 18.4113 14.971 18.1714C15.1624 17.9315 15.4891 17.5436 15.6983 17.3037C15.905 17.0638 16.2827 16.6632 16.5379 16.4106C16.7905 16.1579 17.1529 15.8109 17.3418 15.6424C17.5306 15.474 17.8062 15.2392 17.9542 15.1218C18.1022 15.007 18.3064 14.8539 18.4085 14.7875C18.508 14.7186 18.6049 14.6625 18.6177 14.6625C18.6305 14.6625 18.7198 14.7135 18.8142 14.7748C18.9112 14.836 19.3093 15.0683 19.7023 15.2877C20.0953 15.5072 20.524 15.7547 20.6541 15.8338C20.7843 15.9129 20.8889 15.9844 20.8889 15.9971C20.8889 16.0074 20.6618 16.2983 20.3862 16.6479C20.108 16.9949 19.7559 17.4441 19.6053 17.6482C19.4522 17.8524 19.2046 18.202 19.0515 18.4266C18.901 18.6511 18.7045 18.9574 18.6152 19.1105C18.5258 19.261 18.4569 19.3912 18.4646 19.3963C18.4722 19.404 18.5463 19.4193 18.6305 19.4346C18.7351 19.4499 18.8601 19.4499 19.026 19.432C19.1587 19.4167 19.2761 19.3989 19.2889 19.3937C19.2991 19.3886 19.419 19.2202 19.5543 19.0212C19.6895 18.8196 19.8988 18.5235 20.0187 18.3628C20.1361 18.202 20.3377 17.9366 20.4653 17.7758C20.5903 17.6151 20.8047 17.3497 20.9425 17.1889C21.0778 17.0281 21.3023 16.7755 21.4401 16.6275C21.5779 16.4795 21.7004 16.3621 21.7157 16.3621C21.731 16.3646 22.0704 16.4897 22.4711 16.6402C22.8717 16.7908 23.4868 17.0154 23.8364 17.1379C24.1885 17.2603 24.6811 17.4211 24.9337 17.4951C25.2119 17.5768 25.416 17.6508 25.4517 17.684C25.4824 17.7146 25.5079 17.7452 25.5079 17.758C25.5079 17.7682 25.3522 18.1331 25.1634 18.5669C24.9745 19.0008 24.8189 19.3657 24.8189 19.3784C24.8189 19.3886 24.8852 19.4065 24.9643 19.4167C25.046 19.4269 25.2144 19.4295 25.342 19.4218C25.4696 19.4116 25.5844 19.3963 25.6023 19.3886C25.6202 19.3784 25.7554 19.113 25.9034 18.7966C26.0514 18.4802 26.2148 18.151 26.2607 18.0642C26.3168 17.9621 26.3653 17.9034 26.3959 17.9034C26.4189 17.9034 26.5822 17.9315 26.7583 17.9672C26.9344 18.003 27.307 18.0719 27.5877 18.1203C27.8684 18.1688 28.2639 18.2326 28.4681 18.2581C28.6722 18.2862 29.0627 18.3322 29.3357 18.3602C29.6088 18.3883 30.0911 18.4291 30.4076 18.4521C30.724 18.4725 31.1144 18.498 31.2752 18.5082L31.5661 18.5286C31.6605 18.692 31.6707 18.7558 31.6733 18.9752C31.6759 19.1232 31.6784 19.2738 31.681 19.3146L31.6835 19.3835C32.3827 19.3835 32.4516 19.3759 32.4618 19.3453C32.4695 19.3248 32.4746 19.1921 32.4746 19.0518C32.4746 18.9114 32.4874 18.743 32.5001 18.6767L32.5256 18.5542C32.9518 18.5235 33.3499 18.4904 33.6868 18.4623C34.0236 18.4368 34.46 18.396 34.6565 18.373C34.853 18.3526 35.1873 18.3117 35.3965 18.2837C35.6084 18.2556 35.9171 18.2122 36.0856 18.1816C36.254 18.1535 36.5194 18.1076 36.6725 18.0795C36.8256 18.0489 37.0732 17.9978 37.2212 17.9621C37.3692 17.9264 37.5299 17.8983 37.5784 17.9009C37.6269 17.9034 37.6805 17.9162 37.6933 17.9289C37.706 17.9417 37.8847 18.2735 38.0888 18.6665L38.4588 19.381C38.7166 19.4091 38.8722 19.4091 38.9692 19.4014C39.0662 19.3937 39.1683 19.381 39.1938 19.3733C39.2168 19.3657 39.2372 19.3427 39.2372 19.3274C39.2372 19.3095 39.079 18.9344 38.8876 18.4955C38.5788 17.7988 38.5405 17.6942 38.5737 17.6635C38.5941 17.6457 38.7447 17.5946 38.9054 17.5513C39.0662 17.5079 39.4694 17.3803 39.7986 17.268C40.1278 17.1583 40.6229 16.9796 40.8959 16.875C41.169 16.7704 41.6232 16.5892 41.9039 16.4744L42.4143 16.2677C42.6644 16.5356 42.8813 16.7882 43.0625 16.9975C43.2411 17.2093 43.5116 17.5411 43.6647 17.7376C43.8179 17.9341 44.1037 18.3117 44.2976 18.5797C44.4916 18.8476 44.6983 19.136 44.757 19.2202L44.8641 19.3759C45.1602 19.3988 45.3388 19.3963 45.4511 19.3861C45.5634 19.3759 45.6706 19.3606 45.6884 19.3504C45.7088 19.3376 45.6756 19.261 45.571 19.085C45.4894 18.9472 45.3465 18.72 45.2571 18.5797C45.1653 18.4393 44.9943 18.1969 44.8769 18.0438C44.7595 17.8907 44.5375 17.5972 44.3844 17.393C44.2287 17.1889 44.0348 16.9363 43.948 16.8316C43.8612 16.727 43.6698 16.5024 43.5193 16.334C43.2998 16.089 43.2437 16.0125 43.2437 15.9512C43.2437 15.8772 43.2769 15.8542 44.2568 15.2826C44.8157 14.9585 45.3337 14.6676 45.4077 14.6395L45.5404 14.5859C46.1427 15.0759 46.4667 15.3464 46.6505 15.5072C46.8342 15.6654 47.2655 16.0788 47.61 16.4233C47.9545 16.7678 48.3577 17.1863 48.5057 17.3548C48.6512 17.5232 48.9447 17.8754 49.1539 18.1357C49.3632 18.3959 49.649 18.7711 49.7893 18.9676L50.0445 19.3274C50.6417 19.3861 50.731 19.3861 50.8229 19.3606C50.8867 19.3427 50.9403 19.3248 50.9454 19.3172C50.9479 19.3121 50.8101 19.1079 50.6391 18.8681C50.4682 18.6256 50.2181 18.2837 50.0854 18.1076C49.9527 17.9315 49.746 17.6687 49.626 17.5206C49.5061 17.3726 49.2407 17.0638 49.0365 16.8316C48.8324 16.5994 48.4649 16.2064 48.2199 15.9538C47.9749 15.7037 47.5896 15.3311 47.365 15.1269C47.1404 14.9253 46.7602 14.5936 46.5229 14.3945C46.2856 14.1955 45.8926 13.8842 45.6552 13.7055C45.4179 13.5269 44.9407 13.1926 44.5962 12.9655C44.2517 12.7358 43.8 12.4474 43.5882 12.3249C43.3789 12.2025 43.0344 12.0085 42.8226 11.8937C42.6134 11.7788 42.1974 11.5696 41.9039 11.4292C41.6105 11.2889 41.2353 11.1153 41.0746 11.0439C40.9138 10.9724 40.6331 10.855 40.4493 10.7836C40.2656 10.7096 39.916 10.5794 39.671 10.4901C39.426 10.4008 39.0177 10.2656 38.7651 10.1864C38.5124 10.1099 38.1041 9.99505 37.8591 9.93125C37.6142 9.86745 37.2237 9.77303 36.9915 9.72454C36.7593 9.67351 36.4224 9.6046 36.2387 9.56888C36.0549 9.53315 35.6313 9.4668 35.2945 9.41831C34.9576 9.37238 34.5391 9.31879 34.363 9.30348C34.1869 9.28561 34.016 9.28051 33.9802 9.28817C33.9445 9.29582 33.9037 9.29072 33.8909 9.28051C33.8782 9.26775 33.7046 9.24478 33.5081 9.22947C33.3116 9.21416 32.9084 9.19885 32.615 9.19119C32.3215 9.18609 31.9464 9.19119 31.7856 9.2014C31.6248 9.21161 31.3211 9.22182 31.1093 9.22437ZM25.7631 21.4251C25.6151 21.4404 25.3292 21.4812 25.1251 21.5169C24.9209 21.5527 24.6122 21.6139 24.4361 21.6573C24.26 21.6981 23.9844 21.7747 23.8236 21.8232C23.6628 21.8742 23.3745 21.9788 23.1856 22.0554C22.9968 22.132 22.6804 22.2774 22.4839 22.3795C22.2874 22.479 21.9939 22.65 21.8331 22.7546C21.6723 22.8592 21.4376 23.0328 21.31 23.14C21.1824 23.2446 21.0037 23.413 20.9093 23.5151C20.8124 23.6146 20.649 23.8137 20.5419 23.9566C20.4347 24.102 20.3045 24.2934 20.2509 24.3853C20.1973 24.4772 20.1131 24.6379 20.0595 24.7426C20.0059 24.8472 19.9115 25.0667 19.8503 25.2274C19.7865 25.3882 19.6972 25.6715 19.6512 25.8526C19.6053 26.0338 19.5466 26.3222 19.5211 26.4906C19.4854 26.7203 19.4726 26.9474 19.4726 27.4093C19.4726 27.787 19.4854 28.1162 19.5058 28.2642C19.5262 28.3969 19.5747 28.6674 19.613 28.8639C19.6538 29.0604 19.7303 29.3411 19.7788 29.4891C19.8299 29.6371 19.9473 29.9 20.0366 30.0761C20.1284 30.2521 20.2739 30.4946 20.3607 30.6171C20.4474 30.7396 20.5878 30.9207 20.672 31.0228C20.7562 31.1223 20.9578 31.3342 21.1186 31.4898C21.2794 31.6455 21.5575 31.8828 21.7361 32.0155C21.9122 32.1482 22.1776 32.332 22.3231 32.4238C22.466 32.5131 22.7365 32.6637 22.9177 32.7581C23.0989 32.8525 23.3923 32.9903 23.5684 33.0618C23.7445 33.1358 24.2957 33.3297 24.7933 33.4956C25.291 33.6615 26.0438 33.9014 26.4648 34.0264C26.8859 34.154 27.8097 34.4322 28.5191 34.644C29.2286 34.8558 30.2034 35.1544 30.6883 35.31C31.1731 35.4657 31.6197 35.6214 31.6835 35.6545C31.7473 35.6877 31.8596 35.777 31.9336 35.8485C32.028 35.9429 32.0816 36.0195 32.1046 36.0986C32.125 36.17 32.1301 36.2517 32.1199 36.3155C32.1097 36.3716 32.0893 36.4405 32.074 36.4686C32.0586 36.4967 32.0076 36.5554 31.9591 36.5987C31.9132 36.6447 31.829 36.7085 31.7728 36.7417C31.7141 36.7774 31.5278 36.8386 31.339 36.8846C31.1553 36.9279 30.8592 36.9866 30.6755 37.0147C30.4918 37.0428 30.1881 37.0785 29.9992 37.0938C29.8104 37.1066 29.5348 37.1193 29.3868 37.1193C29.2388 37.1193 28.9632 37.1066 28.7743 37.0913C28.5855 37.076 28.2639 37.0377 28.0598 37.002C27.8556 36.9688 27.5622 36.9075 27.4091 36.8641C27.2559 36.8233 26.9905 36.7442 26.8221 36.6855C26.6537 36.6268 26.3092 36.4763 26.0565 36.3538C25.8013 36.2262 25.4492 36.0297 25.2654 35.9046C25.0843 35.7821 24.8367 35.601 24.7168 35.5014C24.5994 35.4019 24.4029 35.2258 24.283 35.111C24.1477 34.9834 24.0176 34.8252 23.9384 34.6976C23.8695 34.5853 23.7445 34.3862 23.6603 34.2561L23.5123 34.0188C20.5189 34.0468 19.6487 34.0596 19.6461 34.0621C19.6461 34.0672 19.6283 34.9375 19.613 35.9965C19.5951 37.0555 19.5874 38.4157 19.5976 39.0205C19.6053 39.6253 19.6232 40.3756 19.6334 40.6895L19.6512 41.2611C22.9534 41.2305 23.9155 41.2203 23.918 41.2203C23.9206 41.2177 23.9359 40.9166 23.9512 40.5517C23.9691 40.1867 23.9844 39.8856 23.9869 39.8805C23.9869 39.8754 24.0125 39.878 24.0405 39.8856C24.0686 39.8933 24.4003 40.0668 24.7806 40.271C25.1608 40.4751 25.6125 40.6971 25.7886 40.766C25.9647 40.8349 26.2862 40.9498 26.5031 41.0212C26.72 41.0901 27.0824 41.1947 27.307 41.2509C27.5315 41.307 27.8633 41.381 28.047 41.4168C28.2308 41.4525 28.4809 41.4984 28.6085 41.5188C28.736 41.5418 28.9861 41.575 29.1699 41.5979C29.3536 41.6184 29.7492 41.6464 30.0503 41.6618C30.4101 41.6771 30.7648 41.6771 31.0838 41.6618C31.3518 41.6464 31.6963 41.6235 31.8494 41.6082C32.0025 41.5928 32.296 41.552 32.5001 41.5188C32.7043 41.4831 33.0079 41.4219 33.1764 41.381C33.3448 41.3402 33.6306 41.2585 33.8144 41.1999C33.9981 41.1412 34.2865 41.0391 34.46 40.9702C34.631 40.9013 34.8887 40.7864 35.0342 40.715C35.1771 40.641 35.4093 40.5083 35.5497 40.4164C35.69 40.3271 35.9146 40.1638 36.0473 40.0591C36.18 39.952 36.4045 39.7478 36.5449 39.6075C36.6853 39.4671 36.9047 39.2145 37.0323 39.046C37.1574 38.8776 37.3309 38.625 37.4126 38.4846C37.4942 38.3443 37.6142 38.1197 37.6754 37.987C37.7392 37.8543 37.8438 37.5787 37.9127 37.3745C37.9791 37.1704 38.0633 36.8616 38.099 36.6855C38.1347 36.5094 38.1756 36.2542 38.1883 36.1164C38.2037 35.9812 38.2164 35.6928 38.2164 35.4785C38.2164 35.2667 38.2036 34.9885 38.1909 34.8609C38.1756 34.7333 38.1399 34.5113 38.1118 34.3633C38.0812 34.2153 38.0097 33.9524 37.9536 33.7763C37.8974 33.6003 37.7596 33.2787 37.6524 33.0618C37.5427 32.8449 37.3743 32.5463 37.2747 32.3983C37.1778 32.2503 37.0196 32.0334 36.9226 31.9134C36.8282 31.7935 36.6215 31.5664 36.4683 31.4056C36.3152 31.2474 36.0856 31.0279 35.958 30.9182C35.8304 30.811 35.6415 30.6579 35.5369 30.5813C35.4323 30.5048 35.2256 30.367 35.0776 30.2751C34.9295 30.1858 34.6897 30.0454 34.5417 29.9689C34.3936 29.8898 34.141 29.7749 33.9802 29.7111C33.8195 29.6473 32.0459 29.1191 30.0375 28.5347C26.6052 27.5369 26.3704 27.4655 26.0821 27.3251C25.8116 27.1924 25.7631 27.1567 25.6712 27.0367C25.6125 26.9602 25.5462 26.8453 25.5232 26.7764C25.5002 26.7101 25.4824 26.608 25.4824 26.5468C25.4824 26.4677 25.5002 26.4115 25.5589 26.3298C25.5997 26.2712 25.684 26.1742 25.7452 26.118C25.8039 26.0593 25.9315 25.9726 26.031 25.9215C26.1331 25.8705 26.3092 25.8118 26.4393 25.7863C26.6026 25.7531 26.7813 25.7378 27.0594 25.7378C27.2712 25.7378 27.6234 25.7506 27.8378 25.7633C28.0496 25.7786 28.3456 25.8067 28.4936 25.8297C28.6416 25.8526 28.9223 25.9037 29.1188 25.9445C29.3153 25.9828 29.642 26.0644 29.8461 26.1206C30.0503 26.1793 30.3718 26.2839 30.5607 26.3554C30.7495 26.4268 31.0481 26.5544 31.2242 26.6437C31.4002 26.7305 31.6529 26.8683 31.7856 26.95C31.9183 27.0291 32.1148 27.1592 32.2194 27.2383C32.324 27.3149 32.5767 27.5471 32.7808 27.7513C32.9875 27.958 33.2249 28.2285 33.3167 28.3586L33.4826 28.5934C34.5697 28.6215 35.4654 28.6215 36.1749 28.6113C36.8843 28.6011 37.4917 28.5857 37.5248 28.5755L37.5861 28.5577C37.558 24.7987 37.5427 23.2982 37.5325 22.798C37.5223 22.2978 37.5044 21.8793 37.4942 21.8666C37.4815 21.8563 36.6546 21.8487 35.6568 21.8512C34.6565 21.8538 33.7378 21.864 33.6102 21.8768L33.3805 21.8972C33.3576 22.7495 33.3423 22.9154 33.3142 22.9741L33.2785 23.0532C32.1939 22.4611 31.857 22.2953 31.6197 22.206C31.4232 22.1294 31.1195 22.0222 30.9435 21.9661C30.7674 21.9099 30.4407 21.8155 30.2162 21.7594C29.9916 21.7032 29.6598 21.6292 29.4761 21.5935C29.2924 21.5578 28.9785 21.5067 28.7743 21.4787C28.5702 21.4506 28.2435 21.4174 28.047 21.4021C27.8505 21.3893 27.4882 21.3715 27.2432 21.3664C26.9982 21.3587 26.6256 21.3638 26.4138 21.374C26.2045 21.3868 25.9111 21.4098 25.7631 21.4251ZM47.8882 21.3995C47.7274 21.4149 47.3931 21.4557 47.1481 21.4914C46.9031 21.5271 46.5408 21.5884 46.3443 21.6318C46.1478 21.6726 45.7905 21.7594 45.5532 21.8232C45.3158 21.887 44.9407 22.0044 44.7238 22.0809C44.5069 22.16 44.1955 22.28 44.0348 22.3489C43.874 22.4178 43.5295 22.5836 43.2692 22.7189C43.0089 22.8516 42.6874 23.0328 42.5547 23.1144C42.422 23.1987 42.1795 23.3671 42.0188 23.4896C41.858 23.6095 41.5518 23.88 41.34 24.0918C41.1281 24.3011 40.8576 24.5945 40.7428 24.7426C40.6254 24.8906 40.4315 25.1585 40.3115 25.3423C40.1916 25.5234 39.9874 25.8807 39.8598 26.1334C39.7322 26.386 39.5766 26.7356 39.5128 26.9117C39.4464 27.0878 39.352 27.3736 39.301 27.5497C39.2474 27.7257 39.1555 28.1315 39.0917 28.4556C39.0305 28.7797 38.959 29.1905 38.9309 29.3743C38.9029 29.558 38.8646 29.8617 38.8442 30.0505C38.8212 30.2394 38.7906 30.5737 38.7753 30.7906C38.7574 31.0407 38.7498 31.5051 38.76 32.0538C38.7676 32.5973 38.788 33.049 38.8136 33.266C38.8365 33.4548 38.885 33.7891 38.9207 34.006C38.9565 34.2229 39.0305 34.5802 39.0841 34.7971C39.1376 35.014 39.2397 35.3636 39.3086 35.5754C39.3775 35.7847 39.4822 36.0731 39.5434 36.2134C39.6021 36.3538 39.7348 36.6345 39.8369 36.8386C39.9415 37.0428 40.138 37.3796 40.2784 37.5914C40.4187 37.8007 40.6127 38.0712 40.7071 38.1911C40.8041 38.3111 40.9852 38.5152 41.1128 38.6479C41.2379 38.7781 41.4803 38.9976 41.6487 39.1328C41.8172 39.2706 42.103 39.485 42.2867 39.6126C42.4704 39.7402 42.7741 39.9341 42.963 40.0464C43.1518 40.1587 43.4095 40.3041 43.5371 40.3654C43.6647 40.4292 43.8944 40.5389 44.0475 40.6078C44.2006 40.6793 44.512 40.8043 44.7365 40.8911C44.9611 40.9753 45.3618 41.108 45.6297 41.1845C45.8977 41.2637 46.3111 41.3657 46.5484 41.4142C46.7857 41.4653 47.1098 41.5214 47.2629 41.5444C47.4161 41.5673 47.7044 41.6031 47.9009 41.626C48.0974 41.6464 48.6027 41.672 49.0238 41.6796C49.5061 41.6898 49.9603 41.6822 50.2487 41.6643C50.5013 41.6464 50.8918 41.6107 51.1163 41.5826C51.3409 41.5546 51.6573 41.5086 51.8181 41.4806C51.9789 41.4525 52.2443 41.4015 52.405 41.3657C52.5658 41.33 52.9512 41.2381 53.2599 41.159C53.5687 41.0825 53.926 40.9804 54.051 40.9344C54.1761 40.8885 54.4364 40.7813 54.6252 40.692C54.8141 40.6053 55.105 40.4649 55.2709 40.3832C55.4342 40.299 55.6919 40.1561 55.845 40.0643C55.9956 39.9698 56.238 39.8091 56.386 39.7019C56.534 39.5972 56.7407 39.4416 56.8454 39.3548C56.95 39.2706 57.2052 39.0333 57.4094 38.8291C57.6135 38.625 57.8636 38.357 57.9631 38.2294C58.0652 38.1018 58.2489 37.8262 58.374 37.617C58.499 37.4052 58.647 37.1423 58.7032 37.03C58.7593 36.9177 58.8767 36.66 58.9635 36.4558C59.0502 36.2517 59.188 35.8842 59.2697 35.6392C59.3514 35.3942 59.4662 35.0038 59.5223 34.7716C59.5785 34.5394 59.655 34.1897 59.6882 33.9932C59.7239 33.7967 59.7699 33.5033 59.7903 33.3425C59.8107 33.1817 59.8439 32.901 59.8617 32.7173C59.8796 32.5182 59.8924 32.041 59.8924 31.5179C59.8924 30.8876 59.8796 30.5277 59.8464 30.2037C59.8235 29.9587 59.775 29.5682 59.7392 29.336C59.7035 29.1038 59.6525 28.8001 59.6244 28.6597C59.5963 28.5194 59.5428 28.2846 59.5096 28.1366C59.4739 27.9886 59.3998 27.7079 59.3437 27.5114C59.285 27.3149 59.1957 27.0342 59.1421 26.8862C59.0885 26.7382 59.0018 26.5161 58.9456 26.3885C58.8895 26.2609 58.7619 26.016 58.6623 25.8399C58.5654 25.6638 58.3842 25.3831 58.2617 25.2147C58.1392 25.0462 57.9478 24.8064 57.8406 24.6788C57.7309 24.5512 57.5242 24.3343 57.3787 24.1939C57.2333 24.051 57.0087 23.8519 56.8837 23.7448C56.7586 23.6401 56.5392 23.4743 56.3988 23.3722C56.2584 23.2727 55.9879 23.1017 55.7991 22.9919C55.6103 22.8848 55.2938 22.7163 55.0973 22.6219C54.9008 22.5275 54.6354 22.4076 54.5104 22.3565C54.3853 22.3055 54.148 22.2136 53.9872 22.1524C53.8265 22.0937 53.5151 21.9916 53.2982 21.9278C53.0813 21.8614 52.7062 21.7645 52.4688 21.7083C52.2315 21.6522 51.8972 21.5833 51.7288 21.5552C51.5604 21.5271 51.2899 21.4863 51.1291 21.4659C50.9683 21.4429 50.6213 21.4098 50.3584 21.3868C50.0496 21.3638 49.6235 21.3511 49.1718 21.3536C48.7813 21.3562 48.3985 21.3613 48.322 21.3664C48.2454 21.3689 48.0489 21.3868 47.8882 21.3995ZM5.85048 21.5807C5.83007 23.2701 5.83262 24.3394 5.84283 25.0488C5.85303 25.7582 5.86835 26.3426 5.87345 26.3503C5.8811 26.3579 6.33279 26.3707 6.8738 26.3809C7.41736 26.3885 8.02726 26.4039 8.23142 26.4141C8.43557 26.4217 8.62186 26.4345 8.64483 26.4421C8.68821 26.4523 8.69076 26.7075 8.68821 31.3699C8.68821 34.0775 8.678 36.341 8.67035 36.4048L8.65248 36.5196C7.50412 36.5477 6.87125 36.563 6.50377 36.5758L5.83772 36.5962C5.8071 37.2495 5.79689 38.1146 5.79689 38.944C5.79689 39.7733 5.8071 40.6308 5.81476 40.8502L5.83262 41.2534H18.4391C18.4391 37.6348 18.4365 36.5834 18.4314 36.5809C18.4289 36.5809 17.8394 36.5681 17.1248 36.5554C16.4103 36.5426 15.7545 36.5222 15.6702 36.512L15.5171 36.4941C15.5197 35.1875 15.5222 32.9444 15.5248 30.663C15.5299 27.0087 15.535 26.511 15.5707 26.4651C15.6064 26.4166 15.6473 26.4141 17.0202 26.4013L18.434 26.3885C18.4646 24.1046 18.4595 23.2829 18.4416 22.6117C18.4238 22.0503 18.4085 21.5884 18.4059 21.5833C18.4033 21.5807 15.6907 21.5731 12.3783 21.568C9.06589 21.5629 6.24348 21.5629 6.10312 21.5705L5.85048 21.5807ZM18.4978 43.4022C18.4978 43.4073 18.5922 43.5706 18.7096 43.7671C18.8295 43.9636 19.0184 44.2621 19.1332 44.4306C19.2455 44.599 19.5364 44.9997 19.7788 45.3237C20.0213 45.6453 20.3938 46.1225 20.6056 46.3828C20.8149 46.6431 20.9808 46.8625 20.9706 46.8728C20.9604 46.883 20.769 47.0004 20.5444 47.1382C20.3198 47.2734 19.9396 47.5005 19.7023 47.6409C19.4624 47.7812 19.1332 47.9624 18.9673 48.0441C18.804 48.1283 18.656 48.1946 18.6432 48.1946C18.6279 48.1946 18.5054 48.1053 18.3676 47.9981C18.2324 47.891 18.0155 47.7149 17.8904 47.6103C17.7628 47.5056 17.4719 47.2428 17.2397 47.031C17.0075 46.8192 16.6578 46.4798 16.4613 46.2782C16.2648 46.0766 15.9994 45.7958 15.8744 45.6555C15.7468 45.5151 15.5324 45.2676 15.3972 45.1068C15.2645 44.9461 15.0272 44.6526 14.8741 44.4561C14.7235 44.2596 14.4887 43.9406 14.356 43.7492L14.1136 43.3996C13.8558 43.3741 13.6568 43.3741 13.5062 43.3817C13.3557 43.3894 13.2332 43.4047 13.2332 43.4149C13.2332 43.4277 13.3455 43.6012 13.4807 43.8054C13.6185 44.0095 13.8865 44.3821 14.0753 44.6347C14.2641 44.8874 14.5627 45.2676 14.7388 45.4769C14.9123 45.6887 15.2058 46.0255 15.3921 46.2297C15.5758 46.4338 15.979 46.8472 16.2853 47.1484C16.5915 47.4495 16.9768 47.8144 17.1376 47.9548C17.2984 48.0951 17.574 48.3324 17.7501 48.4779C17.9261 48.6259 18.3166 48.9296 18.6177 49.1567C18.9188 49.3813 19.3552 49.6926 19.5874 49.8457C19.8197 50.0014 20.2382 50.2642 20.5189 50.4327C20.7996 50.6011 21.1951 50.8282 21.3993 50.9354C21.6034 51.04 21.7897 51.1293 21.8127 51.1293C21.8382 51.1293 21.8637 51.1472 21.8714 51.1676C21.8791 51.188 22.0424 51.2825 22.2338 51.3743C22.4277 51.4662 22.7977 51.6346 23.058 51.7469C23.3183 51.8592 23.6628 52.0021 23.8236 52.0659C23.9844 52.1297 24.3059 52.2496 24.5381 52.3339C24.7704 52.4155 25.1991 52.561 25.4951 52.6503C25.7886 52.7422 26.2939 52.8851 26.618 52.9667C26.9395 53.0484 27.4677 53.1683 27.7918 53.2321C28.1134 53.2959 28.5804 53.375 28.8254 53.4108C29.0703 53.4465 29.4889 53.5001 29.7568 53.5256C30.0222 53.5537 30.4305 53.5919 30.6627 53.6098C30.9205 53.6302 31.5125 53.643 32.1939 53.643C32.8548 53.643 33.4852 53.6302 33.7506 53.6098C33.9955 53.5919 34.4038 53.5537 34.6565 53.5256C34.9091 53.5001 35.2817 53.4541 35.4859 53.4235C35.69 53.3955 36.1315 53.3189 36.4683 53.2576C36.8052 53.1938 37.3386 53.079 37.655 52.9999C37.9714 52.9233 38.469 52.7881 38.7651 52.6988C39.0585 52.6095 39.5255 52.4589 39.7986 52.3594C40.0716 52.2624 40.4442 52.122 40.628 52.048C40.8092 51.974 41.1026 51.8515 41.2787 51.775C41.4548 51.6984 41.8044 51.5351 42.057 51.4126C42.3097 51.2901 42.7103 51.0834 42.9502 50.9533C43.1875 50.8206 43.5499 50.6164 43.7541 50.4965C43.9582 50.3765 44.341 50.1341 44.609 49.958C44.8744 49.7819 45.2776 49.4987 45.5021 49.3328C45.7267 49.1669 46.0125 48.9475 46.1401 48.8479C46.2651 48.7484 46.5637 48.5009 46.801 48.2967C47.0409 48.0926 47.4237 47.7481 47.6559 47.5286C47.8882 47.3091 48.248 46.9544 48.4521 46.7375C48.6563 46.5206 48.9498 46.2016 49.1029 46.0255C49.256 45.8494 49.4857 45.5789 49.6107 45.4258C49.7383 45.2702 49.9501 45.0022 50.0854 44.8261C50.2181 44.65 50.4146 44.3872 50.5192 44.2392C50.6264 44.0912 50.7999 43.8411 50.9071 43.6829L51.1036 43.397L50.1976 43.3996C50.042 43.6242 49.8327 43.9074 49.6337 44.1754C49.4346 44.4408 49.1233 44.8389 48.9421 45.0558C48.7609 45.2727 48.4879 45.5891 48.3347 45.7576C48.1842 45.926 47.8116 46.3113 47.5079 46.6125C47.2043 46.9161 46.7832 47.3117 46.5739 47.4929C46.3621 47.6766 46.1044 47.8935 45.9997 47.9752L45.8084 48.1283C45.5685 48.0951 45.4536 48.0415 45.15 47.8655C44.9356 47.7404 44.6115 47.5567 44.4303 47.4546C44.2466 47.3525 44.0016 47.2122 43.8817 47.1407C43.7617 47.0718 43.5933 46.9697 43.504 46.9161L43.3458 46.8166C44.1496 45.8188 44.5145 45.3493 44.6779 45.1324C44.8386 44.9154 45.0836 44.5709 45.2189 44.3668C45.3567 44.1626 45.5481 43.8641 45.645 43.7033C45.7395 43.5425 45.8186 43.4022 45.8211 43.3894C45.8211 43.3792 45.6272 43.3715 45.3924 43.3715L44.9662 43.3741C44.5298 44.0121 44.267 44.3872 44.0986 44.622C43.9301 44.8542 43.6775 45.1859 43.5397 45.362C43.3993 45.5381 43.1748 45.8061 43.037 45.9617C42.8992 46.1148 42.7358 46.2935 42.672 46.3573L42.5547 46.4721C42.3862 46.4058 42.0723 46.2807 41.7508 46.1531C41.4267 46.0255 40.8934 45.8239 40.5642 45.704C40.235 45.584 39.7118 45.4131 39.403 45.3212C39.0254 45.2089 38.8212 45.1375 38.7829 45.0992C38.7395 45.0583 38.7268 45.0277 38.7396 44.9792C38.7498 44.9435 38.8671 44.6807 38.9998 44.3923C39.1351 44.1039 39.278 43.7722 39.3163 43.6522C39.3571 43.5323 39.3903 43.42 39.3903 43.4022C39.3903 43.3792 39.2984 43.3715 39.0203 43.3715H38.6502C38.0582 44.5275 37.8821 44.8746 37.8796 44.8874C37.8745 44.9001 37.6933 44.8746 37.4763 44.8312C37.2594 44.7853 36.9149 44.7215 36.7108 44.6883C36.5066 44.6526 36.0932 44.5888 35.7921 44.548C35.491 44.5046 35.0367 44.4459 34.7841 44.4178C34.5314 44.3897 34.0542 44.3438 33.725 44.3157C33.3958 44.2877 33.0054 44.2545 32.8574 44.2443L32.5894 44.2264C32.5639 44.1065 32.5563 43.9381 32.5537 43.7722C32.5512 43.6089 32.5384 43.4506 32.5256 43.4226C32.5027 43.3741 32.4746 43.3715 32.1429 43.3715C31.8239 43.3715 31.783 43.3766 31.7728 43.4149C31.7677 43.4404 31.7626 43.6038 31.7677 43.7798C31.7703 44.035 31.7652 44.1141 31.7294 44.1754L31.6886 44.2519C30.6066 44.3208 30.0681 44.3642 29.7951 44.3923C29.522 44.4204 29.1137 44.4663 28.8892 44.4944C28.6646 44.5224 28.2844 44.576 28.047 44.6118C27.8072 44.6475 27.3708 44.7215 27.0773 44.7751C26.7813 44.8312 26.5337 44.867 26.5235 44.8567C26.5159 44.8465 26.3372 44.5071 26.128 44.1039L25.7503 43.369C25.217 43.3741 25.0409 43.3817 25.0179 43.3919C24.9796 43.4073 25.023 43.5246 25.3292 44.2392L25.6865 45.0686C25.5972 45.1528 25.4441 45.2115 25.2782 45.2599C25.1174 45.3059 24.6351 45.4615 24.2064 45.6045C23.7777 45.7499 23.2035 45.9541 22.9304 46.0587C22.6574 46.1659 22.295 46.3088 22.1266 46.3777C21.8408 46.4951 21.8153 46.5027 21.7489 46.4696C21.7106 46.4491 21.5371 46.2705 21.3661 46.0689C21.1926 45.8699 20.9374 45.5687 20.797 45.4003C20.6592 45.2319 20.4219 44.9333 20.2739 44.7368C20.1259 44.5403 19.8937 44.2188 19.761 44.0223C19.6283 43.8258 19.4905 43.614 19.4573 43.5527C19.419 43.4838 19.3603 43.4251 19.2991 43.3945C19.2302 43.3588 19.1562 43.346 19.0311 43.3486C18.9367 43.3511 18.7785 43.3613 18.6815 43.3741C18.582 43.3868 18.5003 43.3996 18.4978 43.4022ZM32.0408 9.97208C32.3572 9.96953 32.8395 9.97974 33.1126 9.9925C33.3856 10.0078 33.8501 10.041 34.1461 10.0691C34.4396 10.0971 34.9346 10.1584 35.2434 10.2069C35.5522 10.2553 35.9937 10.337 36.2259 10.3855C36.4581 10.4365 36.6904 10.4876 36.7414 10.5029C36.8001 10.5182 36.8384 10.5437 36.8384 10.5667C36.8384 10.5871 36.7133 10.6866 36.5628 10.7861C36.4122 10.8831 36.1238 11.049 35.9197 11.1536C35.7155 11.2557 35.4757 11.3705 35.3838 11.4088C35.2919 11.4445 35.0903 11.5211 34.9372 11.5772C34.7815 11.6334 34.483 11.7227 34.2737 11.7788C34.0619 11.8324 33.7123 11.9064 33.4954 11.9422C33.2785 11.9804 32.9671 12.0213 32.8064 12.0366C32.6456 12.0519 32.2653 12.0621 31.9642 12.0621C31.6631 12.0621 31.2829 12.0493 31.1221 12.034C30.9613 12.0187 30.6857 11.983 30.5096 11.9549C30.3335 11.9268 30.0299 11.863 29.8334 11.8146C29.6369 11.7661 29.3485 11.6819 29.1954 11.6283C29.0397 11.5747 28.7871 11.4777 28.634 11.4139C28.4783 11.3476 28.2129 11.2174 28.0394 11.123C27.8658 11.026 27.6132 10.8576 27.4728 10.7453C27.3325 10.633 27.2228 10.5386 27.2253 10.5335C27.2279 10.5309 27.3504 10.5003 27.4984 10.4672C27.6464 10.434 27.922 10.3753 28.1108 10.3396C28.2997 10.3038 28.5651 10.2579 28.6978 10.2375C28.8305 10.2171 29.1239 10.1762 29.3485 10.1482C29.5731 10.1201 29.9737 10.0793 30.2417 10.0563C30.5071 10.0333 30.8924 10.0053 31.0966 9.99505C31.3007 9.98484 31.7243 9.97208 32.0408 9.97208ZM37.9791 10.8091C37.9842 10.8091 38.2011 10.8704 38.4639 10.9469C38.7268 11.0235 39.1606 11.1613 39.4286 11.2557C39.694 11.3501 40.1074 11.5058 40.3473 11.6002C40.5846 11.6972 40.9521 11.8503 41.1639 11.9447C41.3731 12.0391 41.6615 12.1744 41.8018 12.2433C41.9422 12.3147 42.205 12.4525 42.3888 12.5521C42.57 12.649 42.8864 12.8277 43.0906 12.9476C43.2947 13.0676 43.7388 13.3483 44.0807 13.5754C44.4201 13.8 44.7008 13.9964 44.7008 14.0118C44.7008 14.0245 44.6804 14.0628 44.6549 14.0934C44.6294 14.1215 44.1777 14.3894 43.652 14.6855C42.9553 15.0759 42.672 15.2239 42.6108 15.2239C42.5393 15.2239 42.4832 15.1805 42.1897 14.8998C42.0034 14.7237 41.7023 14.443 41.5211 14.2823C41.3374 14.1189 41.0516 13.8689 40.8832 13.7285C40.7147 13.5881 40.4442 13.3687 40.2835 13.2436C40.1227 13.116 39.8011 12.8762 39.5689 12.7077C39.3367 12.5368 38.9412 12.2611 38.6885 12.0953C38.4359 11.9268 38.0531 11.6844 37.8387 11.5543C37.6244 11.4241 37.4534 11.3067 37.4559 11.2914C37.461 11.2761 37.5784 11.1638 37.7188 11.0388C37.8591 10.9137 37.9765 10.8117 37.9791 10.8091ZM26.0055 10.8372C26.0336 10.8346 26.1025 10.8627 26.1586 10.901C26.2148 10.9393 26.3577 11.0439 26.6945 11.3016L26.4521 11.4547C26.3194 11.539 26.0489 11.715 25.8524 11.8426C25.6559 11.9728 25.2654 12.2433 24.9847 12.4423C24.704 12.6439 24.2957 12.9451 24.0788 13.1135C23.8619 13.2819 23.4536 13.6111 23.1729 13.8459C22.8922 14.0807 22.4915 14.4328 22.2848 14.6268C22.0756 14.8233 21.8255 15.0555 21.5473 15.3132L21.4146 15.2647C21.3432 15.2367 21.1645 15.1601 21.0165 15.0912C20.8685 15.0223 20.621 14.8947 20.4678 14.8105C20.3122 14.7237 20.0059 14.5349 19.7839 14.3894C19.5619 14.244 19.3833 14.1087 19.3833 14.0883C19.3833 14.0679 19.5007 13.9658 19.6436 13.8612C19.789 13.7566 20.108 13.5422 20.353 13.3789C20.598 13.2181 20.9935 12.9731 21.2334 12.8353C21.4707 12.7001 21.9429 12.4474 22.2797 12.2765C22.6166 12.108 23.0989 11.8809 23.3515 11.7737C23.6041 11.6665 23.9767 11.516 24.1809 11.4394C24.385 11.3603 24.7219 11.2378 24.9337 11.1638C25.143 11.0898 25.365 10.9979 25.4237 10.9571C25.5181 10.8959 25.541 10.8908 25.5844 10.9163C25.6253 10.9444 25.661 10.9393 25.7937 10.8933C25.883 10.8652 25.9774 10.8372 26.0055 10.8372ZM36.5117 11.7788C36.5219 11.7788 36.6955 11.8656 36.8945 11.9753C37.0961 12.0825 37.4151 12.2611 37.604 12.3734C37.7928 12.4857 38.0965 12.6746 38.2802 12.7945C38.4614 12.9119 38.76 13.116 38.9437 13.2462C39.1249 13.3763 39.4311 13.6009 39.62 13.7489C39.8088 13.8944 40.1303 14.1572 40.3345 14.3282C40.5387 14.5017 40.9316 14.8564 41.2073 15.1167C41.6615 15.5455 41.71 15.5991 41.6794 15.6424C41.6615 15.668 41.4471 15.7751 41.2021 15.8798C40.9572 15.9818 40.5591 16.1401 40.3217 16.2294C40.0819 16.3187 39.6914 16.4565 39.4541 16.5331C39.2142 16.6122 38.8595 16.7168 38.663 16.7653C38.4665 16.8138 38.2674 16.8597 38.2215 16.8674C38.1424 16.8827 38.1373 16.8776 38.0327 16.6964C37.974 16.5968 37.7366 16.2013 37.5044 15.8236C37.2722 15.4434 36.8409 14.7722 36.5449 14.3307C36.2489 13.8893 35.8278 13.2768 35.6058 12.9706C35.3863 12.6669 35.2077 12.4143 35.2103 12.4092C35.2154 12.4041 35.246 12.3836 35.2817 12.3607C35.3174 12.3403 35.5522 12.228 35.8048 12.1106C36.0575 11.9957 36.3152 11.8733 36.379 11.8401C36.4428 11.8069 36.5015 11.7814 36.5117 11.7788ZM27.529 11.835L27.7357 11.9115C27.8505 11.9524 28.0777 12.0391 28.2384 12.1004C28.3992 12.1642 28.5982 12.2458 28.6799 12.2841C28.7616 12.3224 28.8279 12.3581 28.8254 12.3658C28.8254 12.3734 28.8075 12.4245 28.7845 12.4806C28.7616 12.5368 28.5957 12.7766 28.4171 13.0165C28.2384 13.2538 27.973 13.6213 27.8301 13.8331C27.6872 14.0424 27.4346 14.4277 27.2687 14.688C27.1054 14.9483 26.8732 15.3209 26.7532 15.5174C26.6333 15.7139 26.401 16.1018 26.2377 16.3774C26.0234 16.7449 25.9264 16.8878 25.883 16.898C25.8498 16.9056 25.6508 16.8622 25.4058 16.7933C25.1736 16.727 24.7831 16.6122 24.5381 16.5331C24.2932 16.4565 23.867 16.3136 23.5939 16.2141C23.3209 16.1145 22.9458 15.9716 22.7646 15.8925C22.5808 15.816 22.4277 15.7522 22.4252 15.7496C22.4201 15.7471 22.4226 15.7113 22.4303 15.6705C22.4405 15.6195 22.5068 15.5301 22.6421 15.4C22.7518 15.2928 22.9789 15.081 23.1474 14.9304C23.3158 14.7773 23.6322 14.5068 23.8491 14.3231C24.066 14.1419 24.4616 13.8306 24.7295 13.629C24.9949 13.4274 25.4441 13.1084 25.7248 12.9221C26.0055 12.7332 26.401 12.4832 26.6052 12.3607C26.8094 12.2407 27.1003 12.0723 27.2508 11.9881L27.529 11.835ZM29.7594 12.6312L31.6018 12.8889L31.6172 13.0548C31.6274 13.1467 31.6401 13.6468 31.6503 14.1649C31.658 14.6855 31.6554 15.6807 31.6197 17.6482L31.5049 17.6661C31.4436 17.6763 31.1961 17.684 30.9562 17.684C30.7061 17.684 30.2825 17.6584 29.9482 17.6253C29.6343 17.5946 29.0755 17.5283 28.7105 17.4798C28.3456 17.4288 27.899 17.3624 27.7153 17.3292C27.5341 17.2961 27.2917 17.2476 27.1794 17.217C27.0671 17.1889 26.9318 17.1506 26.7864 17.0996L26.965 16.7678C27.0645 16.5866 27.2968 16.1834 27.4805 15.8747C27.6617 15.5659 27.9705 15.0785 28.1619 14.7901C28.3533 14.5017 28.6263 14.1062 28.7692 13.9097C28.9121 13.7132 29.1928 13.3457 29.3944 13.0905L29.7594 12.6312ZM34.2814 12.6516C34.2839 12.649 34.4574 12.8685 34.6667 13.139C34.8734 13.4095 35.1465 13.7693 35.2689 13.9378C35.394 14.1062 35.5905 14.3741 35.7053 14.5375C35.8202 14.6982 36.0218 14.9968 36.157 15.201C36.2897 15.4026 36.4888 15.719 36.5985 15.9027C36.7082 16.0839 36.8996 16.431 37.0221 16.6734C37.1472 16.9158 37.2416 17.1149 37.2339 17.1149C37.2288 17.1149 37.0885 17.143 36.9226 17.1787C36.7567 17.217 36.3867 17.291 36.0983 17.3446C35.8125 17.3981 35.3991 17.4645 35.1796 17.4926C34.9627 17.5206 34.6641 17.5564 34.5161 17.5717C34.3707 17.587 34.1104 17.61 33.942 17.6227C33.7735 17.638 33.3831 17.6559 32.5129 17.684L32.495 17.2144C32.4848 16.9567 32.4771 16.163 32.4797 15.4561C32.4823 14.7467 32.4899 13.8842 32.5129 12.917L33.3933 12.7868C33.8782 12.7128 34.2788 12.6541 34.2814 12.6516ZM50.2359 26.2635C50.5524 26.2686 50.805 26.289 51.0015 26.3247C51.1648 26.3528 51.397 26.4039 51.5195 26.4396C51.642 26.4753 51.8385 26.5519 51.9534 26.6106C52.0682 26.6693 52.2315 26.7637 52.3157 26.8198C52.3999 26.876 52.5556 27.0087 52.6602 27.1158C52.7929 27.2485 52.8874 27.3736 52.9588 27.5139C53.0175 27.6262 53.0941 27.8151 53.1298 27.935C53.163 28.0524 53.2089 28.2668 53.2319 28.4071C53.2548 28.5475 53.2906 28.869 53.311 29.1216C53.3416 29.4713 53.3518 29.9969 53.3544 31.329C53.3595 32.4927 53.3493 33.2175 53.3288 33.4982C53.311 33.7278 53.2753 34.1081 53.2472 34.3403C53.2191 34.57 53.1706 34.8456 53.1426 34.9528C53.1145 35.0574 53.0532 35.2233 53.0098 35.3228C52.9639 35.4198 52.8746 35.5805 52.8108 35.6801C52.747 35.777 52.6271 35.925 52.5429 36.0093C52.4612 36.0909 52.3234 36.2058 52.2392 36.2619C52.155 36.318 51.9712 36.415 51.8309 36.4737C51.6905 36.535 51.4608 36.6115 51.3205 36.6472C51.1801 36.6804 50.9862 36.7212 50.8867 36.734C50.7897 36.7493 50.6008 36.7697 50.4656 36.7774C50.3329 36.7876 50.07 36.7825 49.8787 36.7646C49.6898 36.7493 49.4142 36.711 49.2662 36.683C49.1207 36.6549 48.8783 36.5911 48.7303 36.5426C48.5848 36.4916 48.3603 36.4023 48.2327 36.3436C48.1076 36.2849 47.9418 36.1802 47.8626 36.1139C47.7861 36.0475 47.6636 35.9225 47.5896 35.8357C47.5181 35.749 47.4058 35.5805 47.3446 35.4631C47.2808 35.3432 47.1966 35.1416 47.1532 35.0166C47.1124 34.889 47.0537 34.6644 47.0256 34.5189C46.9975 34.3709 46.9567 34.1132 46.9337 33.9448C46.9108 33.7763 46.8827 33.442 46.8699 33.2047C46.8546 32.9648 46.8317 32.3626 46.8164 31.8649C46.7934 31.1836 46.7934 30.8034 46.8138 30.3338C46.8317 29.9893 46.8597 29.558 46.8802 29.3768C46.9006 29.1931 46.9414 28.9073 46.9695 28.7389C47.0001 28.5704 47.0511 28.3178 47.0869 28.1774C47.12 28.0371 47.1685 27.8584 47.194 27.7819C47.2196 27.7028 47.2808 27.565 47.3318 27.4757C47.3829 27.3838 47.4977 27.2281 47.5896 27.1311C47.6789 27.0316 47.832 26.8989 47.929 26.8351C48.026 26.7688 48.151 26.6922 48.2071 26.6641C48.2633 26.6361 48.396 26.5774 48.5006 26.5366C48.6078 26.4932 48.8145 26.4294 48.96 26.3936C49.108 26.3579 49.3504 26.3094 49.4959 26.289C49.6822 26.2635 49.9093 26.2558 50.2359 26.2635ZM31.6963 45.0941C31.7473 45.0966 31.7473 45.1196 31.7652 47.4954C31.7728 48.8148 31.7728 49.9019 31.7652 49.9095C31.755 49.9197 31.6325 49.9453 31.4921 49.9682C31.3518 49.9912 31.0149 50.0371 30.7393 50.0703C30.4662 50.106 30.1906 50.1443 30.1268 50.1596C30.0656 50.1749 29.9941 50.1851 29.9686 50.1851C29.9431 50.1877 29.8359 50.0805 29.7109 49.9248C29.596 49.7819 29.4021 49.537 29.2847 49.3838C29.1648 49.2282 29.0065 49.0164 28.93 48.9117C28.8534 48.8046 28.6876 48.5698 28.5625 48.3886C28.4375 48.2049 28.2308 47.8884 28.1006 47.6868C27.973 47.4827 27.7969 47.202 27.7127 47.0616C27.626 46.9212 27.5111 46.7247 27.455 46.6278C27.3988 46.5282 27.2636 46.2884 26.9625 45.7346L27.0212 45.6759C27.0518 45.6427 27.1283 45.607 27.187 45.5917C27.2457 45.5789 27.5622 45.5228 27.8888 45.4667C28.2155 45.4105 28.6416 45.3416 28.8381 45.3135C29.0346 45.2855 29.4149 45.2395 29.6803 45.2115C29.9482 45.1859 30.3667 45.1502 30.6117 45.1349C30.8592 45.1196 31.191 45.1043 31.3518 45.0992C31.5151 45.0966 31.6682 45.0941 31.6963 45.0941ZM32.6328 45.0839L32.74 45.0966C32.7987 45.1017 33.0513 45.1145 33.304 45.1221C33.5566 45.1298 33.9139 45.1477 34.0951 45.1604C34.2788 45.1757 34.6412 45.2089 34.8989 45.237C35.1592 45.265 35.5726 45.3186 35.8176 45.3544C36.0651 45.3901 36.4837 45.4641 36.7491 45.5202C37.017 45.5764 37.2747 45.63 37.3207 45.6402C37.3743 45.6504 37.4151 45.6759 37.4253 45.7091C37.4381 45.7448 37.4126 45.8188 37.3411 45.9515C37.285 46.0561 37.142 46.3139 37.0221 46.5257C36.9047 46.735 36.7031 47.0744 36.5755 47.2785C36.4505 47.4801 36.2183 47.8374 36.0651 48.0696C35.912 48.2993 35.6747 48.6438 35.542 48.8352C35.4093 49.024 35.1362 49.3966 34.9372 49.6645C34.6616 50.032 34.557 50.1545 34.5008 50.1698C34.46 50.18 34.3426 50.1826 34.2354 50.1749C34.1308 50.1647 33.8731 50.1239 33.6612 50.0831C33.452 50.0448 33.133 49.9963 32.6328 49.9453L32.6124 49.6518C32.5996 49.4885 32.592 48.5085 32.592 47.4699C32.592 46.4313 32.5996 45.4692 32.6124 45.334L32.6328 45.0839ZM26.0183 45.9056C26.105 45.9107 26.1127 45.9183 26.3219 46.2935C26.4393 46.5027 26.6741 46.9059 26.8425 47.1866C27.011 47.4674 27.335 47.9777 27.5622 48.3222C27.7867 48.6668 28.1568 49.2103 28.3788 49.5344C28.6008 49.8559 28.833 50.1928 29.004 50.4403L28.9223 50.4914C28.8764 50.5194 28.6314 50.6292 28.3788 50.7364C28.1261 50.8435 27.8735 50.9584 27.7153 51.0502L27.3325 50.8512C27.1232 50.7415 26.7787 50.5526 26.5669 50.4276C26.3577 50.3051 25.9545 50.0524 25.6737 49.8662C25.393 49.6799 24.9796 49.3889 24.7551 49.2205C24.5305 49.0521 24.1936 48.7841 24.0022 48.6259C23.8134 48.4677 23.5378 48.2304 23.3898 48.0951C23.2443 47.9624 22.9815 47.7149 22.8105 47.5465C22.637 47.3755 22.4966 47.2173 22.4966 47.1917C22.4966 47.1628 22.5587 47.1177 22.6829 47.0565C22.785 47.0055 23.0631 46.883 23.3005 46.7834C23.5403 46.6865 23.9538 46.5282 24.2192 46.4313C24.4871 46.3369 24.9567 46.1863 25.2654 46.0944C25.5742 46.0026 25.8498 45.9234 25.8779 45.9158C25.906 45.9081 25.9698 45.903 26.0183 45.9056ZM38.3695 45.8979C38.3899 45.8979 38.5864 45.9439 38.8033 46.0026C39.0228 46.0587 39.3673 46.1557 39.5689 46.2169C39.7731 46.2782 40.0946 46.3853 40.2835 46.4542C40.4748 46.5257 40.7505 46.6303 40.8959 46.689C41.0439 46.7477 41.317 46.8677 41.5033 46.9519C41.6896 47.0386 41.8401 47.1203 41.8401 47.1356C41.8401 47.1484 41.5951 47.4036 41.2991 47.697C41.0005 47.993 40.5718 48.3886 40.3473 48.5749C40.1227 48.7637 39.694 49.1006 39.3903 49.3277C39.0892 49.5548 38.7217 49.8151 38.5737 49.907C38.4282 49.9988 38.1577 50.1673 37.974 50.2796C37.7928 50.3918 37.4253 50.6062 36.6725 51.0247L36.06 50.7568C35.7232 50.6088 35.4425 50.4837 35.4348 50.4761C35.4297 50.471 35.4399 50.4276 35.4603 50.3816C35.4808 50.3383 35.6696 50.0575 35.8789 49.7641C36.0907 49.4681 36.4377 48.9628 36.6495 48.6412C36.8613 48.3171 37.1752 47.8272 37.3462 47.549C37.5172 47.2734 37.7877 46.809 37.9485 46.5155C38.1092 46.2246 38.2598 45.9668 38.2853 45.9413C38.3083 45.9183 38.3466 45.8979 38.3695 45.8979ZM42.6899 47.5107L42.8201 47.5618C42.8915 47.5898 43.1237 47.6945 43.333 47.7991C43.5448 47.9012 43.8766 48.0824 44.0731 48.1997C44.2696 48.3171 44.5375 48.4856 44.6676 48.5723C44.7978 48.6591 44.8999 48.7382 44.8948 48.7484C44.8897 48.7612 44.7544 48.8684 44.5936 48.9883C44.4354 49.1082 44.1496 49.3098 43.9582 49.4374C43.7694 49.5625 43.4529 49.7615 43.2564 49.8789C43.0599 49.9963 42.5904 50.2489 42.2102 50.4403C41.8325 50.6292 41.2353 50.9099 40.8832 51.0579C40.5335 51.2085 40.1023 51.3845 39.9262 51.4509C39.7527 51.5172 39.2933 51.6729 38.2037 52.02L38.0735 51.9383C37.9995 51.8924 37.8591 51.7928 37.7596 51.7163C37.6626 51.6397 37.581 51.5632 37.5784 51.5504C37.5784 51.5351 37.604 51.5019 37.6371 51.4713C37.6677 51.4432 37.8617 51.3182 38.0633 51.1931C38.2674 51.0681 38.64 50.8282 38.8927 50.6598C39.1453 50.4914 39.5766 50.1826 39.8496 49.9784C40.1252 49.7717 40.4978 49.4808 40.679 49.3302C40.8627 49.1822 41.2124 48.8837 41.4573 48.6668C41.7049 48.4524 42.0826 48.1028 42.2969 47.8935L42.6899 47.5107ZM21.6034 47.5567C21.6239 47.5567 21.7744 47.6868 21.9352 47.8425C22.0985 48.0007 22.3843 48.2687 22.5732 48.4371C22.7646 48.6055 23.0912 48.8862 23.3005 49.0623C23.5123 49.2384 23.8568 49.514 24.066 49.6748C24.2779 49.8355 24.6377 50.106 24.8699 50.2719C25.1021 50.4403 25.6176 50.7925 26.0183 51.0579C26.4189 51.3233 26.7456 51.5504 26.7456 51.5606C26.7456 51.5708 26.6231 51.6806 26.1969 52.0225L25.9111 51.9434C25.7529 51.9 25.3522 51.775 25.023 51.6652C24.6938 51.5555 24.2064 51.3794 23.9384 51.2748C23.673 51.1676 23.3056 51.0145 23.1218 50.9303C22.9407 50.8486 22.5094 50.6368 22.1649 50.4633C21.8204 50.2872 21.3304 50.0193 21.0727 49.8636C20.8124 49.7105 20.353 49.417 20.0519 49.2129C19.6181 48.9219 19.4981 48.8301 19.4981 48.7867C19.4981 48.7459 19.5543 48.6974 19.7278 48.5851C19.8554 48.506 20.1591 48.3197 20.404 48.1742C20.649 48.0288 21.0114 47.8297 21.2079 47.7327C21.4044 47.6332 21.583 47.5541 21.6034 47.5567ZM32.3598 50.7848C32.8421 50.7899 33.1304 50.8078 33.406 50.8461C33.6179 50.8742 33.9266 50.9252 34.0951 50.9584C34.2635 50.9941 34.5442 51.063 34.7203 51.114C34.8964 51.1625 35.1669 51.2518 35.32 51.308C35.4757 51.3641 35.7972 51.507 36.0345 51.6244C36.2744 51.7444 36.5959 51.9204 37.0298 52.2012L36.9277 52.2905C36.8716 52.3364 36.8078 52.3823 36.7873 52.39C36.7669 52.3951 36.5704 52.4359 36.3535 52.4768C36.1366 52.5201 35.7283 52.589 35.4476 52.6299C35.1669 52.6733 34.7764 52.7243 34.5799 52.7473C34.3834 52.7677 33.9598 52.8034 33.6357 52.8264C33.2759 52.8519 32.7043 52.8672 32.1556 52.8672C31.6656 52.8672 31.0557 52.857 30.8031 52.8391C30.5505 52.8238 30.183 52.7932 29.9865 52.7728C29.79 52.7498 29.4582 52.7115 29.2464 52.6809C29.0372 52.6528 28.6748 52.5967 28.4426 52.5559C28.2104 52.5125 27.8888 52.4487 27.728 52.413C27.5673 52.3772 27.4167 52.339 27.3963 52.3262C27.3657 52.3134 27.3861 52.2803 27.4907 52.1705C27.5673 52.0889 27.7357 51.9664 27.899 51.8694C28.0496 51.7775 28.3175 51.6397 28.4936 51.5606C28.6697 51.479 28.9555 51.3641 29.1316 51.3003C29.3077 51.2365 29.6011 51.1447 29.7823 51.0936C29.9661 51.0451 30.2646 50.9737 30.4458 50.9405C30.6296 50.9048 30.9332 50.8588 31.1221 50.8359C31.3109 50.8155 31.5176 50.7925 31.5814 50.7874C31.6452 50.7797 31.9948 50.7797 32.3598 50.7848Z" fill="black" fill-opacity="0.64"/>
</g>
<defs>
<clipPath id="clip0_1765_2331">
<rect x="0.142853" width="64" height="64" rx="4" fill="white"/>
</clipPath>
</defs>
</svg>
