<svg width="97" height="64" viewBox="0 0 97 64" fill="none" xmlns="http://www.w3.org/2000/svg">
<g clip-path="url(#clip0_1765_2337)">
<path fill-rule="evenodd" clip-rule="evenodd" d="M18.2517 18.6319C19.3455 18.6603 20.046 18.7267 20.6984 18.8689C21.1974 18.9827 22.0034 19.2008 22.4735 19.3715C22.9437 19.5327 23.6442 19.8172 24.0088 19.9974C24.3734 20.1776 25.0451 20.5758 25.496 20.8698C25.947 21.1638 26.6954 21.7612 27.1656 22.2069C27.6358 22.6526 28.2882 23.3732 28.6241 23.8189C28.9599 24.2646 29.4493 25.0327 29.7083 25.5258C29.9674 26.0189 30.3128 26.8155 30.4855 27.2801C30.6487 27.7448 30.8693 28.5603 30.9845 29.0819C31.1284 29.7836 31.1764 30.3905 31.1764 31.4526C31.186 32.3439 31.1284 33.1974 31.0325 33.7284C30.9461 34.1931 30.7542 34.9707 30.6007 35.4353C30.4472 35.9 30.1401 36.6491 29.929 37.0948C29.7179 37.5405 29.3341 38.2138 29.075 38.5836C28.8256 38.9629 28.3554 39.5793 28.0388 39.9491C27.7221 40.3189 27.1176 40.9069 26.6954 41.2672C26.2732 41.6181 25.6304 42.1017 25.2561 42.3293C24.8915 42.5664 24.3062 42.8983 23.9608 43.0689C23.6154 43.2396 23.0109 43.4957 22.6175 43.6379C22.2241 43.7801 21.5908 43.9698 21.2262 44.0457C20.8615 44.131 20.1035 44.2638 19.547 44.3491C18.9905 44.425 18.3668 44.4914 18.1557 44.4914C17.9446 44.4914 17.3209 44.425 16.7644 44.3491C16.2079 44.2638 15.4499 44.131 15.0852 44.0457C14.7206 43.9698 14.0873 43.7801 13.6939 43.6379C13.3005 43.4957 12.6672 43.2301 12.3026 43.0405C11.938 42.8603 11.2472 42.4526 10.7674 42.1491C10.2876 41.8362 9.49123 41.1724 8.99228 40.6793C8.49333 40.1862 7.83126 39.4465 7.53381 39.0293C7.23636 38.6215 6.76619 37.8534 6.49753 37.3319C6.22886 36.8103 5.88343 35.9758 5.72031 35.4827C5.56679 34.9896 5.36529 34.1931 5.27894 33.7284C5.19258 33.2069 5.12541 32.3439 5.12541 31.5C5.12541 30.6276 5.19258 29.812 5.28853 29.2715C5.37489 28.8069 5.57639 28.0103 5.7395 27.5172C5.90262 27.0241 6.26724 26.1707 6.5551 25.6207C6.84295 25.0707 7.3515 24.2646 7.68733 23.8189C8.02316 23.3732 8.67564 22.6526 9.1458 22.2069C9.61597 21.7612 10.3644 21.1638 10.8154 20.8698C11.2663 20.5758 11.9764 20.1586 12.3986 19.95C12.8208 19.7414 13.5788 19.4474 14.0777 19.2862C14.5767 19.125 15.3539 18.9258 15.8049 18.8405C16.2558 18.7551 16.6397 18.6698 16.6684 18.6414C16.6876 18.6129 17.4073 18.6129 18.2517 18.6319ZM15.1812 21.0215C14.711 21.1543 13.905 21.4577 13.4061 21.6948C12.9071 21.9319 12.1875 22.3396 11.8229 22.5862C11.4582 22.8422 10.8154 23.3827 10.3932 23.7905C9.98058 24.1982 9.42406 24.8336 9.16499 25.1939C8.89633 25.5543 8.52211 26.1801 8.32061 26.5689C8.12871 26.9577 7.85045 27.5836 7.71612 27.9439C7.59138 28.3043 7.40907 28.9491 7.33231 29.3664C7.24595 29.7836 7.15 30.4664 7.11162 30.8836C7.08283 31.3008 7.10202 32.0689 7.1596 32.5905C7.21717 33.112 7.36109 33.8801 7.47624 34.2974C7.58178 34.7146 7.83126 35.4164 8.02316 35.862C8.21507 36.3077 8.62766 37.0569 8.9443 37.5215C9.25135 37.9862 9.88463 38.7448 10.3356 39.1905C10.7866 39.6362 11.4774 40.2146 11.8708 40.4801C12.2642 40.7362 12.8687 41.0965 13.2142 41.2672C13.5596 41.4379 14.2025 41.7034 14.6534 41.8551C15.1044 42.0069 15.8624 42.187 16.3326 42.2629C16.8028 42.3388 17.628 42.4051 18.1557 42.4051C18.6834 42.4051 19.5086 42.3388 19.9788 42.2629C20.449 42.187 21.207 42.0069 21.6579 41.8551C22.1089 41.7034 22.7518 41.4379 23.0972 41.2672C23.4427 41.0965 24.028 40.7551 24.3926 40.5086C24.7572 40.2526 25.3233 39.8258 25.6304 39.5414C25.947 39.2664 26.4555 38.7164 26.7722 38.3276C27.0888 37.9388 27.511 37.3414 27.7029 37C27.9044 36.6586 28.2115 36.0422 28.3746 35.625C28.5473 35.2077 28.768 34.5439 28.8639 34.1551C28.9695 33.7664 29.0942 33.0172 29.1518 32.4957C29.2286 31.8129 29.2286 31.2724 29.1518 30.5517C29.0942 30.0017 28.9407 29.1482 28.8064 28.6551C28.672 28.162 28.3266 27.2896 28.0388 26.7112C27.7509 26.1422 27.3095 25.3931 27.0505 25.0517C26.7818 24.7103 26.2732 24.1508 25.9182 23.7905C25.5536 23.4396 24.9971 22.9655 24.6804 22.7284C24.3638 22.4914 23.7785 22.131 23.3851 21.9319C22.9917 21.7232 22.368 21.4388 21.9938 21.306C21.6292 21.1638 20.9575 20.9741 20.5065 20.8698C20.0555 20.775 19.1728 20.6707 18.5395 20.6517C17.9062 20.6232 17.0906 20.6422 16.7164 20.6991C16.3518 20.7465 15.6514 20.8888 15.1812 21.0215ZM90.2924 36.7155C90.4843 36.7155 90.7626 36.7629 90.9161 36.8198C91.0601 36.8672 91.2999 37.0284 91.4535 37.1707C91.607 37.3129 91.8085 37.5974 91.9044 37.806C92.0004 38.0146 92.0867 38.356 92.0867 38.5646C92.0867 38.7733 92.0004 39.1146 91.9044 39.3232C91.8085 39.5319 91.607 39.8164 91.4535 39.9586C91.2999 40.1008 91.0601 40.262 90.9161 40.3095C90.7626 40.3664 90.4939 40.4138 90.3116 40.4138C90.1293 40.4138 89.8606 40.3664 89.7167 40.3095C89.5632 40.262 89.3233 40.1008 89.1698 39.9586C89.0163 39.8164 88.8148 39.5319 88.7188 39.3232C88.6229 39.1146 88.5365 38.7827 88.5365 38.5836C88.5365 38.3939 88.6037 38.0715 88.69 37.8724C88.7668 37.6827 88.9299 37.3983 89.0451 37.237C89.1602 37.0853 89.4097 36.9051 89.592 36.8388C89.7743 36.7724 90.0909 36.725 90.2924 36.7155ZM89.141 37.5595C89.0259 37.7207 88.8915 38.0146 88.8628 38.2043C88.8244 38.4034 88.8244 38.7164 88.8628 38.8965C88.8915 39.0767 88.9971 39.3327 89.1026 39.4655C89.1986 39.5983 89.4001 39.7879 89.5344 39.8922C89.7263 40.025 89.947 40.0819 90.3116 40.0819C90.6858 40.0819 90.8969 40.025 91.0984 39.8827C91.2424 39.7689 91.4535 39.5603 91.559 39.4276C91.7029 39.2284 91.7509 39.0198 91.7509 38.5646C91.7509 38.1095 91.7029 37.9008 91.559 37.7017C91.4535 37.5689 91.2616 37.3698 91.1272 37.2655C90.9929 37.1612 90.6954 37.0664 90.4556 37.0379C90.2061 37.0189 89.8894 37.0569 89.6975 37.1327C89.5152 37.1991 89.2657 37.3888 89.141 37.5595ZM38.0657 25.4405C38.2001 25.4405 38.7758 25.4784 39.3611 25.5258C39.9464 25.5732 40.6756 25.706 40.9923 25.8103C41.3089 25.9241 41.7215 26.1233 41.8942 26.2655C42.0765 26.4077 42.3164 26.7112 42.422 26.9482C42.6139 27.3465 42.6235 27.5741 42.6522 30.8362C42.6714 32.9319 42.6427 34.487 42.5851 34.7715C42.5275 35.0276 42.3836 35.3974 42.2589 35.5776C42.1341 35.7577 41.8942 36.0043 41.7119 36.1276C41.5296 36.2508 41.165 36.412 40.8963 36.4879C40.6373 36.5638 39.956 36.6681 39.3899 36.7155C38.699 36.7819 37.9794 36.7819 37.2502 36.7155C36.6265 36.6586 35.9068 36.5353 35.5998 36.431C35.2927 36.3172 34.9089 36.137 34.7554 36.0138C34.6019 35.9 34.362 35.587 33.9878 34.8664V27.375L34.2277 26.9103C34.362 26.6543 34.6019 26.3414 34.7554 26.2276C34.9089 26.1043 35.3023 25.9241 35.619 25.8103C35.9356 25.706 36.5593 25.5827 37.0103 25.5353C37.4612 25.4879 37.9314 25.45 38.0657 25.4405ZM35.7341 27.1095C35.5902 27.2517 35.4271 27.5457 35.3791 27.7543C35.3311 27.9629 35.2831 29.4801 35.2831 31.1207C35.2831 32.7612 35.3311 34.2784 35.3791 34.487C35.4271 34.7146 35.5902 34.9801 35.7821 35.1603C36.0028 35.3689 36.2714 35.4922 36.6744 35.5681C36.9911 35.6345 37.7491 35.6914 38.3536 35.6914C38.9581 35.6819 39.6777 35.6345 39.9368 35.5776C40.2055 35.5207 40.5413 35.3974 40.6852 35.312C40.8292 35.2267 41.0403 34.9801 41.1458 34.7715C41.3185 34.4112 41.3281 34.212 41.3089 31.0258C41.2801 27.8491 41.2705 27.6405 41.0882 27.3465C40.9827 27.1758 40.7044 26.9482 40.4645 26.825C40.0807 26.6353 39.86 26.6164 38.4975 26.5974C37.4037 26.5784 36.828 26.6164 36.4825 26.7112C36.2235 26.787 35.8876 26.9672 35.7341 27.1095ZM65.0283 25.4974C65.5848 25.5258 66.3044 25.6017 66.6307 25.6776C66.9665 25.7534 67.3983 25.8862 67.5902 25.9905C67.7917 26.0853 68.0987 26.3224 68.2618 26.512C68.4346 26.7017 68.6169 27.0146 68.6744 27.2043C68.732 27.4224 68.7704 29.3948 68.7704 36.6207H67.4271V32.5431H61.478V36.6207H60.1347L60.1635 32.0405C60.1923 28.3517 60.2211 27.3939 60.3362 27.0905C60.4034 26.8819 60.6241 26.5595 60.8064 26.3698C61.0271 26.1517 61.3629 25.962 61.7659 25.8293C62.1113 25.7155 62.7542 25.5827 63.2052 25.5353C63.6562 25.4879 64.4717 25.4689 65.0283 25.4974ZM61.929 27.1095C61.7755 27.2707 61.6316 27.5551 61.574 27.8207C61.5164 28.0767 61.478 28.9776 61.478 29.8405V31.4051H67.4271C67.4271 28.0293 67.3983 27.7069 67.2544 27.4224C67.1584 27.2232 66.9281 26.9957 66.6595 26.8534C66.2565 26.6353 66.1317 26.6164 64.6445 26.5974C63.4547 26.5784 62.9557 26.6069 62.6295 26.7112C62.3896 26.787 62.0825 26.9672 61.929 27.1095ZM75.1992 25.5353C76.1011 25.5353 76.9263 25.5827 77.3101 25.6586C77.6556 25.725 78.1065 25.8672 78.3176 25.9715C78.5287 26.0758 78.8454 26.3224 79.0085 26.512C79.1812 26.7017 79.3635 27.0146 79.4211 27.2043C79.469 27.4034 79.517 27.8491 79.517 28.8448H78.1737V28.2948C78.1737 27.9724 78.1065 27.6215 78.001 27.4224C77.8858 27.1948 77.6843 27.0146 77.3581 26.8534C76.9071 26.6258 76.792 26.6164 75.2472 26.6164C73.7023 26.6164 73.5872 26.6258 73.1362 26.8534C72.8292 27.0051 72.5893 27.2138 72.4645 27.4224C72.3206 27.6784 72.2822 27.9345 72.2726 28.5603C72.2726 29.1767 72.311 29.4327 72.4358 29.6319C72.5317 29.7741 72.7236 29.9448 72.8675 30.0207C73.0211 30.0965 74.1917 30.3336 75.487 30.5422C77.3773 30.8457 77.9434 30.9784 78.356 31.187C78.7014 31.3577 78.9893 31.5948 79.469 32.2776V33.662C79.469 34.9233 79.4499 35.0939 79.2484 35.4543C79.114 35.7103 78.8645 35.9664 78.5767 36.1465C78.3272 36.3077 77.8379 36.4974 77.4732 36.5732C77.1182 36.6491 76.4082 36.7439 75.89 36.7724C75.3431 36.8103 74.5467 36.7914 73.9518 36.7155C73.3953 36.6586 72.7044 36.5164 72.4166 36.4026C72.1287 36.2983 71.7353 36.0517 71.553 35.8715C71.3515 35.6724 71.1596 35.35 71.0924 35.1034C71.0157 34.8664 70.9581 34.2879 70.9293 32.9698L72.2247 32.9224V33.3207C72.2247 33.5483 72.2726 33.9845 72.3206 34.2974C72.3878 34.6577 72.4933 34.9517 72.6373 35.0845C72.7524 35.2077 72.9635 35.3689 73.1074 35.4448C73.2609 35.5207 73.7791 35.625 74.2589 35.6819C74.7482 35.7388 75.4774 35.7577 75.8708 35.7198C76.2643 35.6914 76.8016 35.606 77.0702 35.5301C77.3581 35.4543 77.6651 35.2836 77.8379 35.1034C78.1065 34.8189 78.1257 34.762 78.1545 33.8896C78.1833 33.131 78.1641 32.9129 78.0106 32.6569C77.9146 32.4767 77.6747 32.2681 77.4541 32.1638C77.2334 32.0595 76.1683 31.8414 74.9113 31.6422C73.6735 31.4431 72.5701 31.2155 72.3206 31.1112C72.0807 31.0069 71.7641 30.8077 71.6202 30.6655C71.4667 30.5232 71.2556 30.2388 71.1404 30.0301C70.9677 29.7077 70.9485 29.4896 70.9485 28.5129C70.9581 27.4508 70.9773 27.337 71.2364 26.8629C71.4379 26.4741 71.6202 26.2845 71.9848 26.0853C72.2439 25.9336 72.7428 25.7534 73.0882 25.6776C73.472 25.5922 74.2876 25.5353 75.1992 25.5353ZM44.8783 25.6207H46.2217V30.0965C46.2217 34.2974 46.2313 34.6008 46.404 34.9138C46.4999 35.0939 46.7302 35.331 46.9029 35.4353C47.1812 35.5965 47.4019 35.625 48.4286 35.625C49.4552 35.625 49.6759 35.5965 49.9542 35.4353C50.1365 35.331 50.3764 35.0939 50.4819 34.9138C50.6738 34.5914 50.6834 34.4396 50.7218 25.6207H52.0843L52.1035 30.1629C52.1227 34.6198 52.1227 34.7146 52.3242 34.9801C52.4394 35.1224 52.6696 35.331 52.852 35.4353C53.1302 35.5965 53.3509 35.625 54.3776 35.625C55.4331 35.625 55.6154 35.5965 55.9128 35.4258C56.1239 35.3026 56.3158 35.075 56.4118 34.8284C56.5653 34.4776 56.5845 34.0224 56.5845 25.6207H57.9278V30.0965C57.9278 33.8138 57.9086 34.6672 57.7839 35.075C57.7071 35.35 57.5152 35.7198 57.3713 35.881C57.2178 36.0517 56.8723 36.2888 56.6037 36.4026C56.3254 36.5258 55.7305 36.6586 55.2603 36.7155C54.771 36.7724 54.1473 36.7724 53.7539 36.725C53.3797 36.687 52.8424 36.5448 52.5545 36.412C52.2666 36.2793 51.8828 36.0327 51.4031 35.5301L51.0385 35.881C50.8466 36.0707 50.4915 36.3172 50.2517 36.4215C50.0118 36.5258 49.5032 36.6586 49.1194 36.7155C48.6493 36.7819 48.1503 36.7819 47.565 36.7155C47.0756 36.6586 46.4807 36.5258 46.2025 36.4026C45.9146 36.2793 45.5788 36.0422 45.3869 35.8146C45.2142 35.606 45.0319 35.2551 44.9743 35.0276C44.9167 34.7905 44.8783 32.837 44.8783 30.125V25.6207ZM81.7239 25.6207H84.6505C86.4544 25.6207 87.7689 25.6586 88.0759 25.725C88.3542 25.7819 88.7764 25.9336 89.0163 26.0474C89.2562 26.1707 89.544 26.3698 89.6592 26.4931C89.7743 26.6069 89.9662 26.9198 90.0909 27.1853C90.302 27.631 90.3116 27.7732 90.3116 29.556C90.3116 31.2819 90.2924 31.4905 90.1101 31.8793C90.0046 32.1164 89.7647 32.4482 89.5824 32.6284C89.4001 32.8086 89.0642 33.0362 88.8244 33.131C88.5845 33.2258 88.1335 33.3491 87.8169 33.3965C87.5002 33.4534 86.3008 33.4914 83.0672 33.4914V36.6207H81.7239V25.6207ZM83.0672 32.4482C86.2912 32.4482 87.2987 32.4008 87.5962 32.3345C87.8744 32.2776 88.2295 32.1164 88.383 31.9836C88.5365 31.8508 88.7284 31.6043 88.8148 31.4526C88.9395 31.225 88.9683 30.8551 88.9683 29.556C88.9683 28.1336 88.9491 27.906 88.7764 27.5741C88.6517 27.3465 88.4214 27.1095 88.1527 26.9577C87.7209 26.7112 87.7017 26.7112 85.3989 26.6827L83.0768 26.6543L83.0672 32.4482ZM23.1164 23.8853C23.2124 24.0276 23.3179 24.2931 23.3467 24.4827C23.3851 24.6819 23.3467 24.9664 23.0972 25.6207L24.0567 26.5689L24.3926 26.4267C24.5845 26.3414 24.8627 26.2845 25.0163 26.2845C25.1794 26.2845 25.4576 26.3603 25.6496 26.4457C25.8319 26.5405 25.9854 26.6448 25.9854 26.6827C25.9758 26.7207 25.9662 26.7586 25.9566 26.7586C25.9374 26.7586 25.7263 26.6733 25.4768 26.5689C25.2274 26.4646 24.9683 26.3983 24.9011 26.4172C24.834 26.4457 24.6612 26.512 24.2487 26.6638L24.4502 26.9198C24.5557 27.062 24.6421 27.2327 24.6421 27.2991C24.6325 27.3655 24.4502 27.612 24.2295 27.8396C23.9992 28.0767 23.6921 28.3138 23.529 28.3612C23.3755 28.4181 23.1644 28.4465 23.078 28.4181C22.9821 28.3896 22.8286 28.3517 22.7422 28.3232C22.5887 28.2853 22.5791 28.3422 22.5887 28.8164C22.6079 29.3379 22.6271 29.3758 22.9725 29.6224C23.2891 29.8405 23.4043 29.8784 23.7977 29.8405C24.0663 29.812 24.2487 29.831 24.2487 29.8879C24.2487 29.9353 24.1527 30.0017 24.0376 30.0301C23.9128 30.0491 23.6825 30.0776 23.5098 30.0776C23.3371 30.0776 23.0493 30.0112 22.8573 29.9353C22.675 29.85 22.5215 29.812 22.5215 29.8405C22.5215 29.8595 22.5791 30.0017 22.6558 30.1439C22.7614 30.3431 22.9341 30.4474 23.3851 30.5991C23.7209 30.7034 23.9992 30.8172 24.0184 30.8551C24.0472 30.8931 24.0088 30.931 23.9416 30.931C23.8744 30.9215 23.5578 30.8646 23.2412 30.7888C22.9245 30.7129 22.6367 30.6465 22.5983 30.6465C22.5599 30.6465 22.5215 30.6939 22.5215 30.7603C22.5215 30.8267 22.7326 31.0827 22.9821 31.3293C23.2316 31.5758 23.4139 31.7939 23.3851 31.8224C23.3659 31.8414 23.1164 31.6896 22.8286 31.4715C22.4448 31.1681 22.2816 30.95 22.1377 30.5707C22.0322 30.2957 21.9074 30.0776 21.8499 30.0776C21.8019 30.0776 21.7539 30.125 21.7539 30.1914C21.7539 30.2577 21.8211 30.656 21.8978 31.0732C21.9746 31.4905 22.1473 32.5526 22.2816 33.4439C22.416 34.3258 22.5695 35.7767 22.6175 36.6681C22.6846 37.7112 22.6846 38.6784 22.6271 39.4181C22.5695 40.0439 22.5023 40.5845 22.4543 40.6319C22.416 40.6698 22.2241 40.5465 22.0418 40.3474C21.8499 40.1482 21.514 39.6646 21.2837 39.2758C21.0439 38.8776 20.7176 38.2612 20.5449 37.9008C20.3722 37.531 20.1611 36.9051 20.0843 36.4974C19.998 36.0991 19.9308 35.5017 19.9404 35.1698C19.9404 34.6672 19.9884 34.487 20.2858 33.9655C20.6217 33.3776 20.6505 33.2733 20.804 31.7845C20.8903 30.9215 20.9383 30.1914 20.9095 30.1534C20.8711 30.1155 20.7272 30.0681 20.5833 30.0301C20.3242 29.9827 20.3242 29.9922 20.3818 30.2862C20.4202 30.5138 20.3722 30.7414 20.1995 31.1207C20.0651 31.4051 19.6238 32.0215 19.2016 32.4862C18.789 32.9508 18.1845 33.5483 17.8678 33.8043C17.5512 34.0698 16.9947 34.4776 16.6205 34.7146C16.2558 34.9517 15.2867 35.4732 14.4615 35.881C13.646 36.2888 12.9551 36.6017 12.9263 36.5732C12.9071 36.5448 13.1854 35.9095 13.5692 35.1698C13.9434 34.4301 14.5575 33.3681 14.9221 32.8276C15.4019 32.1069 15.9008 31.5379 16.6876 30.7888C17.3113 30.1914 18.0118 29.6224 18.3092 29.4707C18.7122 29.262 18.9233 29.2051 19.24 29.2336C19.643 29.2715 19.6526 29.262 19.595 29.0345C19.5662 28.9017 19.5086 28.7595 19.4702 28.7215C19.4319 28.6836 18.741 28.7215 17.9158 28.7974C17.1002 28.8827 16.3422 28.9681 16.2367 28.9965C16.1311 29.025 15.8337 29.1767 15.565 29.3379C15.2675 29.5181 14.9029 29.6414 14.6055 29.6698C14.3464 29.6982 13.7227 29.6414 13.2142 29.556C12.6001 29.4517 12.034 29.281 11.487 29.025C11.0457 28.8164 10.374 28.456 9.99978 28.2284C9.63516 28.0008 9.20337 27.6784 9.04025 27.5267C8.88673 27.3655 8.78118 27.2138 8.80037 27.1853C8.82916 27.1569 9.24175 27.0905 9.71192 27.0336C10.2493 26.9672 11.1896 26.9577 12.1587 26.9957C13.0319 27.0241 14.26 27.1095 14.8933 27.1853C15.5266 27.2612 16.8124 27.4508 17.7527 27.6026C18.6834 27.7638 19.4798 27.8965 19.499 27.8965C19.5278 27.8965 19.547 27.8586 19.5566 27.8207C19.5566 27.7827 19.2879 27.6215 18.9713 27.4698C18.5779 27.2801 18.2804 27.0431 18.0597 26.7586C17.8774 26.5215 17.7527 26.3034 17.7815 26.2845C17.8007 26.256 18.031 26.4362 18.2804 26.6827C18.5299 26.9293 18.789 27.1379 18.8561 27.1379C18.9233 27.1379 18.9521 27.062 18.9329 26.9672C18.9041 26.8819 18.8178 26.5405 18.741 26.2086C18.6546 25.8862 18.6259 25.6207 18.6642 25.6112C18.7026 25.6112 18.789 25.725 18.8466 25.8767C18.9137 26.0189 19.0097 26.3034 19.0672 26.4931C19.1344 26.7396 19.2591 26.8914 19.4511 26.9957C19.6142 27.0715 19.7389 27.0905 19.7389 27.0431C19.7389 26.9862 19.6909 26.8534 19.6334 26.7301C19.5662 26.6164 19.5278 26.3508 19.5374 26.1422C19.5374 25.9336 19.5662 25.6396 19.595 25.4974C19.6238 25.3551 19.6813 25.2414 19.7197 25.2414C19.7581 25.2414 19.7773 25.4879 19.7581 25.7819C19.7293 26.2465 19.7677 26.3888 19.9788 26.6827C20.2091 27.0146 20.257 27.0431 21.2933 27.0905L21.2358 26.6827C21.1974 26.4267 21.2358 26.1612 21.3221 25.9526C21.4085 25.7629 21.514 25.6207 21.562 25.6207C21.6196 25.6207 21.7827 25.4879 21.9266 25.3267C22.0705 25.175 22.2624 25.0422 22.3584 25.0422C22.4448 25.0517 22.6079 25.137 22.7134 25.2414C22.819 25.3457 22.9149 25.431 22.9341 25.431C22.9437 25.431 23.0205 25.2983 23.0972 25.1276C23.1644 24.9569 23.2316 24.7293 23.2316 24.625C23.2316 24.5207 23.1356 24.2741 23.0205 24.075C22.9053 23.8853 22.8382 23.6957 22.8765 23.6767C22.9149 23.6482 23.0205 23.7431 23.1164 23.8853ZM89.592 37.4741L90.0526 37.4646C90.3596 37.4646 90.5899 37.5215 90.7722 37.6543C90.9353 37.7776 91.0313 37.9388 91.0313 38.0905C91.0313 38.2138 90.9737 38.375 90.9065 38.4414C90.7914 38.5457 90.7914 38.5931 90.9065 38.7543C90.9737 38.8586 91.0409 39.1051 91.0313 39.2948C91.0313 39.5793 91.0025 39.6457 90.8681 39.6267C90.7722 39.6172 90.6858 39.5129 90.6666 39.4181C90.6571 39.3138 90.6187 39.1336 90.5995 39.0103C90.5611 38.8491 90.4843 38.8017 90.2636 38.8017C89.9854 38.8017 89.9758 38.8112 89.9758 39.2284C89.9758 39.5888 89.947 39.6551 89.7839 39.6551C89.6016 39.6551 89.592 39.5888 89.592 38.5646V37.4741ZM90.1965 38.4224C90.3116 38.4129 90.4651 38.3845 90.5419 38.3465C90.6091 38.3086 90.6475 38.1948 90.6283 38.0905C90.6091 37.9482 90.5131 37.8914 90.2924 37.8724C90.0142 37.8439 89.995 37.8629 89.9854 38.1284C89.9758 38.3655 90.0142 38.4224 90.1965 38.4224Z" fill="black" fill-opacity="0.64"/>
</g>
<defs>
<clipPath id="clip0_1765_2337">
<rect width="96" height="64" fill="white" transform="translate(0.428558)"/>
</clipPath>
</defs>
</svg>
