<svg width="65" height="64" viewBox="0 0 65 64" fill="none" xmlns="http://www.w3.org/2000/svg">
<rect x="13.2857" y="17.1431" width="10.2857" height="12.5714" fill="black" fill-opacity="0.64"/>
<path d="M46.8643 40.691C46.4955 40.5731 45.674 40.4384 45.0201 40.4047C44.383 40.3542 43.5447 40.3879 43.1758 40.4552C42.807 40.5394 42.1867 40.7583 41.7843 40.9604C41.3987 41.1457 40.9124 41.5498 40.7113 41.8529C40.5101 42.1561 40.3089 42.7118 40.2753 43.0823C40.225 43.4528 40.2418 43.958 40.3089 44.2274C40.3592 44.48 40.6274 44.9347 40.8789 45.2378C41.1472 45.5241 41.7004 45.9451 42.1028 46.1472C42.5052 46.3324 43.4441 46.6524 44.1818 46.8545C44.9195 47.0565 45.6572 47.3428 45.8248 47.5112C45.9925 47.6628 46.1266 47.9491 46.1099 48.1343C46.1099 48.3195 46.0093 48.6227 45.8751 48.8079C45.6907 49.0605 45.4392 49.1447 44.8021 49.1447C44.1315 49.1447 43.8632 49.0605 43.5279 48.7237C43.2764 48.4879 43.0585 48.1006 43.0082 47.848L42.9244 47.3765C40.7783 47.5281 40.0574 47.5954 39.9568 47.6459C39.8059 47.6965 39.7724 47.8649 39.873 48.269C39.94 48.5553 40.2083 49.1447 40.443 49.5657C40.728 50.0541 41.1304 50.4751 41.5998 50.7277C42.0861 50.9971 42.7399 51.1655 43.5112 51.2329C44.165 51.2834 45.1542 51.2834 45.741 51.216C46.3111 51.1318 47.0655 50.9298 47.4176 50.7614C47.7529 50.593 48.2056 50.2561 48.39 50.0372C48.5912 49.8351 48.8762 49.3973 49.0271 49.111C49.178 48.8079 49.2954 48.1511 49.2954 47.6796C49.2786 47.1071 49.1613 46.5682 48.9433 46.1977C48.7756 45.8777 48.3062 45.4062 47.9038 45.1536C47.5182 44.901 46.5961 44.5305 45.8584 44.3453C45.7974 44.3286 45.7355 44.3116 45.6731 44.2946C44.9804 44.105 44.2225 43.8977 43.9303 43.7896C43.5279 43.638 43.3267 43.4528 43.31 43.2002C43.2764 42.9812 43.4106 42.7286 43.6453 42.5602C43.88 42.3918 44.2153 42.3245 44.6009 42.3918C44.9195 42.4423 45.3051 42.6107 45.456 42.7791C45.6069 42.9475 45.7745 43.217 45.8248 43.3854C45.9254 43.638 46.1434 43.6717 47.3505 43.638C48.1218 43.6043 48.8259 43.5201 48.9098 43.4528C48.9768 43.3854 48.9433 43.0318 48.8427 42.6613C48.7253 42.2908 48.3733 41.7351 48.0715 41.4488C47.7697 41.1457 47.2332 40.8089 46.8643 40.691Z" fill="black" fill-opacity="0.64"/>
<path d="M57.6448 40.8931C57.0412 40.6236 56.3538 40.4552 55.4988 40.4047C54.8114 40.3542 53.9395 40.3879 53.5707 40.4552C53.2018 40.5394 52.5983 40.7415 52.2462 40.9099C51.8773 41.0951 51.3576 41.533 51.1061 41.9035C50.7373 42.4255 50.6199 42.7623 50.6367 43.3854C50.6367 43.8232 50.7037 44.3453 50.7875 44.5642C50.8714 44.7663 51.1564 45.1536 51.4079 45.4062C51.6761 45.6588 52.1959 46.0124 52.5647 46.1808C52.9336 46.3661 53.8389 46.6524 54.5766 46.8545C55.3143 47.0565 56.052 47.3428 56.2197 47.5112C56.3874 47.6628 56.5215 47.9659 56.5047 48.1848C56.5047 48.3869 56.3035 48.7069 56.052 48.9089C55.6832 49.1784 55.4317 49.2457 54.912 49.1615C54.5431 49.111 54.0737 48.8921 53.8557 48.69C53.6545 48.4711 53.4366 48.1175 53.403 47.8817C53.3024 47.4607 53.3024 47.4607 51.76 47.5281C50.9049 47.5617 50.2007 47.5954 50.1672 47.6123C50.1504 47.6123 50.2007 47.9659 50.3013 48.3869C50.4187 48.8079 50.7037 49.431 50.9384 49.8015C51.1899 50.1551 51.6929 50.6098 52.0618 50.795C52.4306 50.9803 53.2521 51.1824 53.906 51.2329C54.5599 51.2834 55.5491 51.2834 56.1359 51.216C56.7059 51.1318 57.4604 50.9298 57.8125 50.7614C58.1478 50.593 58.6005 50.2561 58.8016 50.0372C59.0028 49.8351 59.2879 49.3636 59.422 49.0268C59.5729 48.6732 59.6902 48.0333 59.6902 47.5954C59.6902 47.0902 59.5729 46.585 59.3549 46.2482C59.1705 45.9451 58.7681 45.5072 58.4831 45.2883C58.1813 45.0526 57.4436 44.7158 56.84 44.5305C56.2365 44.3453 55.2976 44.059 54.7443 43.8906C53.9395 43.6548 53.7383 43.5201 53.7048 43.217C53.6713 42.9475 53.8054 42.7455 54.124 42.5434C54.476 42.3245 54.7108 42.2908 55.1634 42.4255C55.5826 42.5265 55.8173 42.7286 56.0017 43.1159C56.2532 43.6548 56.27 43.6717 57.4268 43.6717C58.0807 43.6717 58.7849 43.6043 59.0028 43.537C59.3381 43.4359 59.3717 43.3517 59.2879 42.9139C59.2208 42.6444 59.0196 42.1561 58.8519 41.8698C58.634 41.5161 58.1981 41.1625 57.6448 40.8931Z" fill="black" fill-opacity="0.64"/>
<path fill-rule="evenodd" clip-rule="evenodd" d="M32.4289 40.5226L29.2266 40.4215L29.1763 51.0813C34.2564 51.0813 35.3797 51.014 35.9665 50.8456C36.4863 50.694 37.0563 50.3572 37.4587 49.953C37.8275 49.5994 38.2802 48.9763 38.4646 48.5553C38.6658 48.0838 38.8167 47.2923 38.867 46.4503C38.9005 45.7093 38.8502 44.6821 38.7496 44.1769C38.6491 43.6717 38.3305 42.8802 38.0287 42.4087C37.6263 41.8024 37.2072 41.4319 36.5533 41.0951C35.6647 40.6236 35.5474 40.6068 32.4289 40.5226ZM34.9941 48.168C34.6085 48.5553 34.3738 48.6395 32.5295 48.7237V42.9981H33.284C33.7031 42.9981 34.2732 43.1159 34.5414 43.2507C34.8264 43.3854 35.1618 43.739 35.3126 44.0422C35.5306 44.4632 35.5809 44.9515 35.5306 46.1472C35.4635 47.5786 35.43 47.7301 34.9941 48.168Z" fill="black" fill-opacity="0.64"/>
<path d="M48.4068 13.7808C46.7302 10.0591 45.5733 7.71835 45.4224 7.70151C45.2883 7.68467 44.5506 7.73519 43.7626 7.80255C42.9746 7.86991 33.7701 8.40879 23.3082 8.99819C12.8463 9.57076 4.21189 10.0928 4.14483 10.1433C4.07777 10.1938 5.73759 14.9764 7.85009 20.7694C10.4991 28.0612 11.7565 31.2945 11.9242 31.2945C12.1254 31.2945 12.1589 30.3514 12.1925 24.9458L12.2428 18.5802L21.3802 18.6644C23.107 19.4727 23.7441 19.9443 24.0962 20.3484C24.4148 20.7189 24.7501 21.3251 24.8339 21.6956C24.9345 22.0661 24.9848 22.7902 24.9681 23.3123C24.9178 23.9859 24.7669 24.4742 24.398 25.0636C24.0292 25.653 23.6268 26.0235 22.8891 26.4445C22.252 26.7982 21.3969 27.0845 20.5419 27.2529C19.8042 27.3876 18.7647 27.4886 18.2449 27.5055C17.6414 27.5055 17.2055 27.5897 17.0378 27.7581C16.8198 27.9601 16.7695 28.398 16.7695 29.7789V31.5471C13.3325 31.5471 12.226 31.6144 12.1086 31.6818C11.9242 31.766 12.293 32.928 13.6679 36.7675C14.657 39.4956 15.4786 41.7522 15.4953 41.769C15.4953 41.7859 20.4077 40.2534 26.4099 38.3505C32.3953 36.4644 37.4083 34.8814 37.5089 34.8309C37.6766 34.7635 37.6598 34.6288 37.4419 34.292C37.291 34.0226 37.006 33.3658 36.788 32.8101L36.4191 31.7997C33.4684 31.6144 32.2277 31.4797 31.775 31.3618C31.3056 31.2608 30.4505 30.9408 29.8637 30.6377C29.2769 30.3514 28.4889 29.8125 28.1368 29.4421C27.768 29.0716 27.265 28.3475 27.0303 27.8423C26.6279 27.0171 26.5776 26.7308 26.5776 25.0636C26.5776 23.3123 26.6111 23.1607 27.1141 22.2008C27.3991 21.6451 27.9188 20.9041 28.2709 20.5505C28.6398 20.1969 29.4445 19.6411 30.0984 19.3212C30.8026 18.9675 31.8421 18.6307 32.6971 18.4792C33.7198 18.2939 34.6755 18.2434 36.0503 18.3108C37.1066 18.3613 38.1963 18.4623 38.4813 18.5465L38.9843 18.6812C39.0514 21.0894 39.0514 21.7798 39.0179 21.7798C39.0011 21.7798 38.5317 21.6283 37.9784 21.4262C37.4251 21.2241 36.5197 21.0557 35.9665 21.0557C35.4132 21.0389 34.5749 21.1399 34.1222 21.2746C33.5354 21.443 33.0492 21.7461 32.5295 22.285C32.0768 22.7229 31.6744 23.3291 31.557 23.7164C31.4564 24.0869 31.3559 24.6932 31.3559 25.0636C31.3559 25.4341 31.5067 26.0404 31.6744 26.4108C31.8253 26.7813 32.3115 27.3876 32.7139 27.7581C33.2336 28.2296 33.8037 28.5327 34.5581 28.7516C35.3461 28.9705 35.8994 29.0379 36.6371 28.9537C37.1904 28.8863 38.0622 28.7179 38.5652 28.5832C39.2023 28.398 39.5041 28.3811 39.5208 28.499C39.5544 28.6001 39.6885 28.6843 39.8226 28.6843C39.9567 28.6843 40.4262 28.8695 40.8621 29.1053C41.4992 29.4252 41.7172 29.4589 41.8848 29.3073C42.0357 29.1558 42.086 27.8759 42.086 23.8512V18.5802H46.6128C46.6799 24.8952 46.7637 26.4108 46.8643 26.4445C46.9649 26.4782 48.0044 25.1647 49.178 23.5144C50.7875 21.2746 51.3073 20.4326 51.2234 20.18C51.1731 19.9948 49.8989 17.1151 48.4068 13.7808Z" fill="black" fill-opacity="0.64"/>
<path d="M58.2819 18.9675L60.1429 17.0646C58.4327 17.0646 57.9968 17.1825 56.9909 17.6877C56.0352 18.1592 55.3814 18.6812 54.1407 19.9274C53.2521 20.8031 51.9108 22.4197 51.1228 23.548C50.3348 24.6595 49.178 26.4277 48.5409 27.4549C47.887 28.499 47.2667 29.3579 47.1661 29.3579C47.0487 29.3579 46.9481 29.4589 46.9481 29.5768C46.9481 29.6778 46.6463 30.2504 46.2775 30.8398C45.9086 31.4124 45.6069 31.9849 45.6069 32.1028C45.6069 32.2038 45.3889 32.6248 45.1039 33.029C44.8356 33.4163 44.4835 33.7363 44.3494 33.7363C44.2153 33.7363 43.662 33.2479 43.1423 32.6754C42.6058 32.086 41.7172 31.3113 41.1639 30.9577C40.5939 30.5872 39.94 30.3009 39.655 30.3009C39.3699 30.2841 38.934 30.4188 38.6825 30.5872C38.4311 30.7388 38.1796 31.0756 38.1293 31.345C38.079 31.5976 38.1293 32.0186 38.2466 32.3049C38.3808 32.5912 39.0179 33.5342 39.6717 34.4099C40.3256 35.2856 41.2645 36.4139 41.7339 36.9022C42.2872 37.4579 42.8069 37.8453 43.2261 37.9463C43.5614 38.0305 44.232 38.1147 44.6847 38.1147C45.4392 38.0979 45.5733 38.0474 46.1098 37.4579C46.4284 37.1043 47.3673 35.6055 48.1888 34.1404C49.0103 32.6754 50.536 30.0146 51.5587 28.2633C52.5982 26.5119 54.1239 24.1206 54.9287 22.9586C55.8005 21.7293 57.1921 20.0621 58.2819 18.9675Z" fill="black" fill-opacity="0.64"/>
<path d="M32.0265 53.2708C31.7918 53.035 31.4732 52.934 30.987 52.934C30.5846 52.934 30.1487 53.035 29.9978 53.1529C29.8469 53.2708 29.6457 53.5234 29.5451 53.7423C29.4278 53.9444 29.3439 54.3822 29.3439 54.7022C29.3439 55.0895 29.4948 55.4768 29.7631 55.7968C30.1152 56.2178 30.2996 56.302 30.9367 56.302C31.5403 56.302 31.7918 56.201 32.1103 55.881C32.345 55.6452 32.5295 55.3926 32.5295 55.2916C32.5295 55.1906 32.3283 55.0727 32.0768 55.0222C31.7415 54.938 31.5738 54.9885 31.49 55.1906C31.4062 55.3421 31.1714 55.46 30.9367 55.46C30.6517 55.46 30.484 55.3421 30.417 55.0895C30.3667 54.8706 30.3667 54.5001 30.417 54.2475C30.484 53.9276 30.6182 53.776 30.8529 53.776C31.0373 53.776 31.3223 53.8602 31.49 53.9612C31.6409 54.0791 31.9091 54.1128 32.0768 54.0454C32.2277 53.9949 32.3618 53.877 32.3618 53.776C32.3618 53.675 32.2109 53.456 32.0265 53.2708Z" fill="black" fill-opacity="0.64"/>
<path fill-rule="evenodd" clip-rule="evenodd" d="M35.7653 53.355C35.4132 53.035 35.1282 52.934 34.6252 52.934C34.2564 52.9508 33.8037 53.035 33.6192 53.1192C33.4348 53.2034 33.1833 53.456 33.0827 53.6918C32.9654 53.9276 32.8648 54.3822 32.8648 54.7022C32.8648 55.0895 33.0157 55.4768 33.2839 55.7968C33.636 56.2346 33.8204 56.302 34.5078 56.302C35.1449 56.302 35.3797 56.2178 35.7485 55.8473C36.1174 55.46 36.218 55.2242 36.218 54.5843C36.218 53.9107 36.1341 53.7086 35.7653 53.355ZM34.2563 55.359C34.0887 55.2579 33.9378 54.9548 33.9043 54.6854C33.8875 54.4159 33.9546 54.096 34.0552 53.9949C34.1558 53.877 34.3737 53.776 34.5246 53.776C34.6755 53.7592 34.8935 53.8602 35.0108 53.9781C35.1282 54.096 35.1952 54.4159 35.1785 54.6854C35.1449 54.9548 34.994 55.2579 34.8432 55.359C34.6252 55.4937 34.4575 55.4937 34.2563 55.359Z" fill="black" fill-opacity="0.64"/>
<path d="M37.4419 52.9677L36.7377 52.9171L36.7209 56.302C37.5425 56.302 37.5592 56.2515 37.5592 55.3421C37.5592 54.8032 37.5928 54.3991 37.6431 54.4496C37.6934 54.5001 37.8275 54.9211 37.9448 55.3758C38.1293 56.0831 38.2299 56.2178 38.5652 56.2178C38.9173 56.2178 39.0011 56.0831 39.2358 55.2074L39.4873 54.197C39.5711 56.2515 39.5879 56.302 39.9903 56.302H40.4094V52.934C39.0849 52.934 39.0682 52.9508 38.9005 53.6918C38.7999 54.1128 38.6825 54.4496 38.6155 54.4496C38.5317 54.4496 38.4143 54.1296 38.3137 53.7423C38.146 53.0519 38.1125 53.0182 37.4419 52.9677Z" fill="black" fill-opacity="0.64"/>
<path fill-rule="evenodd" clip-rule="evenodd" d="M42.1195 52.934H41.0801V56.302C42.0357 56.302 42.086 56.2515 42.086 55.7631C42.0693 55.2579 42.1195 55.2074 42.7567 55.0895C43.1758 55.0053 43.4944 54.8369 43.5949 54.618C43.6788 54.4328 43.7626 54.1128 43.7626 53.9107C43.7626 53.6918 43.6285 53.3887 43.4776 53.2371C43.2596 53.0182 42.8908 52.9508 42.1195 52.934ZM42.7064 53.9949C42.7399 54.1858 42.6449 54.2812 42.4213 54.2812C42.1866 54.2812 42.086 54.1802 42.1028 53.9276C42.1028 53.7086 42.2034 53.6076 42.3878 53.6413C42.5387 53.675 42.6896 53.8265 42.7064 53.9949Z" fill="black" fill-opacity="0.64"/>
<path d="M45.2715 52.934H44.2656V56.302C46.7637 56.2178 46.8643 56.201 46.8978 55.8473C46.9481 55.4937 46.8643 55.46 46.1434 55.4263L45.3554 55.3758L45.2715 52.934Z" fill="black" fill-opacity="0.64"/>
<path d="M48.3732 56.2178L48.4571 52.934C47.6691 52.934 47.4008 53.035 47.3505 53.1529C47.3002 53.2876 47.2834 54.0286 47.317 54.8032L47.3673 56.2178H48.3732Z" fill="black" fill-opacity="0.64"/>
<path fill-rule="evenodd" clip-rule="evenodd" d="M51.609 54.2475C51.1396 52.9677 51.1228 52.934 50.5528 52.934C49.9995 52.934 49.9827 52.9677 49.4965 54.2475C49.2283 54.9548 48.96 55.7126 48.893 55.9315C48.8091 56.2515 48.8427 56.302 49.2953 56.302C49.6474 56.302 49.8151 56.2178 49.8822 55.9652C49.9324 55.7294 50.1001 55.6284 50.469 55.6284C50.8043 55.6284 51.0278 55.7407 51.1396 55.9652C51.2514 56.1897 51.4749 56.302 51.8102 56.302C52.2461 56.302 52.2964 56.2515 52.1958 55.9315C52.1455 55.7126 51.8773 54.9548 51.609 54.2475ZM50.5528 54.9548C50.4187 54.9548 50.3013 54.8874 50.3013 54.7864C50.3013 54.7022 50.3516 54.4833 50.4019 54.3317C50.4857 54.0791 50.536 54.0623 50.6534 54.2812C50.7372 54.4159 50.8043 54.6348 50.8043 54.7527C50.8043 54.8706 50.6869 54.9548 50.5528 54.9548Z" fill="black" fill-opacity="0.64"/>
<path d="M53.1012 52.934H52.6485V56.302C53.5203 56.2178 53.5706 56.1336 53.6545 55.4768L53.7383 54.7527C54.7275 56.1673 54.9119 56.302 55.2808 56.2683L55.7502 56.2178L55.8005 52.934C54.8616 52.934 54.8281 52.9845 54.8281 53.6076C54.8281 53.9781 54.7443 54.3149 54.6604 54.3654C54.5598 54.4159 54.2748 54.1128 54.0233 53.6918C53.6545 53.0856 53.4701 52.934 53.1012 52.934Z" fill="black" fill-opacity="0.64"/>
<path d="M57.6783 52.934C56.6209 52.934 56.3045 52.934 56.2098 53.0789C56.1694 53.1407 56.1694 53.229 56.1694 53.355C56.1694 53.7086 56.2364 53.776 56.6723 53.776H57.1753V56.302H58.1813V53.776C59.1034 53.776 59.1872 53.7086 59.1872 53.355C59.1872 52.934 59.1704 52.934 57.6783 52.934Z" fill="black" fill-opacity="0.64"/>
<path d="M54.3586 27.1687C54.4425 27.1687 54.6772 27.5897 54.8784 28.0949C55.1131 28.7011 55.1801 29.0884 55.0796 29.1726C54.9957 29.2568 54.4257 29.4758 53.8221 29.6778C53.2185 29.8799 52.682 30.0315 52.615 30.0315C52.5311 30.0315 52.5311 29.8968 52.5814 29.7452C52.6317 29.5768 53.0173 28.9369 53.4365 28.297C53.8556 27.6739 54.2748 27.1687 54.3586 27.1687Z" fill="black" fill-opacity="0.64"/>
<path d="M42.9746 11.5914C42.371 11.8777 42.0022 12.1977 41.801 12.5681C41.6501 12.8544 41.516 13.4943 41.516 13.949C41.516 14.4205 41.6501 15.0436 41.801 15.3468C42.0022 15.7004 42.371 16.0204 42.9578 16.3066C43.4441 16.5424 44.1147 16.7276 44.4332 16.7276C44.7518 16.7276 45.3554 16.5592 45.7745 16.3572C46.2775 16.1046 46.6463 15.7509 46.8978 15.2962C47.1158 14.9089 47.2834 14.3363 47.2834 13.949C47.2834 13.5617 47.1158 12.9891 46.8978 12.6018C46.6463 12.1471 46.2775 11.7935 45.7745 11.5409C45.3554 11.3388 44.7518 11.1704 44.4332 11.1704C44.1147 11.1704 43.4441 11.3557 42.9578 11.5914H42.9746Z" fill="white"/>
<path d="M30.0984 19.321C30.7355 19.001 31.842 18.6306 32.5294 18.4958C33.3845 18.3274 34.4575 18.2769 35.8826 18.3274C37.0395 18.3611 38.1963 18.4622 38.9843 18.6811L39.0346 20.2304C39.0514 21.0892 39.0514 21.7796 39.0346 21.7796C39.0011 21.7796 38.5316 21.6281 37.9783 21.426C37.4251 21.2239 36.5197 21.0555 35.9664 21.0555C35.4132 21.0387 34.5916 21.1397 34.1222 21.2744C33.5354 21.4428 33.0492 21.746 32.5294 22.2849C32.0767 22.7227 31.6744 23.3289 31.557 23.7163C31.4564 24.0867 31.3558 24.693 31.3558 25.0635C31.3558 25.4339 31.5067 26.0402 31.6744 26.4107C31.8253 26.7812 32.3115 27.3874 32.7139 27.7579C33.2336 28.2294 33.8036 28.5325 34.5581 28.7514C35.3796 28.9872 35.8826 29.0209 36.7209 28.9367C37.3245 28.8693 38.146 28.7178 38.5651 28.583C38.9843 28.4483 39.3531 28.3473 39.4034 28.3473C39.4537 28.3473 39.4873 28.7683 39.4873 29.2903C39.4873 30.1829 39.4705 30.2334 38.934 30.4691C38.6322 30.6039 38.3137 30.907 38.2131 31.1596C38.0454 31.5469 37.9113 31.6311 37.4251 31.6311C37.0897 31.6311 36.8047 31.7153 36.7712 31.8332C36.7377 31.9679 36.6371 32.0016 36.5197 31.9005C36.4023 31.8332 35.4299 31.7153 34.3737 31.6648C33.3174 31.5974 32.0265 31.4459 31.5235 31.2943C31.0205 31.1596 30.199 30.8396 29.696 30.587C29.193 30.3176 28.4889 29.8124 28.1368 29.4419C27.7679 29.0714 27.2649 28.3473 27.0302 27.8421C26.6278 27.0169 26.5775 26.7306 26.5775 25.0635C26.5775 23.3121 26.6111 23.1605 27.1141 22.2007C27.3991 21.6449 27.9188 20.904 28.2709 20.5503C28.6397 20.1967 29.4613 19.641 30.0984 19.321Z" fill="white"/>
<path fill-rule="evenodd" clip-rule="evenodd" d="M12.0751 31.2943C12.1757 31.2438 12.2427 28.9198 12.2595 24.8782V18.5632L21.3801 18.6642L22.4531 19.1694C23.107 19.4726 23.7441 19.9441 24.0962 20.3482C24.4147 20.7187 24.7501 21.325 24.8339 21.6954C24.9345 22.0659 24.9848 22.7901 24.968 23.3121C24.9177 23.9857 24.7668 24.4741 24.398 25.0635C24.0291 25.6529 23.6267 26.0234 22.889 26.4444C22.2519 26.798 21.3969 27.0843 20.5418 27.2527C19.8041 27.3874 18.7646 27.4884 18.2449 27.5053C17.6413 27.5053 17.2054 27.5895 17.0378 27.7579C16.8198 27.96 16.7695 28.3978 16.7695 31.5469L14.4055 31.5806C13.0978 31.6143 12.008 31.5806 11.9745 31.4964C11.9409 31.429 11.9912 31.3448 12.0751 31.2943ZM18.9491 21.1229C18.6305 21.0219 18.1275 20.9377 17.8257 20.9377C17.5407 20.9377 17.1719 21.0556 17.021 21.2071C16.803 21.4092 16.7527 21.7797 16.7527 22.9753C16.7695 24.0699 16.8366 24.5415 17.021 24.7267C17.1719 24.8783 17.5743 24.9793 17.9934 24.9793C18.379 24.9793 18.9658 24.8446 19.2844 24.6762C19.6365 24.4909 19.9885 24.1036 20.1897 23.6994C20.3909 23.2784 20.458 22.8574 20.4077 22.5375C20.3406 22.2512 20.1227 21.8639 19.9215 21.6786C19.7035 21.4766 19.2676 21.2408 18.9491 21.1229Z" fill="white"/>
<path d="M42.1027 23.8341C42.1027 27.8589 42.0524 29.1388 41.8848 29.2903C41.7171 29.4419 41.7171 29.4924 41.8848 29.5766C42.0022 29.644 42.1027 29.9471 42.1027 30.2671C42.1027 30.6039 42.0189 30.907 41.9351 30.9407C41.8345 30.9912 41.7674 31.1091 41.7674 31.1933C41.7674 31.2943 41.9686 31.4795 42.2201 31.6311C42.5554 31.8163 42.7231 31.85 42.8404 31.7153C42.9243 31.6143 43.4943 31.5301 44.0979 31.5301C44.7685 31.5301 45.2715 31.6143 45.4056 31.749C45.5565 31.9174 45.7409 31.7321 46.2775 30.8565C46.6463 30.2671 46.9649 29.6777 46.9649 29.5598C46.9649 29.4419 46.881 29.2903 46.7637 29.223C46.6463 29.1388 46.596 28.6167 46.6295 27.741C46.6463 27.0001 46.6631 24.6425 46.6463 22.4869L46.6295 18.5632H42.1027V23.8341Z" fill="white"/>
</svg>
